{
.appVersion = "908";
DisplayStrings = (
z
);
classes = (
{
automatic = 1;

glyphs = (
{
color = 10;
glyphname = A;
lastChange = "2016-07-10 04:43:10 +0000";
layers = (
{
anchors = (
{
name = bottom;
position = "{288, 0}";
},
{
name = ogonek;
position = "{554, 10}";
},
{
name = top;
position = "{409, 671}";
}
);
background = {
paths = (
{
closed = 1;
nodes = (
"513 0 LINE",
"613 0 LINE",
"468 686 LINE",
"345 686 LINE",
"-41 0 LINE",
"59 0 LINE",
"159 183 LINE",
"477 183 LINE"
);
},
{
closed = 1;
nodes = (
"389 604 LINE",
"394 604 LINE",
"460 266 LINE",
"204 266 LINE"
);
}
);
};
layerId = UUID0;
paths = (
{
closed = 1;
nodes = (
"59 0 LINE",
"159 183 LINE",
"477 183 LINE",
"513 0 LINE",
"613 0 LINE",
"468 686 LINE",
"345 686 LINE",
"-41 0 LINE"
);
},
{
closed = 1;
nodes = (
"310 459 LINE",
"336 507 OFFCURVE",
"363 556 OFFCURVE",
"389 604 CURVE",
"394 604 LINE",
"404 554 OFFCURVE",
"413 505 OFFCURVE",
"423 455 CURVE",
"460 266 LINE",
"204 266 LINE"
);
}
);
width = 667;
},
{
anchors = (
{
name = bottom;
position = "{315, 0}";
},
{
name = ogonek;
position = "{604, 10}";
},
{
name = top;
position = "{426, 671}";
}
);
background = {
paths = (
{
closed = 1;
nodes = (
"663 0 LINE",
"516 686 LINE",
"334 686 LINE",
"-54 0 LINE",
"101 0 LINE",
"173 131 LINE",
"488 131 LINE",
"515 0 LINE"
);
},
{
closed = 1;
nodes = (
"464 252 LINE",
"241 252 LINE",
"335 426 LINE",
"354 460 OFFCURVE",
"404 561 OFFCURVE",
"404 561 CURVE",
"409 561 LINE",
"409 561 OFFCURVE",
"423 460 OFFCURVE",
"430 426 CURVE SMOOTH"
);
}
);
};
layerId = "515A5158-96A0-47B2-825D-DFEB99868FF8";
paths = (
{
closed = 1;
nodes = (
"101 0 LINE",
"173 131 LINE",
"488 131 LINE",
"515 0 LINE",
"663 0 LINE",
"516 686 LINE",
"334 686 LINE",
"-54 0 LINE"
);
},
{
closed = 1;
nodes = (
"335 426 LINE",
"354 460 OFFCURVE",
"404 561 OFFCURVE",
"404 561 CURVE",
"409 561 LINE",
"409 561 OFFCURVE",
"423 460 OFFCURVE",
"430 426 CURVE SMOOTH",
"464 252 LINE",
"241 252 LINE"
);
}
);
width = 722;
}
);
leftKerningGroup = A;
rightKerningGroup = A;
unicode = 0041;
},
{
color = 10;
glyphname = Aacute;
lastChange = "2015-02-16 21:42:50 +0000";
layers = (
{
background = {
paths = (
{
closed = 1;
nodes = (
"513 0 LINE",
"613 0 LINE",
"468 686 LINE",
"345 686 LINE",
"-41 0 LINE",
"59 0 LINE",
"159 183 LINE",
"477 183 LINE"
);
},
{
closed = 1;
nodes = (
"389 604 LINE",
"394 604 LINE",
"460 266 LINE",
"204 266 LINE"
);
},
{
closed = 1;
nodes = (
"438 737 LINE",
"562 866 LINE",
"561 869 LINE",
"460 869 LINE",
"352 737 LINE"
);
}
);
};
components = (
{
name = A;
},
{
name = acute;
transform = "{1, 0, 0, 1, 314, 145}";
}
);
layerId = UUID0;
width = 667;
},
{
background = {
paths = (
{
closed = 1;
nodes = (
"663 0 LINE",
"516 686 LINE",
"334 686 LINE",
"-54 0 LINE",
"101 0 LINE",
"173 131 LINE",
"488 131 LINE",
"515 0 LINE"
);
},
{
closed = 1;
nodes = (
"464 252 LINE",
"241 252 LINE",
"335 426 LINE",
"354 460 OFFCURVE",
"404 561 OFFCURVE",
"404 561 CURVE",
"409 561 LINE",
"409 561 OFFCURVE",
"423 460 OFFCURVE",
"430 426 CURVE SMOOTH"
);
},
{
closed = 1;
nodes = (
"589 866 LINE",
"588 869 LINE",
"450 869 LINE",
"348 737 LINE",
"458 737 LINE"
);
}
);
};
components = (
{
name = A;
},
{
name = acute;
transform = "{1, 0, 0, 1, 324, 145}";
}
);
layerId = "515A5158-96A0-47B2-825D-DFEB99868FF8";
width = 722;
}
);
leftKerningGroup = A;
rightKerningGroup = A;
unicode = 00C1;
},
{
color = 10;
glyphname = Abreve;
lastChange = "2015-02-16 21:42:50 +0000";
layers = (
{
background = {
paths = (
{
closed = 1;
nodes = (
"513 0 LINE",
"613 0 LINE",
"468 686 LINE",
"345 686 LINE",
"-41 0 LINE",
"59 0 LINE",
"159 183 LINE",
"477 183 LINE"
);
},
{
closed = 1;
nodes = (
"389 604 LINE",
"394 604 LINE",
"460 266 LINE",
"204 266 LINE"
);
},
{
closed = 1;
nodes = (
"510 857 LINE",
"503 835 OFFCURVE",
"474 804 OFFCURVE",
"411 804 CURVE SMOOTH",
"350 804 OFFCURVE",
"342 835 OFFCURVE",
"341 857 CURVE",
"280 857 LINE",
"278 849 OFFCURVE",
"278 842 OFFCURVE",
"278 834 CURVE SMOOTH",
"278 786 OFFCURVE",
"309 740 OFFCURVE",
"412 740 CURVE SMOOTH",
"511 740 OFFCURVE",
"561 802 OFFCURVE",
"571 857 CURVE"
);
}
);
};
components = (
{
name = A;
},
{
name = breve;
transform = "{1, 0, 0, 1, 258, 145}";
}
);
layerId = UUID0;
width = 667;
},
{
background = {
paths = (
{
closed = 1;
nodes = (
"663 0 LINE",
"516 686 LINE",
"334 686 LINE",
"-54 0 LINE",
"101 0 LINE",
"173 131 LINE",
"488 131 LINE",
"515 0 LINE"
);
},
{
closed = 1;
nodes = (
"464 252 LINE",
"241 252 LINE",
"335 426 LINE",
"354 460 OFFCURVE",
"404 561 OFFCURVE",
"404 561 CURVE",
"409 561 LINE",
"409 561 OFFCURVE",
"423 460 OFFCURVE",
"430 426 CURVE SMOOTH"
);
},
{
closed = 1;
nodes = (
"514 868 LINE",
"507 847 OFFCURVE",
"480 820 OFFCURVE",
"433 820 CURVE SMOOTH",
"385 820 OFFCURVE",
"371 845 OFFCURVE",
"371 868 CURVE",
"281 868 LINE",
"279 860 OFFCURVE",
"279 851 OFFCURVE",
"279 843 CURVE SMOOTH",
"279 785 OFFCURVE",
"317 731 OFFCURVE",
"430 731 CURVE SMOOTH",
"476 731 OFFCURVE",
"513 743 OFFCURVE",
"541 764 CURVE SMOOTH",
"577 791 OFFCURVE",
"597 832 OFFCURVE",
"604 868 CURVE"
);
}
);
};
components = (
{
name = A;
},
{
name = breve;
transform = "{1, 0, 0, 1, 271, 145}";
}
);
layerId = "515A5158-96A0-47B2-825D-DFEB99868FF8";
width = 722;
}
);
leftKerningGroup = A;
rightKerningGroup = A;
unicode = 0102;
},
{
color = 10;
glyphname = Acircumflex;
lastChange = "2015-02-16 21:42:50 +0000";
layers = (
{
background = {
paths = (
{
closed = 1;
nodes = (
"513 0 LINE",
"613 0 LINE",
"468 686 LINE",
"345 686 LINE",
"-41 0 LINE",
"59 0 LINE",
"159 183 LINE",
"477 183 LINE"
);
},
{
closed = 1;
nodes = (
"389 604 LINE",
"394 604 LINE",
"460 266 LINE",
"204 266 LINE"
);
},
{
closed = 1;
nodes = (
"555 737 LINE",
"473 872 LINE",
"389 872 LINE",
"260 737 LINE",
"354 737 LINE",
"426 816 LINE",
"469 737 LINE"
);
}
);
};
components = (
{
name = A;
},
{
name = circumflex;
transform = "{1, 0, 0, 1, 261, 145}";
}
);
layerId = UUID0;
width = 667;
},
{
background = {
paths = (
{
closed = 1;
nodes = (
"663 0 LINE",
"516 686 LINE",
"334 686 LINE",
"-54 0 LINE",
"101 0 LINE",
"173 131 LINE",
"488 131 LINE",
"515 0 LINE"
);
},
{
closed = 1;
nodes = (
"464 252 LINE",
"241 252 LINE",
"335 426 LINE",
"354 460 OFFCURVE",
"404 561 OFFCURVE",
"404 561 CURVE",
"409 561 LINE",
"409 561 OFFCURVE",
"423 460 OFFCURVE",
"430 426 CURVE SMOOTH"
);
},
{
closed = 1;
nodes = (
"599 737 LINE",
"517 872 LINE",
"395 872 LINE",
"267 737 LINE",
"386 737 LINE",
"448 806 LINE",
"493 737 LINE"
);
}
);
};
components = (
{
name = A;
},
{
name = circumflex;
transform = "{1, 0, 0, 1, 275, 145}";
}
);
layerId = "515A5158-96A0-47B2-825D-DFEB99868FF8";
width = 722;
}
);
leftKerningGroup = A;
rightKerningGroup = A;
unicode = 00C2;
},
{
color = 10;
glyphname = Adieresis;
lastChange = "2015-02-16 21:42:50 +0000";
layers = (
{
background = {
paths = (
{
closed = 1;
nodes = (
"513 0 LINE",
"613 0 LINE",
"468 686 LINE",
"345 686 LINE",
"-41 0 LINE",
"59 0 LINE",
"159 183 LINE",
"477 183 LINE"
);
},
{
closed = 1;
nodes = (
"389 604 LINE",
"394 604 LINE",
"460 266 LINE",
"204 266 LINE"
);
},
{
closed = 1;
nodes = (
"363 753 LINE",
"380 848 LINE",
"293 848 LINE",
"276 753 LINE"
);
},
{
closed = 1;
nodes = (
"550 753 LINE",
"567 848 LINE",
"480 848 LINE",
"463 753 LINE"
);
}
);
};
components = (
{
name = A;
},
{
name = dieresis;
transform = "{1, 0, 0, 1, 269, 145}";
}
);
layerId = UUID0;
width = 667;
},
{
background = {
paths = (
{
closed = 1;
nodes = (
"663 0 LINE",
"516 686 LINE",
"334 686 LINE",
"-54 0 LINE",
"101 0 LINE",
"173 131 LINE",
"488 131 LINE",
"515 0 LINE"
);
},
{
closed = 1;
nodes = (
"464 252 LINE",
"241 252 LINE",
"335 426 LINE",
"354 460 OFFCURVE",
"404 561 OFFCURVE",
"404 561 CURVE",
"409 561 LINE",
"409 561 OFFCURVE",
"423 460 OFFCURVE",
"430 426 CURVE SMOOTH"
);
},
{
closed = 1;
nodes = (
"384 741 LINE",
"405 859 LINE",
"287 859 LINE",
"267 741 LINE"
);
},
{
closed = 1;
nodes = (
"595 741 LINE",
"616 859 LINE",
"497 859 LINE",
"476 741 LINE"
);
}
);
};
components = (
{
name = A;
},
{
name = dieresis;
transform = "{1, 0, 0, 1, 285, 145}";
}
);
layerId = "515A5158-96A0-47B2-825D-DFEB99868FF8";
width = 722;
}
);
leftKerningGroup = A;
rightKerningGroup = A;
unicode = 00C4;
},
{
color = 10;
glyphname = Agrave;
lastChange = "2015-02-16 21:42:50 +0000";
layers = (
{
background = {
paths = (
{
closed = 1;
nodes = (
"513 0 LINE",
"613 0 LINE",
"468 686 LINE",
"345 686 LINE",
"-41 0 LINE",
"59 0 LINE",
"159 183 LINE",
"477 183 LINE"
);
},
{
closed = 1;
nodes = (
"389 604 LINE",
"394 604 LINE",
"460 266 LINE",
"204 266 LINE"
);
},
{
closed = 1;
nodes = (
"459 736 LINE",
"396 868 LINE",
"300 868 LINE",
"299 865 LINE",
"384 736 LINE"
);
}
);
};
components = (
{
name = A;
},
{
name = grave;
transform = "{1, 0, 0, 1, 212, 145}";
}
);
layerId = UUID0;
width = 667;
},
{
background = {
paths = (
{
closed = 1;
nodes = (
"663 0 LINE",
"516 686 LINE",
"334 686 LINE",
"-54 0 LINE",
"101 0 LINE",
"173 131 LINE",
"488 131 LINE",
"515 0 LINE"
);
},
{
closed = 1;
nodes = (
"464 252 LINE",
"241 252 LINE",
"335 426 LINE",
"354 460 OFFCURVE",
"404 561 OFFCURVE",
"404 561 CURVE",
"409 561 LINE",
"409 561 OFFCURVE",
"423 460 OFFCURVE",
"430 426 CURVE SMOOTH"
);
},
{
closed = 1;
nodes = (
"501 737 LINE",
"445 869 LINE",
"317 869 LINE",
"316 866 LINE",
"401 737 LINE"
);
}
);
};
components = (
{
name = A;
},
{
name = grave;
transform = "{1, 0, 0, 1, 216, 145}";
}
);
layerId = "515A5158-96A0-47B2-825D-DFEB99868FF8";
width = 722;
}
);
leftKerningGroup = A;
rightKerningGroup = A;
unicode = 00C0;
},
{
color = 10;
glyphname = Amacron;
lastChange = "2015-02-16 21:42:50 +0000";
layers = (
{
background = {
paths = (
{
closed = 1;
nodes = (
"562 763 LINE",
"575 835 LINE",
"270 835 LINE",
"257 763 LINE"
);
},
{
closed = 1;
nodes = (
"513 0 LINE",
"613 0 LINE",
"468 686 LINE",
"345 686 LINE",
"-41 0 LINE",
"59 0 LINE",
"159 183 LINE",
"477 183 LINE"
);
},
{
closed = 1;
nodes = (
"389 604 LINE",
"394 604 LINE",
"460 266 LINE",
"204 266 LINE"
);
}
);
};
components = (
{
name = A;
}
);
layerId = UUID0;
paths = (
{
closed = 1;
nodes = (
"562 763 LINE",
"575 835 LINE",
"270 835 LINE",
"257 763 LINE"
);
}
);
width = 667;
},
{
background = {
paths = (
{
closed = 1;
nodes = (
"663 0 LINE",
"516 686 LINE",
"334 686 LINE",
"-54 0 LINE",
"101 0 LINE",
"173 131 LINE",
"488 131 LINE",
"515 0 LINE"
);
},
{
closed = 1;
nodes = (
"464 252 LINE",
"241 252 LINE",
"335 426 LINE",
"354 460 OFFCURVE",
"404 561 OFFCURVE",
"404 561 CURVE",
"409 561 LINE",
"409 561 OFFCURVE",
"423 460 OFFCURVE",
"430 426 CURVE SMOOTH"
);
},
{
closed = 1;
nodes = (
"583 755 LINE",
"598 843 LINE",
"293 843 LINE",
"278 755 LINE"
);
}
);
};
components = (
{
name = A;
},
{
name = macron;
transform = "{1, 0, 0, 1, 288, 145}";
}
);
layerId = "515A5158-96A0-47B2-825D-DFEB99868FF8";
width = 722;
}
);
leftKerningGroup = A;
rightKerningGroup = A;
unicode = 0100;
},
{
color = 10;
glyphname = Aogonek;
lastChange = "2016-07-10 04:41:58 +0000";
layers = (
{
background = {
paths = (
{
closed = 1;
nodes = (
"592 -117 LINE",
"560 -117 LINE SMOOTH",
"533 -117 OFFCURVE",
"523 -98 OFFCURVE",
"523 -76 CURVE SMOOTH",
"523 -45 OFFCURVE",
"555 -18 OFFCURVE",
"588 0 CURVE",
"613 0 LINE",
"468 686 LINE",
"345 686 LINE",
"-41 0 LINE",
"59 0 LINE",
"159 183 LINE",
"477 183 LINE",
"513 0 LINE",
"472 -24 OFFCURVE",
"438 -59 OFFCURVE",
"438 -108 CURVE SMOOTH",
"438 -164 OFFCURVE",
"477 -182 OFFCURVE",
"511 -182 CURVE SMOOTH",
"533 -182 OFFCURVE",
"557 -179 OFFCURVE",
"583 -168 CURVE"
);
},
{
closed = 1;
nodes = (
"389 604 LINE",
"394 604 LINE",
"460 266 LINE",
"204 266 LINE"
);
}
);
};
layerId = UUID0;
paths = (
{
closed = 1;
nodes = (
"533 -182 OFFCURVE",
"557 -179 OFFCURVE",
"583 -168 CURVE",
"592 -117 LINE",
"560 -117 LINE SMOOTH",
"533 -117 OFFCURVE",
"523 -98 OFFCURVE",
"523 -76 CURVE SMOOTH",
"523 -45 OFFCURVE",
"555 -18 OFFCURVE",
"588 0 CURVE",
"613 0 LINE",
"468 686 LINE",
"345 686 LINE",
"-41 0 LINE",
"59 0 LINE",
"159 183 LINE",
"477 183 LINE",
"513 0 LINE",
"472 -24 OFFCURVE",
"438 -59 OFFCURVE",
"438 -108 CURVE SMOOTH",
"438 -164 OFFCURVE",
"477 -182 OFFCURVE",
"511 -182 CURVE SMOOTH"
);
},
{
closed = 1;
nodes = (
"389 604 LINE",
"394 604 LINE",
"460 266 LINE",
"204 266 LINE"
);
}
);
width = 667;
},
{
background = {
paths = (
{
closed = 1;
nodes = (
"644 -113 LINE",
"620 -113 LINE SMOOTH",
"584 -113 OFFCURVE",
"570 -96 OFFCURVE",
"570 -75 CURVE SMOOTH",
"570 -46 OFFCURVE",
"588 -18 OFFCURVE",
"606 0 CURVE",
"663 0 LINE",
"516 686 LINE",
"334 686 LINE",
"-54 0 LINE",
"101 0 LINE",
"173 131 LINE",
"488 131 LINE",
"515 0 LINE",
"486 -25 OFFCURVE",
"458 -58 OFFCURVE",
"458 -105 CURVE SMOOTH",
"458 -163 OFFCURVE",
"506 -182 OFFCURVE",
"555 -182 CURVE SMOOTH",
"580 -182 OFFCURVE",
"605 -177 OFFCURVE",
"634 -168 CURVE"
);
},
{
closed = 1;
nodes = (
"464 252 LINE",
"241 252 LINE",
"335 426 LINE",
"354 460 OFFCURVE",
"404 561 OFFCURVE",
"404 561 CURVE",
"409 561 LINE",
"409 561 OFFCURVE",
"423 460 OFFCURVE",
"430 426 CURVE SMOOTH"
);
}
);
};
layerId = "515A5158-96A0-47B2-825D-DFEB99868FF8";
paths = (
{
closed = 1;
nodes = (
"580 -182 OFFCURVE",
"605 -177 OFFCURVE",
"634 -168 CURVE",
"644 -113 LINE",
"620 -113 LINE SMOOTH",
"584 -113 OFFCURVE",
"570 -96 OFFCURVE",
"570 -75 CURVE SMOOTH",
"570 -46 OFFCURVE",
"588 -18 OFFCURVE",
"606 0 CURVE",
"663 0 LINE",
"516 686 LINE",
"334 686 LINE",
"-54 0 LINE",
"101 0 LINE",
"173 131 LINE",
"488 131 LINE",
"515 0 LINE",
"486 -25 OFFCURVE",
"458 -58 OFFCURVE",
"458 -105 CURVE SMOOTH",
"458 -163 OFFCURVE",
"506 -182 OFFCURVE",
"555 -182 CURVE SMOOTH"
);
},
{
closed = 1;
nodes = (
"335 426 LINE",
"354 460 OFFCURVE",
"404 561 OFFCURVE",
"404 561 CURVE",
"409 561 LINE",
"409 561 OFFCURVE",
"423 460 OFFCURVE",
"430 426 CURVE SMOOTH",
"464 252 LINE",
"241 252 LINE"
);
}
);
width = 722;
}
);
leftKerningGroup = A;
rightKerningGroup = A;
unicode = 0104;
},
{
color = 10;
glyphname = Aring;
lastChange = "2015-02-16 21:42:50 +0000";
layers = (
{
background = {
paths = (
{
closed = 1;
nodes = (
"513 0 LINE",
"613 0 LINE",
"468 686 LINE",
"345 686 LINE",
"-41 0 LINE",
"59 0 LINE",
"159 183 LINE",
"477 183 LINE"
);
},
{
closed = 1;
nodes = (
"389 604 LINE",
"394 604 LINE",
"460 266 LINE",
"204 266 LINE"
);
},
{
closed = 1;
nodes = (
"515 860 OFFCURVE",
"480 895 OFFCURVE",
"431 895 CURVE SMOOTH",
"360 895 OFFCURVE",
"320 847 OFFCURVE",
"320 782 CURVE SMOOTH",
"320 737 OFFCURVE",
"355 703 OFFCURVE",
"404 703 CURVE SMOOTH",
"475 703 OFFCURVE",
"515 750 OFFCURVE",
"515 815 CURVE SMOOTH"
);
},
{
closed = 1;
nodes = (
"469 776 OFFCURVE",
"448 748 OFFCURVE",
"410 748 CURVE SMOOTH",
"381 748 OFFCURVE",
"366 766 OFFCURVE",
"366 789 CURVE SMOOTH",
"366 821 OFFCURVE",
"387 850 OFFCURVE",
"425 850 CURVE SMOOTH",
"453 850 OFFCURVE",
"469 831 OFFCURVE",
"469 808 CURVE SMOOTH"
);
}
);
};
components = (
{
name = A;
},
{
name = ring;
transform = "{1, 0, 0, 1, 262, 145}";
}
);
layerId = UUID0;
width = 667;
},
{
background = {
paths = (
{
closed = 1;
nodes = (
"663 0 LINE",
"516 686 LINE",
"334 686 LINE",
"-54 0 LINE",
"101 0 LINE",
"173 131 LINE",
"488 131 LINE",
"515 0 LINE"
);
},
{
closed = 1;
nodes = (
"464 252 LINE",
"241 252 LINE",
"335 426 LINE",
"354 460 OFFCURVE",
"404 561 OFFCURVE",
"404 561 CURVE",
"409 561 LINE",
"409 561 OFFCURVE",
"423 460 OFFCURVE",
"430 426 CURVE SMOOTH"
);
},
{
closed = 1;
nodes = (
"495 700 OFFCURVE",
"544 753 OFFCURVE",
"544 816 CURVE SMOOTH",
"544 865 OFFCURVE",
"513 902 OFFCURVE",
"454 902 CURVE SMOOTH",
"386 902 OFFCURVE",
"339 847 OFFCURVE",
"339 784 CURVE SMOOTH",
"339 736 OFFCURVE",
"371 700 OFFCURVE",
"429 700 CURVE SMOOTH"
);
},
{
closed = 1;
nodes = (
"487 780 OFFCURVE",
"461 757 OFFCURVE",
"434 757 CURVE SMOOTH",
"411 757 OFFCURVE",
"397 771 OFFCURVE",
"397 791 CURVE SMOOTH",
"397 821 OFFCURVE",
"419 845 OFFCURVE",
"449 845 CURVE SMOOTH",
"472 845 OFFCURVE",
"487 830 OFFCURVE",
"487 809 CURVE SMOOTH"
);
}
);
};
components = (
{
name = A;
},
{
name = ring;
transform = "{1, 0, 0, 1, 279, 145}";
}
);
layerId = "515A5158-96A0-47B2-825D-DFEB99868FF8";
width = 722;
}
);
leftKerningGroup = A;
rightKerningGroup = A;
unicode = 00C5;
},
{
color = 10;
glyphname = Aringacute;
lastChange = "2016-07-10 04:41:58 +0000";
layers = (
{
background = {
paths = (
{
closed = 1;
nodes = (
"513 824 OFFCURVE",
"478 859 OFFCURVE",
"429 859 CURVE SMOOTH",
"358 859 OFFCURVE",
"318 811 OFFCURVE",
"318 746 CURVE SMOOTH",
"318 721 OFFCURVE",
"328 700 OFFCURVE",
"345 686 CURVE",
"-41 0 LINE",
"59 0 LINE",
"159 183 LINE",
"477 183 LINE",
"513 0 LINE",
"613 0 LINE",
"468 685 LINE",
"497 704 OFFCURVE",
"513 738 OFFCURVE",
"513 779 CURVE SMOOTH"
);
},
{
closed = 1;
nodes = (
"389 604 LINE",
"394 604 LINE",
"460 266 LINE",
"204 266 LINE"
);
},
{
closed = 1;
nodes = (
"467 740 OFFCURVE",
"446 712 OFFCURVE",
"408 712 CURVE SMOOTH",
"379 712 OFFCURVE",
"364 730 OFFCURVE",
"364 753 CURVE SMOOTH",
"364 785 OFFCURVE",
"385 814 OFFCURVE",
"423 814 CURVE SMOOTH",
"451 814 OFFCURVE",
"467 795 OFFCURVE",
"467 772 CURVE SMOOTH"
);
},
{
closed = 1;
nodes = (
"482 883 LINE",
"606 1012 LINE",
"605 1015 LINE",
"504 1015 LINE",
"396 883 LINE"
);
}
);
};
layerId = UUID0;
paths = (
{
closed = 1;
nodes = (
"59 0 LINE",
"159 183 LINE",
"477 183 LINE",
"513 0 LINE",
"613 0 LINE",
"472 668 LINE",
"499 687 OFFCURVE",
"513 720 OFFCURVE",
"513 759 CURVE SMOOTH",
"513 804 OFFCURVE",
"478 839 OFFCURVE",
"429 839 CURVE SMOOTH",
"358 839 OFFCURVE",
"318 791 OFFCURVE",
"318 726 CURVE SMOOTH",
"318 705 OFFCURVE",
"325 686 OFFCURVE",
"338 673 CURVE",
"-41 0 LINE"
);
},
{
closed = 1;
nodes = (
"389 604 LINE",
"394 604 LINE",
"460 266 LINE",
"204 266 LINE"
);
},
{
closed = 1;
nodes = (
"379 692 OFFCURVE",
"364 710 OFFCURVE",
"364 733 CURVE SMOOTH",
"364 765 OFFCURVE",
"385 794 OFFCURVE",
"423 794 CURVE SMOOTH",
"451 794 OFFCURVE",
"467 775 OFFCURVE",
"467 752 CURVE SMOOTH",
"467 720 OFFCURVE",
"446 692 OFFCURVE",
"408 692 CURVE SMOOTH"
);
},
{
closed = 1;
nodes = (
"482 861 LINE",
"606 990 LINE",
"605 993 LINE",
"504 993 LINE",
"396 861 LINE"
);
}
);
width = 667;
},
{
background = {
paths = (
{
closed = 1;
nodes = (
"663 0 LINE",
"516 686 LINE",
"527 704 OFFCURVE",
"534 726 OFFCURVE",
"534 749 CURVE SMOOTH",
"534 798 OFFCURVE",
"503 835 OFFCURVE",
"444 835 CURVE SMOOTH",
"376 835 OFFCURVE",
"329 780 OFFCURVE",
"329 717 CURVE SMOOTH",
"329 706 OFFCURVE",
"330 695 OFFCURVE",
"334 686 CURVE",
"-54 0 LINE",
"101 0 LINE",
"173 131 LINE",
"488 131 LINE",
"515 0 LINE"
);
},
{
closed = 1;
nodes = (
"464 252 LINE",
"241 252 LINE",
"335 426 LINE",
"354 460 OFFCURVE",
"404 561 OFFCURVE",
"404 561 CURVE",
"409 561 LINE",
"409 561 OFFCURVE",
"423 460 OFFCURVE",
"430 426 CURVE SMOOTH"
);
},
{
closed = 1;
nodes = (
"477 713 OFFCURVE",
"451 690 OFFCURVE",
"424 690 CURVE SMOOTH",
"401 690 OFFCURVE",
"387 704 OFFCURVE",
"387 724 CURVE SMOOTH",
"387 754 OFFCURVE",
"409 778 OFFCURVE",
"439 778 CURVE SMOOTH",
"462 778 OFFCURVE",
"477 763 OFFCURVE",
"477 742 CURVE SMOOTH"
);
},
{
closed = 1;
nodes = (
"636 990 LINE",
"635 993 LINE",
"497 993 LINE",
"395 861 LINE",
"505 861 LINE"
);
}
);
};
layerId = "515A5158-96A0-47B2-825D-DFEB99868FF8";
paths = (
{
closed = 1;
nodes = (
"101 0 LINE",
"173 131 LINE",
"488 131 LINE",
"515 0 LINE",
"663 0 LINE",
"516 686 LINE",
"527 704 OFFCURVE",
"534 726 OFFCURVE",
"534 749 CURVE SMOOTH",
"534 798 OFFCURVE",
"503 835 OFFCURVE",
"444 835 CURVE SMOOTH",
"376 835 OFFCURVE",
"329 780 OFFCURVE",
"329 717 CURVE SMOOTH",
"329 706 OFFCURVE",
"330 695 OFFCURVE",
"334 686 CURVE",
"-54 0 LINE"
);
},
{
closed = 1;
nodes = (
"335 426 LINE",
"354 460 OFFCURVE",
"404 561 OFFCURVE",
"404 561 CURVE",
"409 561 LINE",
"409 561 OFFCURVE",
"423 460 OFFCURVE",
"430 426 CURVE SMOOTH",
"464 252 LINE",
"241 252 LINE"
);
},
{
closed = 1;
nodes = (
"401 690 OFFCURVE",
"387 704 OFFCURVE",
"387 724 CURVE SMOOTH",
"387 754 OFFCURVE",
"409 778 OFFCURVE",
"439 778 CURVE SMOOTH",
"462 778 OFFCURVE",
"477 763 OFFCURVE",
"477 742 CURVE SMOOTH",
"477 713 OFFCURVE",
"451 690 OFFCURVE",
"424 690 CURVE SMOOTH"
);
},
{
closed = 1;
nodes = (
"505 861 LINE",
"636 990 LINE",
"635 993 LINE",
"497 993 LINE",
"395 861 LINE"
);
}
);
width = 722;
}
);
leftKerningGroup = A;
rightKerningGroup = A;
unicode = 01FA;
},
{
color = 10;
glyphname = Atilde;
lastChange = "2015-02-16 21:42:50 +0000";
layers = (
{
background = {
paths = (
{
closed = 1;
nodes = (
"513 0 LINE",
"613 0 LINE",
"468 686 LINE",
"345 686 LINE",
"-41 0 LINE",
"59 0 LINE",
"159 183 LINE",
"477 183 LINE"
);
},
{
closed = 1;
nodes = (
"389 604 LINE",
"394 604 LINE",
"460 266 LINE",
"204 266 LINE"
);
},
{
closed = 1;
nodes = (
"512 852 LINE",
"506 829 OFFCURVE",
"493 821 OFFCURVE",
"478 821 CURVE SMOOTH",
"428 821 OFFCURVE",
"391 852 OFFCURVE",
"335 852 CURVE SMOOTH",
"275 852 OFFCURVE",
"241 804 OFFCURVE",
"232 748 CURVE",
"296 748 LINE",
"302 771 OFFCURVE",
"315 779 OFFCURVE",
"330 779 CURVE SMOOTH",
"380 779 OFFCURVE",
"417 748 OFFCURVE",
"473 748 CURVE SMOOTH",
"533 748 OFFCURVE",
"567 796 OFFCURVE",
"577 852 CURVE"
);
}
);
};
components = (
{
name = A;
},
{
name = tilde;
transform = "{1, 0, 0, 1, 268, 145}";
}
);
layerId = UUID0;
width = 667;
},
{
background = {
paths = (
{
closed = 1;
nodes = (
"663 0 LINE",
"516 686 LINE",
"334 686 LINE",
"-54 0 LINE",
"101 0 LINE",
"173 131 LINE",
"488 131 LINE",
"515 0 LINE"
);
},
{
closed = 1;
nodes = (
"464 252 LINE",
"241 252 LINE",
"335 426 LINE",
"354 460 OFFCURVE",
"404 561 OFFCURVE",
"404 561 CURVE",
"409 561 LINE",
"409 561 OFFCURVE",
"423 460 OFFCURVE",
"430 426 CURVE SMOOTH"
);
},
{
closed = 1;
nodes = (
"535 860 LINE",
"526 832 OFFCURVE",
"513 823 OFFCURVE",
"494 823 CURVE SMOOTH",
"447 823 OFFCURVE",
"413 860 OFFCURVE",
"362 860 CURVE SMOOTH",
"295 860 OFFCURVE",
"260 803 OFFCURVE",
"249 738 CURVE",
"318 738 LINE",
"327 765 OFFCURVE",
"340 775 OFFCURVE",
"359 775 CURVE SMOOTH",
"406 775 OFFCURVE",
"440 738 OFFCURVE",
"490 738 CURVE SMOOTH",
"558 738 OFFCURVE",
"594 795 OFFCURVE",
"605 860 CURVE"
);
}
);
};
components = (
{
name = A;
},
{
name = tilde;
transform = "{1, 0, 0, 1, 283, 145}";
}
);
layerId = "515A5158-96A0-47B2-825D-DFEB99868FF8";
width = 722;
}
);
leftKerningGroup = A;
rightKerningGroup = A;
unicode = 00C3;
},
{
color = 10;
glyphname = AE;
lastChange = "2016-07-10 04:41:58 +0000";
layers = (
{
anchors = (
{
name = top;
position = "{575, 671}";
}
);
background = {
paths = (
{
closed = 1;
nodes = (
"885 0 LINE",
"900 83 LINE",
"595 83 LINE",
"572 309 LINE",
"890 309 LINE",
"904 392 LINE",
"562 392 LINE",
"540 603 LINE",
"985 603 LINE",
"1000 686 LINE",
"405 686 LINE",
"-61 0 LINE",
"41 0 LINE",
"163 183 LINE",
"494 183 LINE",
"513 0 LINE"
);
},
{
closed = 1;
nodes = (
"486 266 LINE",
"219 266 LINE",
"446 603 LINE",
"451 603 LINE"
);
}
);
};
layerId = UUID0;
paths = (
{
closed = 1;
nodes = (
"41 0 LINE",
"163 183 LINE",
"494 183 LINE",
"513 0 LINE",
"885 0 LINE",
"900 83 LINE",
"595 83 LINE",
"572 309 LINE",
"890 309 LINE",
"904 392 LINE",
"562 392 LINE",
"540 603 LINE",
"985 603 LINE",
"1000 686 LINE",
"405 686 LINE",
"-61 0 LINE"
);
},
{
closed = 1;
nodes = (
"446 603 LINE",
"451 603 LINE",
"486 266 LINE",
"219 266 LINE"
);
}
);
width = 1000;
},
{
anchors = (
{
name = top;
position = "{575, 671}";
}
);
background = {
paths = (
{
closed = 1;
nodes = (
"887 0 LINE",
"909 123 LINE",
"633 123 LINE",
"618 289 LINE",
"888 289 LINE",
"910 412 LINE",
"607 412 LINE",
"593 563 LINE",
"980 563 LINE",
"1002 686 LINE",
"390 686 LINE",
"-62 0 LINE",
"95 0 LINE",
"178 131 LINE",
"494 131 LINE",
"505 0 LINE"
);
},
{
closed = 1;
nodes = (
"484 252 LINE",
"255 252 LINE",
"454 563 LINE",
"459 563 LINE"
);
}
);
};
layerId = "515A5158-96A0-47B2-825D-DFEB99868FF8";
paths = (
{
closed = 1;
nodes = (
"95 0 LINE",
"178 131 LINE",
"494 131 LINE",
"505 0 LINE",
"887 0 LINE",
"909 123 LINE",
"633 123 LINE",
"618 289 LINE",
"888 289 LINE",
"910 412 LINE",
"607 412 LINE",
"593 563 LINE",
"980 563 LINE",
"1002 686 LINE",
"390 686 LINE",
"-62 0 LINE"
);
},
{
closed = 1;
nodes = (
"454 563 LINE",
"459 563 LINE",
"484 252 LINE",
"255 252 LINE"
);
}
);
width = 1000;
}
);
unicode = 00C6;
},
{
color = 10;
glyphname = AEacute;
lastChange = "2015-02-12 03:01:33 +0000";
layers = (
{
background = {
paths = (
{
closed = 1;
nodes = (
"885 0 LINE",
"900 83 LINE",
"595 83 LINE",
"572 309 LINE",
"890 309 LINE",
"904 392 LINE",
"562 392 LINE",
"540 603 LINE",
"985 603 LINE",
"1000 686 LINE",
"405 686 LINE",
"-61 0 LINE",
"41 0 LINE",
"163 183 LINE",
"494 183 LINE",
"513 0 LINE"
);
},
{
closed = 1;
nodes = (
"486 266 LINE",
"219 266 LINE",
"446 603 LINE",
"451 603 LINE"
);
},
{
closed = 1;
nodes = (
"712 737 LINE",
"836 866 LINE",
"835 869 LINE",
"734 869 LINE",
"626 737 LINE"
);
}
);
};
components = (
{
name = AE;
},
{
name = acute;
transform = "{1, 0, 0, 1, 480, 145}";
}
);
layerId = UUID0;
width = 1000;
},
{
background = {
paths = (
{
closed = 1;
nodes = (
"887 0 LINE",
"909 123 LINE",
"633 123 LINE",
"618 289 LINE",
"888 289 LINE",
"910 412 LINE",
"607 412 LINE",
"593 563 LINE",
"980 563 LINE",
"1002 686 LINE",
"390 686 LINE",
"-62 0 LINE",
"95 0 LINE",
"178 131 LINE",
"494 131 LINE",
"505 0 LINE"
);
},
{
closed = 1;
nodes = (
"484 252 LINE",
"255 252 LINE",
"454 563 LINE",
"459 563 LINE"
);
},
{
closed = 1;
nodes = (
"830 866 LINE",
"829 869 LINE",
"691 869 LINE",
"589 737 LINE",
"699 737 LINE"
);
}
);
};
components = (
{
name = AE;
},
{
name = acute;
transform = "{1, 0, 0, 1, 473, 145}";
}
);
layerId = "515A5158-96A0-47B2-825D-DFEB99868FF8";
width = 1000;
}
);
unicode = 01FC;
},
{
color = 10;
glyphname = B;
lastChange = "2016-07-10 04:41:58 +0000";
layers = (
{
anchors = (
{
name = bottom;
position = "{288, 0}";
},
{
name = top;
position = "{409, 671}";
}
);
background = {
paths = (
{
closed = 1;
nodes = (
"369 0 LINE",
"487 0 OFFCURVE",
"595 60 OFFCURVE",
"595 213 CURVE SMOOTH",
"595 294 OFFCURVE",
"551 339 OFFCURVE",
"489 356 CURVE",
"489 360 LINE",
"566 382 OFFCURVE",
"632 450 OFFCURVE",
"632 540 CURVE SMOOTH",
"632 637 OFFCURVE",
"557 686 OFFCURVE",
"438 686 CURVE SMOOTH",
"139 686 LINE",
"18 0 LINE"
);
},
{
closed = 1;
nodes = (
"395 310 LINE",
"463 310 OFFCURVE",
"499 279 OFFCURVE",
"499 215 CURVE SMOOTH",
"499 113 OFFCURVE",
"436 83 OFFCURVE",
"362 83 CURVE SMOOTH",
"128 83 LINE",
"168 310 LINE"
);
},
{
closed = 1;
nodes = (
"439 603 LINE",
"500 603 OFFCURVE",
"538 580 OFFCURVE",
"538 516 CURVE SMOOTH",
"538 445 OFFCURVE",
"480 393 OFFCURVE",
"396 393 CURVE SMOOTH",
"182 393 LINE",
"219 603 LINE"
);
}
);
};
layerId = UUID0;
paths = (
{
closed = 1;
nodes = (
"369 0 LINE",
"487 0 OFFCURVE",
"595 60 OFFCURVE",
"595 213 CURVE SMOOTH",
"595 294 OFFCURVE",
"551 339 OFFCURVE",
"489 356 CURVE",
"489 360 LINE",
"566 382 OFFCURVE",
"632 450 OFFCURVE",
"632 540 CURVE SMOOTH",
"632 637 OFFCURVE",
"557 686 OFFCURVE",
"438 686 CURVE SMOOTH",
"139 686 LINE",
"18 0 LINE"
);
},
{
closed = 1;
nodes = (
"168 310 LINE",
"395 310 LINE",
"463 310 OFFCURVE",
"499 279 OFFCURVE",
"499 215 CURVE SMOOTH",
"499 113 OFFCURVE",
"436 83 OFFCURVE",
"362 83 CURVE SMOOTH",
"128 83 LINE"
);
},
{
closed = 1;
nodes = (
"219 603 LINE",
"439 603 LINE",
"500 603 OFFCURVE",
"538 580 OFFCURVE",
"538 516 CURVE SMOOTH",
"538 445 OFFCURVE",
"480 393 OFFCURVE",
"396 393 CURVE SMOOTH",
"182 393 LINE"
);
}
);
width = 667;
},
{
anchors = (
{
name = bottom;
position = "{315, 0}";
},
{
name = top;
position = "{436, 671}";
}
);
background = {
paths = (
{
closed = 1;
nodes = (
"392 0 LINE",
"527 0 OFFCURVE",
"650 65 OFFCURVE",
"650 206 CURVE SMOOTH",
"650 282 OFFCURVE",
"605 336 OFFCURVE",
"545 356 CURVE",
"545 360 LINE",
"625 375 OFFCURVE",
"688 442 OFFCURVE",
"688 525 CURVE SMOOTH",
"688 633 OFFCURVE",
"601 686 OFFCURVE",
"463 686 CURVE SMOOTH",
"130 686 LINE",
"9 0 LINE"
);
},
{
closed = 1;
nodes = (
"411 291 LINE",
"474 291 OFFCURVE",
"502 260 OFFCURVE",
"502 215 CURVE SMOOTH",
"502 154 OFFCURVE",
"451 123 OFFCURVE",
"390 123 CURVE SMOOTH",
"177 123 LINE",
"206 291 LINE"
);
},
{
closed = 1;
nodes = (
"461 563 LINE",
"500 563 OFFCURVE",
"533 541 OFFCURVE",
"533 497 CURVE SMOOTH",
"533 455 OFFCURVE",
"506 412 OFFCURVE",
"434 412 CURVE SMOOTH",
"228 412 LINE",
"254 563 LINE"
);
}
);
};
layerId = "515A5158-96A0-47B2-825D-DFEB99868FF8";
paths = (
{
closed = 1;
nodes = (
"392 0 LINE",
"527 0 OFFCURVE",
"650 65 OFFCURVE",
"650 206 CURVE SMOOTH",
"650 282 OFFCURVE",
"605 336 OFFCURVE",
"545 356 CURVE",
"545 360 LINE",
"625 375 OFFCURVE",
"688 442 OFFCURVE",
"688 525 CURVE SMOOTH",
"688 633 OFFCURVE",
"601 686 OFFCURVE",
"463 686 CURVE SMOOTH",
"130 686 LINE",
"9 0 LINE"
);
},
{
closed = 1;
nodes = (
"206 291 LINE",
"411 291 LINE",
"474 291 OFFCURVE",
"502 260 OFFCURVE",
"502 215 CURVE SMOOTH",
"502 154 OFFCURVE",
"451 123 OFFCURVE",
"390 123 CURVE SMOOTH",
"177 123 LINE"
);
},
{
closed = 1;
nodes = (
"254 563 LINE",
"461 563 LINE",
"500 563 OFFCURVE",
"533 541 OFFCURVE",
"533 497 CURVE SMOOTH",
"533 455 OFFCURVE",
"506 412 OFFCURVE",
"434 412 CURVE SMOOTH",
"228 412 LINE"
);
}
);
width = 722;
}
);
unicode = 0042;
},
{
color = 10;
glyphname = C;
lastChange = "2016-07-10 04:44:37 +0000";
layers = (
{
anchors = (
{
name = bottom;
position = "{315, 0}";
},
{
name = top;
position = "{436, 671}";
}
);
background = {
paths = (
{
closed = 1;
nodes = (
"565 246 LINE",
"543 127 OFFCURVE",
"450 69 OFFCURVE",
"322 69 CURVE SMOOTH",
"198 69 OFFCURVE",
"135 124 OFFCURVE",
"135 258 CURVE SMOOTH",
"135 474 OFFCURVE",
"243 617 OFFCURVE",
"439 617 CURVE SMOOTH",
"539 617 OFFCURVE",
"599 572 OFFCURVE",
"599 480 CURVE SMOOTH",
"599 468 OFFCURVE",
"597 453 OFFCURVE",
"595 438 CURVE",
"692 438 LINE",
"695 458 OFFCURVE",
"697 477 OFFCURVE",
"697 495 CURVE SMOOTH",
"697 631 OFFCURVE",
"591 698 OFFCURVE",
"433 698 CURVE SMOOTH",
"184 698 OFFCURVE",
"37 518 OFFCURVE",
"37 250 CURVE SMOOTH",
"37 74 OFFCURVE",
"135 -12 OFFCURVE",
"328 -12 CURVE SMOOTH",
"495 -12 OFFCURVE",
"628 69 OFFCURVE",
"658 246 CURVE"
);
}
);
};
layerId = UUID0;
paths = (
{
closed = 1;
nodes = (
"495 -12 OFFCURVE",
"628 69 OFFCURVE",
"658 246 CURVE",
"565 246 LINE",
"543 127 OFFCURVE",
"450 69 OFFCURVE",
"322 69 CURVE SMOOTH",
"198 69 OFFCURVE",
"135 124 OFFCURVE",
"135 258 CURVE SMOOTH",
"135 302 OFFCURVE",
"140 344 OFFCURVE",
"149 381 CURVE SMOOTH",
"183 527 OFFCURVE",
"283 617 OFFCURVE",
"439 617 CURVE SMOOTH",
"539 617 OFFCURVE",
"599 572 OFFCURVE",
"599 480 CURVE SMOOTH",
"599 468 OFFCURVE",
"597 453 OFFCURVE",
"595 438 CURVE",
"692 438 LINE",
"695 458 OFFCURVE",
"697 477 OFFCURVE",
"697 495 CURVE SMOOTH",
"697 631 OFFCURVE",
"591 698 OFFCURVE",
"433 698 CURVE SMOOTH",
"336 698 OFFCURVE",
"254 670 OFFCURVE",
"190 621 CURVE SMOOTH",
"91 544 OFFCURVE",
"37 413 OFFCURVE",
"37 250 CURVE SMOOTH",
"37 74 OFFCURVE",
"135 -12 OFFCURVE",
"328 -12 CURVE SMOOTH"
);
}
);
width = 722;
},
{
anchors = (
{
name = bottom;
position = "{315, 0}";
},
{
name = top;
position = "{436, 671}";
}
);
background = {
paths = (
{
closed = 1;
nodes = (
"523 254 LINE",
"506 163 OFFCURVE",
"429 111 OFFCURVE",
"328 111 CURVE SMOOTH",
"229 111 OFFCURVE",
"183 163 OFFCURVE",
"183 260 CURVE SMOOTH",
"183 280 OFFCURVE",
"185 303 OFFCURVE",
"195 358 CURVE SMOOTH",
"218 490 OFFCURVE",
"292 575 OFFCURVE",
"418 575 CURVE SMOOTH",
"497 575 OFFCURVE",
"552 538 OFFCURVE",
"552 461 CURVE SMOOTH",
"552 451 OFFCURVE",
"551 441 OFFCURVE",
"549 431 CURVE",
"698 431 LINE",
"701 450 OFFCURVE",
"703 469 OFFCURVE",
"703 486 CURVE SMOOTH",
"703 629 OFFCURVE",
"584 698 OFFCURVE",
"423 698 CURVE SMOOTH",
"323 698 OFFCURVE",
"240 669 OFFCURVE",
"180 619 CURVE SMOOTH",
"79 535 OFFCURVE",
"34 395 OFFCURVE",
"34 256 CURVE SMOOTH",
"34 66 OFFCURVE",
"142 -12 OFFCURVE",
"323 -12 CURVE SMOOTH",
"491 -12 OFFCURVE",
"636 73 OFFCURVE",
"667 254 CURVE"
);
}
);
};
layerId = "515A5158-96A0-47B2-825D-DFEB99868FF8";
paths = (
{
closed = 1;
nodes = (
"491 -12 OFFCURVE",
"636 73 OFFCURVE",
"667 254 CURVE",
"523 254 LINE",
"506 163 OFFCURVE",
"429 111 OFFCURVE",
"328 111 CURVE SMOOTH",
"229 111 OFFCURVE",
"183 163 OFFCURVE",
"183 260 CURVE SMOOTH",
"183 280 OFFCURVE",
"185 303 OFFCURVE",
"195 358 CURVE SMOOTH",
"218 490 OFFCURVE",
"292 575 OFFCURVE",
"418 575 CURVE SMOOTH",
"497 575 OFFCURVE",
"552 538 OFFCURVE",
"552 461 CURVE SMOOTH",
"552 451 OFFCURVE",
"551 441 OFFCURVE",
"549 431 CURVE",
"698 431 LINE",
"701 450 OFFCURVE",
"703 469 OFFCURVE",
"703 486 CURVE SMOOTH",
"703 629 OFFCURVE",
"584 698 OFFCURVE",
"423 698 CURVE SMOOTH",
"323 698 OFFCURVE",
"240 669 OFFCURVE",
"180 619 CURVE SMOOTH",
"79 535 OFFCURVE",
"34 395 OFFCURVE",
"34 256 CURVE SMOOTH",
"34 66 OFFCURVE",
"142 -12 OFFCURVE",
"323 -12 CURVE SMOOTH"
);
}
);
width = 722;
}
);
leftKerningGroup = O;
unicode = 0043;
},
{
color = 10;
glyphname = Cacute;
lastChange = "2015-02-16 21:46:29 +0000";
layers = (
{
background = {
paths = (
{
closed = 1;
nodes = (
"565 246 LINE",
"543 127 OFFCURVE",
"450 69 OFFCURVE",
"322 69 CURVE SMOOTH",
"198 69 OFFCURVE",
"135 124 OFFCURVE",
"135 258 CURVE SMOOTH",
"135 474 OFFCURVE",
"243 617 OFFCURVE",
"439 617 CURVE SMOOTH",
"539 617 OFFCURVE",
"599 572 OFFCURVE",
"599 480 CURVE SMOOTH",
"599 468 OFFCURVE",
"597 453 OFFCURVE",
"595 438 CURVE",
"692 438 LINE",
"695 458 OFFCURVE",
"697 477 OFFCURVE",
"697 495 CURVE SMOOTH",
"697 631 OFFCURVE",
"591 698 OFFCURVE",
"433 698 CURVE SMOOTH",
"184 698 OFFCURVE",
"37 518 OFFCURVE",
"37 250 CURVE SMOOTH",
"37 74 OFFCURVE",
"135 -12 OFFCURVE",
"328 -12 CURVE SMOOTH",
"495 -12 OFFCURVE",
"628 69 OFFCURVE",
"658 246 CURVE"
);
},
{
closed = 1;
nodes = (
"468 737 LINE",
"592 866 LINE",
"591 869 LINE",
"490 869 LINE",
"382 737 LINE"
);
}
);
};
components = (
{
name = C;
},
{
name = acute;
transform = "{1, 0, 0, 1, 341, 145}";
}
);
layerId = UUID0;
width = 722;
},
{
background = {
paths = (
{
closed = 1;
nodes = (
"523 254 LINE",
"506 163 OFFCURVE",
"429 111 OFFCURVE",
"328 111 CURVE SMOOTH",
"229 111 OFFCURVE",
"183 163 OFFCURVE",
"183 260 CURVE SMOOTH",
"183 280 OFFCURVE",
"185 303 OFFCURVE",
"195 358 CURVE SMOOTH",
"218 490 OFFCURVE",
"292 575 OFFCURVE",
"418 575 CURVE SMOOTH",
"497 575 OFFCURVE",
"552 538 OFFCURVE",
"552 461 CURVE SMOOTH",
"552 451 OFFCURVE",
"551 441 OFFCURVE",
"549 431 CURVE",
"698 431 LINE",
"701 450 OFFCURVE",
"703 469 OFFCURVE",
"703 486 CURVE SMOOTH",
"703 629 OFFCURVE",
"584 698 OFFCURVE",
"423 698 CURVE SMOOTH",
"323 698 OFFCURVE",
"240 669 OFFCURVE",
"180 619 CURVE SMOOTH",
"79 535 OFFCURVE",
"34 395 OFFCURVE",
"34 256 CURVE SMOOTH",
"34 66 OFFCURVE",
"142 -12 OFFCURVE",
"323 -12 CURVE SMOOTH",
"491 -12 OFFCURVE",
"636 73 OFFCURVE",
"667 254 CURVE"
);
},
{
closed = 1;
nodes = (
"613 866 LINE",
"612 869 LINE",
"474 869 LINE",
"372 737 LINE",
"482 737 LINE"
);
}
);
};
components = (
{
name = C;
},
{
name = acute;
transform = "{1, 0, 0, 1, 334, 145}";
}
);
layerId = "515A5158-96A0-47B2-825D-DFEB99868FF8";
width = 722;
}
);
leftKerningGroup = O;
unicode = 0106;
},
{
color = 10;
glyphname = Ccaron;
lastChange = "2015-02-16 21:46:29 +0000";
layers = (
{
background = {
paths = (
{
closed = 1;
nodes = (
"565 246 LINE",
"543 127 OFFCURVE",
"450 69 OFFCURVE",
"322 69 CURVE SMOOTH",
"198 69 OFFCURVE",
"135 124 OFFCURVE",
"135 258 CURVE SMOOTH",
"135 474 OFFCURVE",
"243 617 OFFCURVE",
"439 617 CURVE SMOOTH",
"539 617 OFFCURVE",
"599 572 OFFCURVE",
"599 480 CURVE SMOOTH",
"599 468 OFFCURVE",
"597 453 OFFCURVE",
"595 438 CURVE",
"692 438 LINE",
"695 458 OFFCURVE",
"697 477 OFFCURVE",
"697 495 CURVE SMOOTH",
"697 631 OFFCURVE",
"591 698 OFFCURVE",
"433 698 CURVE SMOOTH",
"184 698 OFFCURVE",
"37 518 OFFCURVE",
"37 250 CURVE SMOOTH",
"37 74 OFFCURVE",
"135 -12 OFFCURVE",
"328 -12 CURVE SMOOTH",
"495 -12 OFFCURVE",
"628 69 OFFCURVE",
"658 246 CURVE"
);
},
{
closed = 1;
nodes = (
"306 872 LINE",
"388 737 LINE",
"472 737 LINE",
"601 872 LINE",
"507 872 LINE",
"437 793 LINE",
"392 872 LINE"
);
}
);
};
components = (
{
name = C;
},
{
name = caron;
transform = "{1, 0, 0, 1, 293, 145}";
}
);
layerId = UUID0;
width = 722;
},
{
background = {
paths = (
{
closed = 1;
nodes = (
"523 254 LINE",
"506 163 OFFCURVE",
"429 111 OFFCURVE",
"328 111 CURVE SMOOTH",
"229 111 OFFCURVE",
"183 163 OFFCURVE",
"183 260 CURVE SMOOTH",
"183 280 OFFCURVE",
"185 303 OFFCURVE",
"195 358 CURVE SMOOTH",
"218 490 OFFCURVE",
"292 575 OFFCURVE",
"418 575 CURVE SMOOTH",
"497 575 OFFCURVE",
"552 538 OFFCURVE",
"552 461 CURVE SMOOTH",
"552 451 OFFCURVE",
"551 441 OFFCURVE",
"549 431 CURVE",
"698 431 LINE",
"701 450 OFFCURVE",
"703 469 OFFCURVE",
"703 486 CURVE SMOOTH",
"703 629 OFFCURVE",
"584 698 OFFCURVE",
"423 698 CURVE SMOOTH",
"323 698 OFFCURVE",
"240 669 OFFCURVE",
"180 619 CURVE SMOOTH",
"79 535 OFFCURVE",
"34 395 OFFCURVE",
"34 256 CURVE SMOOTH",
"34 66 OFFCURVE",
"142 -12 OFFCURVE",
"323 -12 CURVE SMOOTH",
"491 -12 OFFCURVE",
"636 73 OFFCURVE",
"667 254 CURVE"
);
},
{
closed = 1;
nodes = (
"498 737 LINE",
"626 872 LINE",
"508 872 LINE",
"446 803 LINE",
"401 872 LINE",
"294 872 LINE",
"376 737 LINE"
);
}
);
};
components = (
{
name = C;
},
{
name = caron;
transform = "{1, 0, 0, 1, 293, 145}";
}
);
layerId = "515A5158-96A0-47B2-825D-DFEB99868FF8";
width = 722;
}
);
leftKerningGroup = O;
unicode = 010C;
},
{
color = 10;
glyphname = Ccedilla;
lastChange = "2016-07-10 04:41:58 +0000";
layers = (
{
background = {
paths = (
{
closed = 1;
nodes = (
"310 -77 LINE",
"336 -77 OFFCURVE",
"345 -83 OFFCURVE",
"345 -95 CURVE SMOOTH",
"345 -119 OFFCURVE",
"326 -125 OFFCURVE",
"300 -125 CURVE SMOOTH",
"200 -125 LINE",
"191 -174 LINE",
"219 -179 OFFCURVE",
"258 -182 OFFCURVE",
"294 -182 CURVE SMOOTH",
"352 -182 OFFCURVE",
"418 -168 OFFCURVE",
"418 -94 CURVE SMOOTH",
"418 -53 OFFCURVE",
"381 -36 OFFCURVE",
"336 -36 CURVE",
"344 -12 LINE",
"503 -7 OFFCURVE",
"629 75 OFFCURVE",
"658 246 CURVE",
"565 246 LINE",
"543 127 OFFCURVE",
"450 69 OFFCURVE",
"322 69 CURVE SMOOTH",
"198 69 OFFCURVE",
"135 124 OFFCURVE",
"135 258 CURVE SMOOTH",
"135 474 OFFCURVE",
"243 617 OFFCURVE",
"439 617 CURVE SMOOTH",
"539 617 OFFCURVE",
"599 572 OFFCURVE",
"599 480 CURVE SMOOTH",
"599 468 OFFCURVE",
"597 453 OFFCURVE",
"595 438 CURVE",
"692 438 LINE",
"695 458 OFFCURVE",
"697 477 OFFCURVE",
"697 495 CURVE SMOOTH",
"697 631 OFFCURVE",
"591 698 OFFCURVE",
"433 698 CURVE SMOOTH",
"184 698 OFFCURVE",
"37 518 OFFCURVE",
"37 250 CURVE SMOOTH",
"37 88 OFFCURVE",
"120 2 OFFCURVE",
"283 -10 CURVE",
"259 -77 LINE"
);
}
);
};
layerId = UUID0;
paths = (
{
closed = 1;
nodes = (
"352 -182 OFFCURVE",
"418 -168 OFFCURVE",
"418 -94 CURVE SMOOTH",
"418 -53 OFFCURVE",
"381 -36 OFFCURVE",
"336 -36 CURVE",
"344 -12 LINE",
"503 -7 OFFCURVE",
"629 75 OFFCURVE",
"658 246 CURVE",
"565 246 LINE",
"543 127 OFFCURVE",
"450 69 OFFCURVE",
"322 69 CURVE SMOOTH",
"198 69 OFFCURVE",
"135 124 OFFCURVE",
"135 258 CURVE SMOOTH",
"135 474 OFFCURVE",
"243 617 OFFCURVE",
"439 617 CURVE SMOOTH",
"539 617 OFFCURVE",
"599 572 OFFCURVE",
"599 480 CURVE SMOOTH",
"599 468 OFFCURVE",
"597 453 OFFCURVE",
"595 438 CURVE",
"692 438 LINE",
"695 458 OFFCURVE",
"697 477 OFFCURVE",
"697 495 CURVE SMOOTH",
"697 631 OFFCURVE",
"591 698 OFFCURVE",
"433 698 CURVE SMOOTH",
"184 698 OFFCURVE",
"37 518 OFFCURVE",
"37 250 CURVE SMOOTH",
"37 88 OFFCURVE",
"120 2 OFFCURVE",
"283 -10 CURVE",
"259 -77 LINE",
"310 -77 LINE",
"336 -77 OFFCURVE",
"345 -83 OFFCURVE",
"345 -95 CURVE SMOOTH",
"345 -119 OFFCURVE",
"326 -125 OFFCURVE",
"300 -125 CURVE SMOOTH",
"200 -125 LINE",
"191 -174 LINE",
"219 -179 OFFCURVE",
"258 -182 OFFCURVE",
"294 -182 CURVE SMOOTH"
);
}
);
width = 722;
},
{
background = {
paths = (
{
closed = 1;
nodes = (
"351 -11 LINE",
"507 -2 OFFCURVE",
"637 83 OFFCURVE",
"667 254 CURVE",
"523 254 LINE",
"506 163 OFFCURVE",
"429 111 OFFCURVE",
"328 111 CURVE SMOOTH",
"229 111 OFFCURVE",
"183 163 OFFCURVE",
"183 260 CURVE SMOOTH",
"183 280 OFFCURVE",
"185 303 OFFCURVE",
"195 358 CURVE SMOOTH",
"218 490 OFFCURVE",
"292 575 OFFCURVE",
"418 575 CURVE SMOOTH",
"497 575 OFFCURVE",
"552 538 OFFCURVE",
"552 461 CURVE SMOOTH",
"552 451 OFFCURVE",
"551 441 OFFCURVE",
"549 431 CURVE",
"698 431 LINE",
"701 450 OFFCURVE",
"703 469 OFFCURVE",
"703 486 CURVE SMOOTH",
"703 629 OFFCURVE",
"584 698 OFFCURVE",
"423 698 CURVE SMOOTH",
"323 698 OFFCURVE",
"240 669 OFFCURVE",
"180 619 CURVE SMOOTH",
"79 535 OFFCURVE",
"34 395 OFFCURVE",
"34 256 CURVE SMOOTH",
"34 86 OFFCURVE",
"120 6 OFFCURVE",
"266 -9 CURVE",
"244 -77 LINE",
"285 -77 LINE SMOOTH",
"313 -77 OFFCURVE",
"323 -83 OFFCURVE",
"323 -96 CURVE SMOOTH",
"323 -119 OFFCURVE",
"303 -125 OFFCURVE",
"274 -125 CURVE SMOOTH",
"186 -125 LINE",
"177 -174 LINE",
"206 -179 OFFCURVE",
"245 -182 OFFCURVE",
"279 -182 CURVE SMOOTH",
"332 -182 OFFCURVE",
"431 -168 OFFCURVE",
"431 -98 CURVE SMOOTH",
"431 -55 OFFCURVE",
"392 -36 OFFCURVE",
"344 -33 CURVE"
);
}
);
};
layerId = "515A5158-96A0-47B2-825D-DFEB99868FF8";
paths = (
{
closed = 1;
nodes = (
"332 -182 OFFCURVE",
"431 -168 OFFCURVE",
"431 -98 CURVE SMOOTH",
"431 -55 OFFCURVE",
"392 -36 OFFCURVE",
"344 -33 CURVE",
"351 -11 LINE",
"507 -2 OFFCURVE",
"637 83 OFFCURVE",
"667 254 CURVE",
"523 254 LINE",
"506 163 OFFCURVE",
"429 111 OFFCURVE",
"328 111 CURVE SMOOTH",
"229 111 OFFCURVE",
"183 163 OFFCURVE",
"183 260 CURVE SMOOTH",
"183 280 OFFCURVE",
"185 303 OFFCURVE",
"195 358 CURVE SMOOTH",
"218 490 OFFCURVE",
"292 575 OFFCURVE",
"418 575 CURVE SMOOTH",
"497 575 OFFCURVE",
"552 538 OFFCURVE",
"552 461 CURVE SMOOTH",
"552 451 OFFCURVE",
"551 441 OFFCURVE",
"549 431 CURVE",
"698 431 LINE",
"701 450 OFFCURVE",
"703 469 OFFCURVE",
"703 486 CURVE SMOOTH",
"703 629 OFFCURVE",
"584 698 OFFCURVE",
"423 698 CURVE SMOOTH",
"323 698 OFFCURVE",
"240 669 OFFCURVE",
"180 619 CURVE SMOOTH",
"79 535 OFFCURVE",
"34 395 OFFCURVE",
"34 256 CURVE SMOOTH",
"34 86 OFFCURVE",
"120 6 OFFCURVE",
"266 -9 CURVE",
"244 -77 LINE",
"285 -77 LINE SMOOTH",
"313 -77 OFFCURVE",
"323 -83 OFFCURVE",
"323 -96 CURVE SMOOTH",
"323 -119 OFFCURVE",
"303 -125 OFFCURVE",
"274 -125 CURVE SMOOTH",
"186 -125 LINE",
"177 -174 LINE",
"206 -179 OFFCURVE",
"245 -182 OFFCURVE",
"279 -182 CURVE SMOOTH"
);
}
);
width = 722;
}
);
leftKerningGroup = O;
unicode = 00C7;
},
{
color = 10;
glyphname = Ccircumflex;
lastChange = "2015-02-16 21:46:29 +0000";
layers = (
{
background = {
paths = (
{
closed = 1;
nodes = (
"565 246 LINE",
"543 127 OFFCURVE",
"450 69 OFFCURVE",
"322 69 CURVE SMOOTH",
"198 69 OFFCURVE",
"135 124 OFFCURVE",
"135 258 CURVE SMOOTH",
"135 474 OFFCURVE",
"243 617 OFFCURVE",
"439 617 CURVE SMOOTH",
"539 617 OFFCURVE",
"599 572 OFFCURVE",
"599 480 CURVE SMOOTH",
"599 468 OFFCURVE",
"597 453 OFFCURVE",
"595 438 CURVE",
"692 438 LINE",
"695 458 OFFCURVE",
"697 477 OFFCURVE",
"697 495 CURVE SMOOTH",
"697 631 OFFCURVE",
"591 698 OFFCURVE",
"433 698 CURVE SMOOTH",
"184 698 OFFCURVE",
"37 518 OFFCURVE",
"37 250 CURVE SMOOTH",
"37 74 OFFCURVE",
"135 -12 OFFCURVE",
"328 -12 CURVE SMOOTH",
"495 -12 OFFCURVE",
"628 69 OFFCURVE",
"658 246 CURVE"
);
},
{
closed = 1;
nodes = (
"591 737 LINE",
"509 872 LINE",
"425 872 LINE",
"296 737 LINE",
"390 737 LINE",
"462 816 LINE",
"505 737 LINE"
);
}
);
};
components = (
{
name = C;
},
{
name = circumflex;
transform = "{1, 0, 0, 1, 288, 145}";
}
);
layerId = UUID0;
width = 722;
},
{
background = {
paths = (
{
closed = 1;
nodes = (
"523 254 LINE",
"506 163 OFFCURVE",
"429 111 OFFCURVE",
"328 111 CURVE SMOOTH",
"229 111 OFFCURVE",
"183 163 OFFCURVE",
"183 260 CURVE SMOOTH",
"183 280 OFFCURVE",
"185 303 OFFCURVE",
"195 358 CURVE SMOOTH",
"218 490 OFFCURVE",
"292 575 OFFCURVE",
"418 575 CURVE SMOOTH",
"497 575 OFFCURVE",
"552 538 OFFCURVE",
"552 461 CURVE SMOOTH",
"552 451 OFFCURVE",
"551 441 OFFCURVE",
"549 431 CURVE",
"698 431 LINE",
"701 450 OFFCURVE",
"703 469 OFFCURVE",
"703 486 CURVE SMOOTH",
"703 629 OFFCURVE",
"584 698 OFFCURVE",
"423 698 CURVE SMOOTH",
"323 698 OFFCURVE",
"240 669 OFFCURVE",
"180 619 CURVE SMOOTH",
"79 535 OFFCURVE",
"34 395 OFFCURVE",
"34 256 CURVE SMOOTH",
"34 66 OFFCURVE",
"142 -12 OFFCURVE",
"323 -12 CURVE SMOOTH",
"491 -12 OFFCURVE",
"636 73 OFFCURVE",
"667 254 CURVE"
);
},
{
closed = 1;
nodes = (
"612 737 LINE",
"530 872 LINE",
"408 872 LINE",
"280 737 LINE",
"399 737 LINE",
"461 806 LINE",
"506 737 LINE"
);
}
);
};
components = (
{
name = C;
},
{
name = circumflex;
transform = "{1, 0, 0, 1, 285, 145}";
}
);
layerId = "515A5158-96A0-47B2-825D-DFEB99868FF8";
width = 722;
}
);
leftKerningGroup = O;
unicode = 0108;
},
{
color = 10;
glyphname = Cdotaccent;
lastChange = "2015-02-16 21:46:29 +0000";
layers = (
{
background = {
paths = (
{
closed = 1;
nodes = (
"565 246 LINE",
"543 127 OFFCURVE",
"450 69 OFFCURVE",
"322 69 CURVE SMOOTH",
"198 69 OFFCURVE",
"135 124 OFFCURVE",
"135 258 CURVE SMOOTH",
"135 474 OFFCURVE",
"243 617 OFFCURVE",
"439 617 CURVE SMOOTH",
"539 617 OFFCURVE",
"599 572 OFFCURVE",
"599 480 CURVE SMOOTH",
"599 468 OFFCURVE",
"597 453 OFFCURVE",
"595 438 CURVE",
"692 438 LINE",
"695 458 OFFCURVE",
"697 477 OFFCURVE",
"697 495 CURVE SMOOTH",
"697 631 OFFCURVE",
"591 698 OFFCURVE",
"433 698 CURVE SMOOTH",
"184 698 OFFCURVE",
"37 518 OFFCURVE",
"37 250 CURVE SMOOTH",
"37 74 OFFCURVE",
"135 -12 OFFCURVE",
"328 -12 CURVE SMOOTH",
"495 -12 OFFCURVE",
"628 69 OFFCURVE",
"658 246 CURVE"
);
},
{
closed = 1;
nodes = (
"491 753 LINE",
"508 848 LINE",
"421 848 LINE",
"404 753 LINE"
);
}
);
};
components = (
{
name = C;
},
{
name = dotaccent;
transform = "{1, 0, 0, 1, 296, 145}";
}
);
layerId = UUID0;
width = 722;
},
{
background = {
paths = (
{
closed = 1;
nodes = (
"523 254 LINE",
"506 163 OFFCURVE",
"429 111 OFFCURVE",
"328 111 CURVE SMOOTH",
"229 111 OFFCURVE",
"183 163 OFFCURVE",
"183 260 CURVE SMOOTH",
"183 280 OFFCURVE",
"185 303 OFFCURVE",
"195 358 CURVE SMOOTH",
"218 490 OFFCURVE",
"292 575 OFFCURVE",
"418 575 CURVE SMOOTH",
"497 575 OFFCURVE",
"552 538 OFFCURVE",
"552 461 CURVE SMOOTH",
"552 451 OFFCURVE",
"551 441 OFFCURVE",
"549 431 CURVE",
"698 431 LINE",
"701 450 OFFCURVE",
"703 469 OFFCURVE",
"703 486 CURVE SMOOTH",
"703 629 OFFCURVE",
"584 698 OFFCURVE",
"423 698 CURVE SMOOTH",
"323 698 OFFCURVE",
"240 669 OFFCURVE",
"180 619 CURVE SMOOTH",
"79 535 OFFCURVE",
"34 395 OFFCURVE",
"34 256 CURVE SMOOTH",
"34 66 OFFCURVE",
"142 -12 OFFCURVE",
"323 -12 CURVE SMOOTH",
"491 -12 OFFCURVE",
"636 73 OFFCURVE",
"667 254 CURVE"
);
},
{
closed = 1;
nodes = (
"513 736 LINE",
"536 866 LINE",
"401 866 LINE",
"378 736 LINE"
);
}
);
};
components = (
{
name = C;
},
{
name = dotaccent;
transform = "{1, 0, 0, 1, 292, 145}";
}
);
layerId = "515A5158-96A0-47B2-825D-DFEB99868FF8";
width = 722;
}
);
leftKerningGroup = O;
unicode = 010A;
},
{
color = 10;
glyphname = D;
lastChange = "2016-07-10 04:45:32 +0000";
layers = (
{
anchors = (
{
name = bottom;
position = "{315, 0}";
},
{
name = center;
position = "{393, 343}";
},
{
name = top;
position = "{426, 671}";
}
);
background = {
paths = (
{
closed = 1;
nodes = (
"128 83 LINE",
"219 603 LINE",
"378 603 LINE SMOOTH",
"507 603 OFFCURVE",
"586 549 OFFCURVE",
"586 402 CURVE SMOOTH",
"586 195 OFFCURVE",
"463 83 OFFCURVE",
"287 83 CURVE SMOOTH"
);
},
{
closed = 1;
nodes = (
"292 0 LINE",
"524 0 OFFCURVE",
"684 152 OFFCURVE",
"684 414 CURVE SMOOTH",
"684 602 OFFCURVE",
"569 686 OFFCURVE",
"373 686 CURVE SMOOTH",
"139 686 LINE",
"18 0 LINE"
);
}
);
};
layerId = UUID0;
paths = (
{
closed = 1;
nodes = (
"292 0 LINE",
"409 0 OFFCURVE",
"508 39 OFFCURVE",
"578 111 CURVE SMOOTH",
"645 182 OFFCURVE",
"684 285 OFFCURVE",
"684 414 CURVE SMOOTH",
"684 602 OFFCURVE",
"569 686 OFFCURVE",
"373 686 CURVE SMOOTH",
"139 686 LINE",
"18 0 LINE"
);
},
{
closed = 1;
nodes = (
"219 603 LINE",
"378 603 LINE SMOOTH",
"507 603 OFFCURVE",
"586 549 OFFCURVE",
"586 402 CURVE SMOOTH",
"586 372 OFFCURVE",
"583 345 OFFCURVE",
"579 319 CURVE SMOOTH",
"550 165 OFFCURVE",
"438 83 OFFCURVE",
"287 83 CURVE SMOOTH",
"128 83 LINE"
);
}
);
width = 722;
},
{
anchors = (
{
name = bottom;
position = "{315, 0}";
},
{
name = center;
position = "{393, 343}";
},
{
name = top;
position = "{416, 671}";
}
);
background = {
paths = (
{
closed = 1;
nodes = (
"313 0 LINE",
"426 0 OFFCURVE",
"516 39 OFFCURVE",
"579 104 CURVE SMOOTH",
"654 182 OFFCURVE",
"691 296 OFFCURVE",
"691 416 CURVE SMOOTH",
"691 600 OFFCURVE",
"585 686 OFFCURVE",
"404 686 CURVE SMOOTH",
"130 686 LINE",
"9 0 LINE"
);
},
{
closed = 1;
nodes = (
"176 123 LINE",
"253 563 LINE",
"392 563 LINE SMOOTH",
"491 563 OFFCURVE",
"541 509 OFFCURVE",
"541 417 CURVE SMOOTH",
"541 396 OFFCURVE",
"538 374 OFFCURVE",
"530 328 CURVE SMOOTH",
"508 200 OFFCURVE",
"428 123 OFFCURVE",
"305 123 CURVE SMOOTH"
);
}
);
};
layerId = "515A5158-96A0-47B2-825D-DFEB99868FF8";
paths = (
{
closed = 1;
nodes = (
"313 0 LINE",
"426 0 OFFCURVE",
"516 39 OFFCURVE",
"579 104 CURVE SMOOTH",
"654 182 OFFCURVE",
"691 296 OFFCURVE",
"691 416 CURVE SMOOTH",
"691 600 OFFCURVE",
"585 686 OFFCURVE",
"404 686 CURVE SMOOTH",
"130 686 LINE",
"9 0 LINE"
);
},
{
closed = 1;
nodes = (
"253 563 LINE",
"392 563 LINE SMOOTH",
"491 563 OFFCURVE",
"541 509 OFFCURVE",
"541 417 CURVE SMOOTH",
"541 396 OFFCURVE",
"538 374 OFFCURVE",
"530 328 CURVE SMOOTH",
"508 200 OFFCURVE",
"428 123 OFFCURVE",
"305 123 CURVE SMOOTH",
"176 123 LINE"
);
}
);
width = 722;
}
);
rightKerningGroup = O;
unicode = 0044;
},
{
color = 10;
glyphname = Eth;
lastChange = "2016-07-10 04:41:58 +0000";
layers = (
{
background = {
paths = (
{
closed = 1;
nodes = (
"292 0 LINE",
"524 0 OFFCURVE",
"684 152 OFFCURVE",
"684 414 CURVE SMOOTH",
"684 602 OFFCURVE",
"569 686 OFFCURVE",
"373 686 CURVE SMOOTH",
"139 686 LINE",
"86 387 LINE",
"12 387 LINE",
"1 324 LINE",
"75 324 LINE",
"18 0 LINE"
);
},
{
closed = 1;
nodes = (
"128 83 LINE",
"170 324 LINE",
"343 324 LINE",
"354 387 LINE",
"181 387 LINE",
"219 603 LINE",
"378 603 LINE SMOOTH",
"507 603 OFFCURVE",
"586 549 OFFCURVE",
"586 402 CURVE SMOOTH",
"586 195 OFFCURVE",
"463 83 OFFCURVE",
"287 83 CURVE SMOOTH"
);
}
);
};
layerId = UUID0;
paths = (
{
closed = 1;
nodes = (
"292 0 LINE",
"524 0 OFFCURVE",
"684 152 OFFCURVE",
"684 414 CURVE SMOOTH",
"684 602 OFFCURVE",
"569 686 OFFCURVE",
"373 686 CURVE SMOOTH",
"139 686 LINE",
"86 387 LINE",
"12 387 LINE",
"1 324 LINE",
"75 324 LINE",
"18 0 LINE"
);
},
{
closed = 1;
nodes = (
"170 324 LINE",
"343 324 LINE",
"354 387 LINE",
"181 387 LINE",
"219 603 LINE",
"378 603 LINE SMOOTH",
"507 603 OFFCURVE",
"586 549 OFFCURVE",
"586 402 CURVE SMOOTH",
"586 195 OFFCURVE",
"463 83 OFFCURVE",
"287 83 CURVE SMOOTH",
"128 83 LINE"
);
}
);
width = 722;
},
{
background = {
paths = (
{
closed = 1;
nodes = (
"313 0 LINE",
"426 0 OFFCURVE",
"516 39 OFFCURVE",
"579 104 CURVE SMOOTH",
"654 182 OFFCURVE",
"691 296 OFFCURVE",
"691 416 CURVE SMOOTH",
"691 600 OFFCURVE",
"585 686 OFFCURVE",
"404 686 CURVE SMOOTH",
"130 686 LINE",
"79 397 LINE",
"16 397 LINE",
"2 312 LINE",
"64 312 LINE",
"9 0 LINE"
);
},
{
closed = 1;
nodes = (
"176 123 LINE",
"209 312 LINE",
"348 312 LINE",
"363 397 LINE",
"224 397 LINE",
"253 563 LINE",
"392 563 LINE SMOOTH",
"491 563 OFFCURVE",
"541 509 OFFCURVE",
"541 417 CURVE SMOOTH",
"541 396 OFFCURVE",
"538 374 OFFCURVE",
"530 328 CURVE SMOOTH",
"508 200 OFFCURVE",
"428 123 OFFCURVE",
"305 123 CURVE SMOOTH"
);
}
);
};
layerId = "515A5158-96A0-47B2-825D-DFEB99868FF8";
paths = (
{
closed = 1;
nodes = (
"313 0 LINE",
"426 0 OFFCURVE",
"516 39 OFFCURVE",
"579 104 CURVE SMOOTH",
"654 182 OFFCURVE",
"691 296 OFFCURVE",
"691 416 CURVE SMOOTH",
"691 600 OFFCURVE",
"585 686 OFFCURVE",
"404 686 CURVE SMOOTH",
"130 686 LINE",
"79 397 LINE",
"16 397 LINE",
"2 312 LINE",
"64 312 LINE",
"9 0 LINE"
);
},
{
closed = 1;
nodes = (
"209 312 LINE",
"348 312 LINE",
"363 397 LINE",
"224 397 LINE",
"253 563 LINE",
"392 563 LINE SMOOTH",
"491 563 OFFCURVE",
"541 509 OFFCURVE",
"541 417 CURVE SMOOTH",
"541 396 OFFCURVE",
"538 374 OFFCURVE",
"530 328 CURVE SMOOTH",
"508 200 OFFCURVE",
"428 123 OFFCURVE",
"305 123 CURVE SMOOTH",
"176 123 LINE"
);
}
);
width = 722;
}
);
rightKerningGroup = O;
unicode = 00D0;
},
{
color = 10;
glyphname = Dcaron;
lastChange = "2015-02-15 02:42:18 +0000";
layers = (
{
background = {
paths = (
{
closed = 1;
nodes = (
"128 83 LINE",
"219 603 LINE",
"378 603 LINE SMOOTH",
"507 603 OFFCURVE",
"586 549 OFFCURVE",
"586 402 CURVE SMOOTH",
"586 195 OFFCURVE",
"463 83 OFFCURVE",
"287 83 CURVE SMOOTH"
);
},
{
closed = 1;
nodes = (
"292 0 LINE",
"524 0 OFFCURVE",
"684 152 OFFCURVE",
"684 414 CURVE SMOOTH",
"684 602 OFFCURVE",
"569 686 OFFCURVE",
"373 686 CURVE SMOOTH",
"139 686 LINE",
"18 0 LINE"
);
},
{
closed = 1;
nodes = (
"276 871 LINE",
"358 736 LINE",
"442 736 LINE",
"571 871 LINE",
"477 871 LINE",
"407 792 LINE",
"362 871 LINE"
);
}
);
};
components = (
{
name = D;
},
{
name = caron;
transform = "{1, 0, 0, 1, 283, 145}";
}
);
layerId = UUID0;
width = 722;
},
{
background = {
paths = (
{
closed = 1;
nodes = (
"313 0 LINE",
"426 0 OFFCURVE",
"516 39 OFFCURVE",
"579 104 CURVE SMOOTH",
"654 182 OFFCURVE",
"691 296 OFFCURVE",
"691 416 CURVE SMOOTH",
"691 600 OFFCURVE",
"585 686 OFFCURVE",
"404 686 CURVE SMOOTH",
"130 686 LINE",
"9 0 LINE"
);
},
{
closed = 1;
nodes = (
"176 123 LINE",
"253 563 LINE",
"392 563 LINE SMOOTH",
"491 563 OFFCURVE",
"541 509 OFFCURVE",
"541 417 CURVE SMOOTH",
"541 396 OFFCURVE",
"538 374 OFFCURVE",
"530 328 CURVE SMOOTH",
"508 200 OFFCURVE",
"428 123 OFFCURVE",
"305 123 CURVE SMOOTH"
);
},
{
closed = 1;
nodes = (
"461 737 LINE",
"589 872 LINE",
"471 872 LINE",
"409 803 LINE",
"364 872 LINE",
"257 872 LINE",
"339 737 LINE"
);
}
);
};
components = (
{
name = D;
},
{
name = caron;
transform = "{1, 0, 0, 1, 273, 145}";
}
);
layerId = "515A5158-96A0-47B2-825D-DFEB99868FF8";
width = 722;
}
);
unicode = 010E;
},
{
color = 10;
glyphname = Dcroat;
lastChange = "2016-07-10 04:41:58 +0000";
layers = (
{
background = {
paths = (
{
closed = 1;
nodes = (
"292 0 LINE",
"524 0 OFFCURVE",
"684 152 OFFCURVE",
"684 414 CURVE SMOOTH",
"684 602 OFFCURVE",
"569 686 OFFCURVE",
"373 686 CURVE SMOOTH",
"139 686 LINE",
"86 387 LINE",
"12 387 LINE",
"1 324 LINE",
"75 324 LINE",
"18 0 LINE"
);
},
{
closed = 1;
nodes = (
"128 83 LINE",
"170 324 LINE",
"343 324 LINE",
"354 387 LINE",
"181 387 LINE",
"219 603 LINE",
"378 603 LINE SMOOTH",
"507 603 OFFCURVE",
"586 549 OFFCURVE",
"586 402 CURVE SMOOTH",
"586 195 OFFCURVE",
"463 83 OFFCURVE",
"287 83 CURVE SMOOTH"
);
}
);
};
layerId = UUID0;
paths = (
{
closed = 1;
nodes = (
"292 0 LINE",
"524 0 OFFCURVE",
"684 152 OFFCURVE",
"684 414 CURVE SMOOTH",
"684 602 OFFCURVE",
"569 686 OFFCURVE",
"373 686 CURVE SMOOTH",
"139 686 LINE",
"86 387 LINE",
"12 387 LINE",
"1 324 LINE",
"75 324 LINE",
"18 0 LINE"
);
},
{
closed = 1;
nodes = (
"170 324 LINE",
"343 324 LINE",
"354 387 LINE",
"181 387 LINE",
"219 603 LINE",
"378 603 LINE SMOOTH",
"507 603 OFFCURVE",
"586 549 OFFCURVE",
"586 402 CURVE SMOOTH",
"586 195 OFFCURVE",
"463 83 OFFCURVE",
"287 83 CURVE SMOOTH",
"128 83 LINE"
);
}
);
width = 722;
},
{
background = {
paths = (
{
closed = 1;
nodes = (
"313 0 LINE",
"426 0 OFFCURVE",
"516 39 OFFCURVE",
"579 104 CURVE SMOOTH",
"654 182 OFFCURVE",
"691 296 OFFCURVE",
"691 416 CURVE SMOOTH",
"691 600 OFFCURVE",
"585 686 OFFCURVE",
"404 686 CURVE SMOOTH",
"130 686 LINE",
"79 397 LINE",
"16 397 LINE",
"2 312 LINE",
"64 312 LINE",
"9 0 LINE"
);
},
{
closed = 1;
nodes = (
"176 123 LINE",
"209 312 LINE",
"348 312 LINE",
"363 397 LINE",
"224 397 LINE",
"253 563 LINE",
"392 563 LINE SMOOTH",
"491 563 OFFCURVE",
"541 509 OFFCURVE",
"541 417 CURVE SMOOTH",
"541 396 OFFCURVE",
"538 374 OFFCURVE",
"530 328 CURVE SMOOTH",
"508 200 OFFCURVE",
"428 123 OFFCURVE",
"305 123 CURVE SMOOTH"
);
}
);
};
layerId = "515A5158-96A0-47B2-825D-DFEB99868FF8";
paths = (
{
closed = 1;
nodes = (
"313 0 LINE",
"426 0 OFFCURVE",
"516 39 OFFCURVE",
"579 104 CURVE SMOOTH",
"654 182 OFFCURVE",
"691 296 OFFCURVE",
"691 416 CURVE SMOOTH",
"691 600 OFFCURVE",
"585 686 OFFCURVE",
"404 686 CURVE SMOOTH",
"130 686 LINE",
"79 397 LINE",
"16 397 LINE",
"2 312 LINE",
"64 312 LINE",
"9 0 LINE"
);
},
{
closed = 1;
nodes = (
"209 312 LINE",
"348 312 LINE",
"363 397 LINE",
"224 397 LINE",
"253 563 LINE",
"392 563 LINE SMOOTH",
"491 563 OFFCURVE",
"541 509 OFFCURVE",
"541 417 CURVE SMOOTH",
"541 396 OFFCURVE",
"538 374 OFFCURVE",
"530 328 CURVE SMOOTH",
"508 200 OFFCURVE",
"428 123 OFFCURVE",
"305 123 CURVE SMOOTH",
"176 123 LINE"
);
}
);
width = 722;
}
);
rightKerningGroup = O;
unicode = 0110;
},
{
color = 10;
glyphname = E;
lastChange = "2015-02-12 03:01:27 +0000";
layers = (
{
anchors = (
{
name = bottom;
position = "{288, 0}";
},
{
name = ogonek;
position = "{554, 10}";
},
{
name = top;
position = "{409, 671}";
}
);
background = {
paths = (
{
closed = 1;
nodes = (
"552 0 LINE",
"567 83 LINE",
"128 83 LINE",
"168 309 LINE",
"557 309 LINE",
"571 392 LINE",
"182 392 LINE",
"219 603 LINE",
"652 603 LINE",
"667 686 LINE",
"139 686 LINE",
"18 0 LINE"
);
}
);
};
layerId = UUID0;
paths = (
{
closed = 1;
nodes = (
"552 0 LINE",
"567 83 LINE",
"128 83 LINE",
"168 309 LINE",
"557 309 LINE",
"571 392 LINE",
"182 392 LINE",
"219 603 LINE",
"652 603 LINE",
"667 686 LINE",
"139 686 LINE",
"18 0 LINE"
);
}
);
width = 667;
},
{
anchors = (
{
name = bottom;
position = "{288, 0}";
},
{
name = ogonek;
position = "{554, 10}";
},
{
name = top;
position = "{409, 671}";
}
);
background = {
paths = (
{
closed = 1;
nodes = (
"554 0 LINE",
"576 123 LINE",
"176 123 LINE",
"205 289 LINE",
"555 289 LINE",
"577 412 LINE",
"227 412 LINE",
"253 563 LINE",
"647 563 LINE",
"669 686 LINE",
"130 686 LINE",
"9 0 LINE"
);
}
);
};
layerId = "515A5158-96A0-47B2-825D-DFEB99868FF8";
paths = (
{
closed = 1;
nodes = (
"554 0 LINE",
"576 123 LINE",
"176 123 LINE",
"205 289 LINE",
"555 289 LINE",
"577 412 LINE",
"227 412 LINE",
"253 563 LINE",
"647 563 LINE",
"669 686 LINE",
"130 686 LINE",
"9 0 LINE"
);
}
);
width = 667;
}
);
unicode = 0045;
},
{
color = 10;
glyphname = Eacute;
lastChange = "2015-02-12 03:01:33 +0000";
layers = (
{
background = {
paths = (
{
closed = 1;
nodes = (
"552 0 LINE",
"567 83 LINE",
"128 83 LINE",
"168 309 LINE",
"557 309 LINE",
"571 392 LINE",
"182 392 LINE",
"219 603 LINE",
"652 603 LINE",
"667 686 LINE",
"139 686 LINE",
"18 0 LINE"
);
},
{
closed = 1;
nodes = (
"441 737 LINE",
"565 866 LINE",
"564 869 LINE",
"463 869 LINE",
"355 737 LINE"
);
}
);
};
components = (
{
name = E;
},
{
name = acute;
transform = "{1, 0, 0, 1, 314, 145}";
}
);
layerId = UUID0;
width = 667;
},
{
background = {
paths = (
{
closed = 1;
nodes = (
"554 0 LINE",
"576 123 LINE",
"176 123 LINE",
"205 289 LINE",
"555 289 LINE",
"577 412 LINE",
"227 412 LINE",
"253 563 LINE",
"647 563 LINE",
"669 686 LINE",
"130 686 LINE",
"9 0 LINE"
);
},
{
closed = 1;
nodes = (
"581 866 LINE",
"580 869 LINE",
"442 869 LINE",
"340 737 LINE",
"450 737 LINE"
);
}
);
};
components = (
{
name = E;
},
{
name = acute;
transform = "{1, 0, 0, 1, 307, 145}";
}
);
layerId = "515A5158-96A0-47B2-825D-DFEB99868FF8";
width = 667;
}
);
unicode = 00C9;
},
{
color = 10;
glyphname = Ebreve;
lastChange = "2015-02-12 03:01:33 +0000";
layers = (
{
background = {
paths = (
{
closed = 1;
nodes = (
"552 0 LINE",
"567 83 LINE",
"128 83 LINE",
"168 309 LINE",
"557 309 LINE",
"571 392 LINE",
"182 392 LINE",
"219 603 LINE",
"652 603 LINE",
"667 686 LINE",
"139 686 LINE",
"18 0 LINE"
);
},
{
closed = 1;
nodes = (
"517 858 LINE",
"510 836 OFFCURVE",
"481 805 OFFCURVE",
"418 805 CURVE SMOOTH",
"357 805 OFFCURVE",
"349 836 OFFCURVE",
"348 858 CURVE",
"287 858 LINE",
"285 850 OFFCURVE",
"285 843 OFFCURVE",
"285 835 CURVE SMOOTH",
"285 787 OFFCURVE",
"316 741 OFFCURVE",
"419 741 CURVE SMOOTH",
"518 741 OFFCURVE",
"568 803 OFFCURVE",
"578 858 CURVE"
);
}
);
};
components = (
{
name = E;
},
{
name = breve;
transform = "{1, 0, 0, 1, 258, 145}";
}
);
layerId = UUID0;
width = 667;
},
{
background = {
paths = (
{
closed = 1;
nodes = (
"554 0 LINE",
"576 123 LINE",
"176 123 LINE",
"205 289 LINE",
"555 289 LINE",
"577 412 LINE",
"227 412 LINE",
"253 563 LINE",
"647 563 LINE",
"669 686 LINE",
"130 686 LINE",
"9 0 LINE"
);
},
{
closed = 1;
nodes = (
"502 868 LINE",
"495 847 OFFCURVE",
"468 820 OFFCURVE",
"421 820 CURVE SMOOTH",
"373 820 OFFCURVE",
"359 845 OFFCURVE",
"359 868 CURVE",
"269 868 LINE",
"267 860 OFFCURVE",
"267 851 OFFCURVE",
"267 843 CURVE SMOOTH",
"267 785 OFFCURVE",
"305 731 OFFCURVE",
"418 731 CURVE SMOOTH",
"464 731 OFFCURVE",
"501 743 OFFCURVE",
"529 764 CURVE SMOOTH",
"565 791 OFFCURVE",
"585 832 OFFCURVE",
"592 868 CURVE"
);
}
);
};
components = (
{
name = E;
},
{
name = breve;
transform = "{1, 0, 0, 1, 254, 145}";
}
);
layerId = "515A5158-96A0-47B2-825D-DFEB99868FF8";
width = 667;
}
);
unicode = 0114;
},
{
color = 10;
glyphname = Ecaron;
lastChange = "2015-02-12 03:01:33 +0000";
layers = (
{
background = {
paths = (
{
closed = 1;
nodes = (
"552 0 LINE",
"567 83 LINE",
"128 83 LINE",
"168 309 LINE",
"557 309 LINE",
"571 392 LINE",
"182 392 LINE",
"219 603 LINE",
"652 603 LINE",
"667 686 LINE",
"139 686 LINE",
"18 0 LINE"
);
},
{
closed = 1;
nodes = (
"293 872 LINE",
"375 737 LINE",
"459 737 LINE",
"588 872 LINE",
"494 872 LINE",
"424 793 LINE",
"379 872 LINE"
);
}
);
};
components = (
{
name = E;
},
{
name = caron;
transform = "{1, 0, 0, 1, 266, 145}";
}
);
layerId = UUID0;
width = 667;
},
{
background = {
paths = (
{
closed = 1;
nodes = (
"554 0 LINE",
"576 123 LINE",
"176 123 LINE",
"205 289 LINE",
"555 289 LINE",
"577 412 LINE",
"227 412 LINE",
"253 563 LINE",
"647 563 LINE",
"669 686 LINE",
"130 686 LINE",
"9 0 LINE"
);
},
{
closed = 1;
nodes = (
"468 737 LINE",
"596 872 LINE",
"478 872 LINE",
"416 803 LINE",
"371 872 LINE",
"264 872 LINE",
"346 737 LINE"
);
}
);
};
components = (
{
name = E;
},
{
name = caron;
transform = "{1, 0, 0, 1, 266, 145}";
}
);
layerId = "515A5158-96A0-47B2-825D-DFEB99868FF8";
width = 667;
}
);
unicode = 011A;
},
{
color = 10;
glyphname = Ecircumflex;
lastChange = "2015-02-12 03:01:33 +0000";
layers = (
{
background = {
paths = (
{
closed = 1;
nodes = (
"552 0 LINE",
"567 83 LINE",
"128 83 LINE",
"168 309 LINE",
"557 309 LINE",
"571 392 LINE",
"182 392 LINE",
"219 603 LINE",
"652 603 LINE",
"667 686 LINE",
"139 686 LINE",
"18 0 LINE"
);
},
{
closed = 1;
nodes = (
"562 737 LINE",
"480 872 LINE",
"396 872 LINE",
"267 737 LINE",
"361 737 LINE",
"433 816 LINE",
"476 737 LINE"
);
}
);
};
components = (
{
name = E;
},
{
name = circumflex;
transform = "{1, 0, 0, 1, 261, 145}";
}
);
layerId = UUID0;
width = 667;
},
{
background = {
paths = (
{
closed = 1;
nodes = (
"554 0 LINE",
"576 123 LINE",
"176 123 LINE",
"205 289 LINE",
"555 289 LINE",
"577 412 LINE",
"227 412 LINE",
"253 563 LINE",
"647 563 LINE",
"669 686 LINE",
"130 686 LINE",
"9 0 LINE"
);
},
{
closed = 1;
nodes = (
"582 737 LINE",
"500 872 LINE",
"378 872 LINE",
"250 737 LINE",
"369 737 LINE",
"431 806 LINE",
"476 737 LINE"
);
}
);
};
components = (
{
name = E;
},
{
name = circumflex;
transform = "{1, 0, 0, 1, 258, 145}";
}
);
layerId = "515A5158-96A0-47B2-825D-DFEB99868FF8";
width = 667;
}
);
unicode = 00CA;
},
{
color = 10;
glyphname = Edieresis;
lastChange = "2015-02-12 03:01:33 +0000";
layers = (
{
background = {
paths = (
{
closed = 1;
nodes = (
"552 0 LINE",
"567 83 LINE",
"128 83 LINE",
"168 309 LINE",
"557 309 LINE",
"571 392 LINE",
"182 392 LINE",
"219 603 LINE",
"652 603 LINE",
"667 686 LINE",
"139 686 LINE",
"18 0 LINE"
);
},
{
closed = 1;
nodes = (
"368 752 LINE",
"385 847 LINE",
"298 847 LINE",
"281 752 LINE"
);
},
{
closed = 1;
nodes = (
"555 752 LINE",
"572 847 LINE",
"485 847 LINE",
"468 752 LINE"
);
}
);
};
components = (
{
name = E;
},
{
name = dieresis;
transform = "{1, 0, 0, 1, 269, 145}";
}
);
layerId = UUID0;
width = 667;
},
{
background = {
paths = (
{
closed = 1;
nodes = (
"554 0 LINE",
"576 123 LINE",
"176 123 LINE",
"205 289 LINE",
"555 289 LINE",
"577 412 LINE",
"227 412 LINE",
"253 563 LINE",
"647 563 LINE",
"669 686 LINE",
"130 686 LINE",
"9 0 LINE"
);
},
{
closed = 1;
nodes = (
"360 741 LINE",
"381 859 LINE",
"263 859 LINE",
"243 741 LINE"
);
},
{
closed = 1;
nodes = (
"571 741 LINE",
"592 859 LINE",
"473 859 LINE",
"452 741 LINE"
);
}
);
};
components = (
{
name = E;
},
{
name = dieresis;
transform = "{1, 0, 0, 1, 268, 145}";
}
);
layerId = "515A5158-96A0-47B2-825D-DFEB99868FF8";
width = 667;
}
);
unicode = 00CB;
},
{
color = 10;
glyphname = Edotaccent;
lastChange = "2015-02-12 03:01:33 +0000";
layers = (
{
background = {
paths = (
{
closed = 1;
nodes = (
"552 0 LINE",
"567 83 LINE",
"128 83 LINE",
"168 309 LINE",
"557 309 LINE",
"571 392 LINE",
"182 392 LINE",
"219 603 LINE",
"652 603 LINE",
"667 686 LINE",
"139 686 LINE",
"18 0 LINE"
);
},
{
closed = 1;
nodes = (
"456 753 LINE",
"473 848 LINE",
"386 848 LINE",
"369 753 LINE"
);
}
);
};
components = (
{
name = E;
},
{
name = dotaccent;
transform = "{1, 0, 0, 1, 269, 145}";
}
);
layerId = UUID0;
width = 667;
},
{
background = {
paths = (
{
closed = 1;
nodes = (
"554 0 LINE",
"576 123 LINE",
"176 123 LINE",
"205 289 LINE",
"555 289 LINE",
"577 412 LINE",
"227 412 LINE",
"253 563 LINE",
"647 563 LINE",
"669 686 LINE",
"130 686 LINE",
"9 0 LINE"
);
},
{
closed = 1;
nodes = (
"476 735 LINE",
"499 865 LINE",
"364 865 LINE",
"341 735 LINE"
);
}
);
};
components = (
{
name = E;
},
{
name = dotaccent;
transform = "{1, 0, 0, 1, 265, 145}";
}
);
layerId = "515A5158-96A0-47B2-825D-DFEB99868FF8";
width = 667;
}
);
unicode = 0116;
},
{
color = 10;
glyphname = Egrave;
lastChange = "2015-02-12 03:01:33 +0000";
layers = (
{
background = {
paths = (
{
closed = 1;
nodes = (
"552 0 LINE",
"567 83 LINE",
"128 83 LINE",
"168 309 LINE",
"557 309 LINE",
"571 392 LINE",
"182 392 LINE",
"219 603 LINE",
"652 603 LINE",
"667 686 LINE",
"139 686 LINE",
"18 0 LINE"
);
},
{
closed = 1;
nodes = (
"459 737 LINE",
"396 869 LINE",
"300 869 LINE",
"299 866 LINE",
"384 737 LINE"
);
}
);
};
components = (
{
name = E;
},
{
name = grave;
transform = "{1, 0, 0, 1, 212, 145}";
}
);
layerId = UUID0;
width = 667;
},
{
background = {
paths = (
{
closed = 1;
nodes = (
"554 0 LINE",
"576 123 LINE",
"176 123 LINE",
"205 289 LINE",
"555 289 LINE",
"577 412 LINE",
"227 412 LINE",
"253 563 LINE",
"647 563 LINE",
"669 686 LINE",
"130 686 LINE",
"9 0 LINE"
);
},
{
closed = 1;
nodes = (
"475 737 LINE",
"419 869 LINE",
"291 869 LINE",
"290 866 LINE",
"375 737 LINE"
);
}
);
};
components = (
{
name = E;
},
{
name = grave;
transform = "{1, 0, 0, 1, 199, 145}";
}
);
layerId = "515A5158-96A0-47B2-825D-DFEB99868FF8";
width = 667;
}
);
unicode = 00C8;
},
{
color = 10;
glyphname = Emacron;
lastChange = "2015-02-12 03:00:54 +0000";
layers = (
{
background = {
paths = (
{
closed = 1;
nodes = (
"573 763 LINE",
"586 835 LINE",
"281 835 LINE",
"268 763 LINE"
);
},
{
closed = 1;
nodes = (
"552 0 LINE",
"567 83 LINE",
"128 83 LINE",
"168 309 LINE",
"557 309 LINE",
"571 392 LINE",
"182 392 LINE",
"219 603 LINE",
"652 603 LINE",
"667 686 LINE",
"139 686 LINE",
"18 0 LINE"
);
}
);
};
components = (
{
name = E;
}
);
layerId = UUID0;
paths = (
{
closed = 1;
nodes = (
"573 763 LINE",
"586 835 LINE",
"281 835 LINE",
"268 763 LINE"
);
}
);
width = 667;
},
{
background = {
paths = (
{
closed = 1;
nodes = (
"554 0 LINE",
"576 123 LINE",
"176 123 LINE",
"205 289 LINE",
"555 289 LINE",
"577 412 LINE",
"227 412 LINE",
"253 563 LINE",
"647 563 LINE",
"669 686 LINE",
"130 686 LINE",
"9 0 LINE"
);
},
{
closed = 1;
nodes = (
"567 755 LINE",
"582 843 LINE",
"277 843 LINE",
"262 755 LINE"
);
}
);
};
components = (
{
name = E;
},
{
name = macron;
transform = "{1, 0, 0, 1, 271, 145}";
}
);
layerId = "515A5158-96A0-47B2-825D-DFEB99868FF8";
width = 667;
}
);
unicode = 0112;
},
{
color = 10;
glyphname = Eogonek;
lastChange = "2016-07-10 04:41:58 +0000";
layers = (
{
background = {
paths = (
{
closed = 1;
nodes = (
"532 -117 LINE",
"500 -117 LINE SMOOTH",
"470 -117 OFFCURVE",
"455 -101 OFFCURVE",
"455 -82 CURVE SMOOTH",
"455 -47 OFFCURVE",
"502 -17 OFFCURVE",
"552 0 CURVE",
"567 83 LINE",
"128 83 LINE",
"168 309 LINE",
"557 309 LINE",
"571 392 LINE",
"182 392 LINE",
"219 603 LINE",
"652 603 LINE",
"667 686 LINE",
"139 686 LINE",
"18 0 LINE",
"451 0 LINE",
"400 -25 OFFCURVE",
"371 -56 OFFCURVE",
"371 -108 CURVE SMOOTH",
"371 -164 OFFCURVE",
"418 -182 OFFCURVE",
"459 -182 CURVE SMOOTH",
"479 -182 OFFCURVE",
"500 -177 OFFCURVE",
"523 -168 CURVE"
);
}
);
};
layerId = UUID0;
paths = (
{
closed = 1;
nodes = (
"479 -182 OFFCURVE",
"500 -177 OFFCURVE",
"523 -168 CURVE",
"532 -117 LINE",
"500 -117 LINE SMOOTH",
"470 -117 OFFCURVE",
"455 -101 OFFCURVE",
"455 -82 CURVE SMOOTH",
"455 -47 OFFCURVE",
"502 -17 OFFCURVE",
"552 0 CURVE",
"567 83 LINE",
"128 83 LINE",
"168 309 LINE",
"557 309 LINE",
"571 392 LINE",
"182 392 LINE",
"219 603 LINE",
"652 603 LINE",
"667 686 LINE",
"139 686 LINE",
"18 0 LINE",
"451 0 LINE",
"400 -25 OFFCURVE",
"371 -56 OFFCURVE",
"371 -108 CURVE SMOOTH",
"371 -164 OFFCURVE",
"418 -182 OFFCURVE",
"459 -182 CURVE SMOOTH"
);
}
);
width = 667;
},
{
background = {
paths = (
{
closed = 1;
nodes = (
"534 -113 LINE",
"510 -113 LINE SMOOTH",
"484 -113 OFFCURVE",
"469 -99 OFFCURVE",
"469 -82 CURVE SMOOTH",
"469 -51 OFFCURVE",
"515 -16 OFFCURVE",
"554 0 CURVE",
"576 123 LINE",
"176 123 LINE",
"205 289 LINE",
"555 289 LINE",
"577 412 LINE",
"227 412 LINE",
"253 563 LINE",
"647 563 LINE",
"669 686 LINE",
"130 686 LINE",
"9 0 LINE",
"444 0 LINE",
"396 -25 OFFCURVE",
"357 -62 OFFCURVE",
"357 -114 CURVE SMOOTH",
"357 -165 OFFCURVE",
"406 -182 OFFCURVE",
"450 -182 CURVE SMOOTH",
"474 -182 OFFCURVE",
"497 -177 OFFCURVE",
"524 -168 CURVE"
);
}
);
};
layerId = "515A5158-96A0-47B2-825D-DFEB99868FF8";
paths = (
{
closed = 1;
nodes = (
"474 -182 OFFCURVE",
"497 -177 OFFCURVE",
"524 -168 CURVE",
"534 -113 LINE",
"510 -113 LINE SMOOTH",
"484 -113 OFFCURVE",
"469 -99 OFFCURVE",
"469 -82 CURVE SMOOTH",
"469 -51 OFFCURVE",
"515 -16 OFFCURVE",
"554 0 CURVE",
"576 123 LINE",
"176 123 LINE",
"205 289 LINE",
"555 289 LINE",
"577 412 LINE",
"227 412 LINE",
"253 563 LINE",
"647 563 LINE",
"669 686 LINE",
"130 686 LINE",
"9 0 LINE",
"444 0 LINE",
"396 -25 OFFCURVE",
"357 -62 OFFCURVE",
"357 -114 CURVE SMOOTH",
"357 -165 OFFCURVE",
"406 -182 OFFCURVE",
"450 -182 CURVE SMOOTH"
);
}
);
width = 667;
}
);
unicode = 0118;
},
{
color = 10;
glyphname = F;
lastChange = "2016-07-10 04:41:58 +0000";
layers = (
{
anchors = (
{
name = bottom;
position = "{260, 0}";
},
{
name = top;
position = "{381, 671}";
}
);
background = {
paths = (
{
closed = 1;
nodes = (
"521 302 LINE",
"536 385 LINE",
"181 385 LINE",
"219 603 LINE",
"610 603 LINE",
"625 686 LINE",
"139 686 LINE",
"18 0 LINE",
"113 0 LINE",
"166 302 LINE"
);
}
);
};
layerId = UUID0;
paths = (
{
closed = 1;
nodes = (
"113 0 LINE",
"166 302 LINE",
"521 302 LINE",
"536 385 LINE",
"181 385 LINE",
"219 603 LINE",
"610 603 LINE",
"625 686 LINE",
"139 686 LINE",
"18 0 LINE"
);
}
);
width = 611;
},
{
anchors = (
{
name = bottom;
position = "{260, 0}";
},
{
name = top;
position = "{381, 671}";
}
);
background = {
paths = (
{
closed = 1;
nodes = (
"517 271 LINE",
"538 394 LINE",
"223 394 LINE",
"253 563 LINE",
"605 563 LINE",
"627 686 LINE",
"130 686 LINE",
"9 0 LINE",
"154 0 LINE",
"202 271 LINE"
);
}
);
};
layerId = "515A5158-96A0-47B2-825D-DFEB99868FF8";
paths = (
{
closed = 1;
nodes = (
"154 0 LINE",
"202 271 LINE",
"517 271 LINE",
"538 394 LINE",
"223 394 LINE",
"253 563 LINE",
"605 563 LINE",
"627 686 LINE",
"130 686 LINE",
"9 0 LINE"
);
}
);
width = 611;
}
);
unicode = 0046;
},
{
color = 10;
glyphname = G;
lastChange = "2016-07-10 04:46:59 +0000";
layers = (
{
anchors = (
{
name = bottom;
position = "{343, 0}";
},
{
name = top;
position = "{464, 671}";
}
);
background = {
paths = (
{
closed = 1;
nodes = (
"646 0 LINE",
"709 357 LINE",
"372 357 LINE",
"357 274 LINE",
"599 274 LINE",
"598 264 LINE SMOOTH",
"587 159 OFFCURVE",
"489 69 OFFCURVE",
"328 69 CURVE SMOOTH",
"204 69 OFFCURVE",
"136 123 OFFCURVE",
"136 261 CURVE SMOOTH",
"136 482 OFFCURVE",
"252 617 OFFCURVE",
"451 617 CURVE SMOOTH",
"561 617 OFFCURVE",
"632 576 OFFCURVE",
"632 485 CURVE SMOOTH",
"632 475 OFFCURVE",
"631 464 OFFCURVE",
"629 452 CURVE",
"726 452 LINE",
"729 469 OFFCURVE",
"730 485 OFFCURVE",
"730 500 CURVE SMOOTH",
"730 633 OFFCURVE",
"614 698 OFFCURVE",
"445 698 CURVE SMOOTH",
"189 698 OFFCURVE",
"37 522 OFFCURVE",
"37 252 CURVE SMOOTH",
"37 83 OFFCURVE",
"135 -12 OFFCURVE",
"322 -12 CURVE SMOOTH",
"423 -12 OFFCURVE",
"508 16 OFFCURVE",
"574 84 CURVE",
"574 0 LINE"
);
}
);
};
layerId = UUID0;
paths = (
{
closed = 1;
nodes = (
"423 -12 OFFCURVE",
"508 16 OFFCURVE",
"574 84 CURVE",
"574 0 LINE",
"646 0 LINE",
"709 357 LINE",
"372 357 LINE",
"357 274 LINE",
"639 274 LINE",
"603 313 LINE",
"598 264 LINE SMOOTH",
"587 159 OFFCURVE",
"489 69 OFFCURVE",
"328 69 CURVE SMOOTH",
"204 69 OFFCURVE",
"136 123 OFFCURVE",
"136 261 CURVE SMOOTH",
"136 306 OFFCURVE",
"141 348 OFFCURVE",
"150 385 CURVE SMOOTH",
"187 532 OFFCURVE",
"293 617 OFFCURVE",
"451 617 CURVE SMOOTH",
"561 617 OFFCURVE",
"632 576 OFFCURVE",
"632 485 CURVE SMOOTH",
"632 475 OFFCURVE",
"631 464 OFFCURVE",
"629 452 CURVE",
"726 452 LINE",
"729 469 OFFCURVE",
"730 485 OFFCURVE",
"730 500 CURVE SMOOTH",
"730 633 OFFCURVE",
"614 698 OFFCURVE",
"445 698 CURVE SMOOTH",
"317 698 OFFCURVE",
"215 654 OFFCURVE",
"145 577 CURVE SMOOTH",
"75 499 OFFCURVE",
"37 387 OFFCURVE",
"37 252 CURVE SMOOTH",
"37 83 OFFCURVE",
"135 -12 OFFCURVE",
"322 -12 CURVE SMOOTH"
);
}
);
width = 778;
},
{
anchors = (
{
name = bottom;
position = "{343, 0}";
},
{
name = top;
position = "{464, 671}";
}
);
background = {
paths = (
{
closed = 1;
nodes = (
"658 0 LINE",
"724 373 LINE",
"371 373 LINE",
"350 254 LINE",
"558 254 LINE",
"541 166 OFFCURVE",
"445 111 OFFCURVE",
"335 111 CURVE SMOOTH",
"233 111 OFFCURVE",
"183 160 OFFCURVE",
"183 260 CURVE SMOOTH",
"183 280 OFFCURVE",
"186 303 OFFCURVE",
"195 358 CURVE SMOOTH",
"218 496 OFFCURVE",
"302 575 OFFCURVE",
"446 575 CURVE SMOOTH",
"523 575 OFFCURVE",
"589 537 OFFCURVE",
"589 470 CURVE SMOOTH",
"589 464 OFFCURVE",
"589 458 OFFCURVE",
"588 452 CURVE",
"738 452 LINE",
"741 467 OFFCURVE",
"742 481 OFFCURVE",
"742 495 CURVE SMOOTH",
"742 633 OFFCURVE",
"607 698 OFFCURVE",
"443 698 CURVE SMOOTH",
"331 698 OFFCURVE",
"239 665 OFFCURVE",
"172 606 CURVE SMOOTH",
"79 525 OFFCURVE",
"34 396 OFFCURVE",
"34 258 CURVE SMOOTH",
"34 69 OFFCURVE",
"141 -12 OFFCURVE",
"323 -12 CURVE SMOOTH",
"424 -12 OFFCURVE",
"491 21 OFFCURVE",
"558 76 CURVE",
"558 0 LINE"
);
}
);
};
layerId = "515A5158-96A0-47B2-825D-DFEB99868FF8";
paths = (
{
closed = 1;
nodes = (
"424 -12 OFFCURVE",
"491 21 OFFCURVE",
"558 76 CURVE",
"558 0 LINE",
"658 0 LINE",
"724 373 LINE",
"371 373 LINE",
"350 254 LINE",
"620 254 LINE",
"563 294 LINE",
"558 258 LINE SMOOTH",
"544 168 OFFCURVE",
"447 111 OFFCURVE",
"335 111 CURVE SMOOTH",
"233 111 OFFCURVE",
"183 160 OFFCURVE",
"183 260 CURVE SMOOTH",
"183 280 OFFCURVE",
"186 303 OFFCURVE",
"195 358 CURVE SMOOTH",
"218 496 OFFCURVE",
"302 575 OFFCURVE",
"446 575 CURVE SMOOTH",
"523 575 OFFCURVE",
"589 537 OFFCURVE",
"589 470 CURVE SMOOTH",
"589 464 OFFCURVE",
"589 458 OFFCURVE",
"588 452 CURVE",
"738 452 LINE",
"741 467 OFFCURVE",
"742 481 OFFCURVE",
"742 495 CURVE SMOOTH",
"742 633 OFFCURVE",
"607 698 OFFCURVE",
"443 698 CURVE SMOOTH",
"331 698 OFFCURVE",
"239 665 OFFCURVE",
"172 606 CURVE SMOOTH",
"79 525 OFFCURVE",
"34 396 OFFCURVE",
"34 258 CURVE SMOOTH",
"34 69 OFFCURVE",
"141 -12 OFFCURVE",
"323 -12 CURVE SMOOTH"
);
}
);
width = 778;
}
);
leftKerningGroup = O;
unicode = 0047;
},
{
color = 10;
glyphname = Gbreve;
lastChange = "2015-02-16 21:46:29 +0000";
layers = (
{
background = {
paths = (
{
closed = 1;
nodes = (
"646 0 LINE",
"709 357 LINE",
"372 357 LINE",
"357 274 LINE",
"599 274 LINE",
"598 264 LINE SMOOTH",
"587 159 OFFCURVE",
"489 69 OFFCURVE",
"328 69 CURVE SMOOTH",
"204 69 OFFCURVE",
"136 123 OFFCURVE",
"136 261 CURVE SMOOTH",
"136 482 OFFCURVE",
"252 617 OFFCURVE",
"451 617 CURVE SMOOTH",
"561 617 OFFCURVE",
"632 576 OFFCURVE",
"632 485 CURVE SMOOTH",
"632 475 OFFCURVE",
"631 464 OFFCURVE",
"629 452 CURVE",
"726 452 LINE",
"729 469 OFFCURVE",
"730 485 OFFCURVE",
"730 500 CURVE SMOOTH",
"730 633 OFFCURVE",
"614 698 OFFCURVE",
"445 698 CURVE SMOOTH",
"189 698 OFFCURVE",
"37 522 OFFCURVE",
"37 252 CURVE SMOOTH",
"37 83 OFFCURVE",
"135 -12 OFFCURVE",
"322 -12 CURVE SMOOTH",
"423 -12 OFFCURVE",
"508 16 OFFCURVE",
"574 84 CURVE",
"574 0 LINE"
);
},
{
closed = 1;
nodes = (
"558 858 LINE",
"551 836 OFFCURVE",
"522 805 OFFCURVE",
"459 805 CURVE SMOOTH",
"398 805 OFFCURVE",
"390 836 OFFCURVE",
"389 858 CURVE",
"328 858 LINE",
"326 850 OFFCURVE",
"326 843 OFFCURVE",
"326 835 CURVE SMOOTH",
"326 787 OFFCURVE",
"357 741 OFFCURVE",
"460 741 CURVE SMOOTH",
"559 741 OFFCURVE",
"609 803 OFFCURVE",
"619 858 CURVE"
);
}
);
};
components = (
{
name = G;
},
{
name = breve;
transform = "{1, 0, 0, 1, 313, 145}";
}
);
layerId = UUID0;
width = 778;
},
{
background = {
paths = (
{
closed = 1;
nodes = (
"658 0 LINE",
"724 373 LINE",
"371 373 LINE",
"350 254 LINE",
"558 254 LINE",
"541 166 OFFCURVE",
"445 111 OFFCURVE",
"335 111 CURVE SMOOTH",
"233 111 OFFCURVE",
"183 160 OFFCURVE",
"183 260 CURVE SMOOTH",
"183 280 OFFCURVE",
"186 303 OFFCURVE",
"195 358 CURVE SMOOTH",
"218 496 OFFCURVE",
"302 575 OFFCURVE",
"446 575 CURVE SMOOTH",
"523 575 OFFCURVE",
"589 537 OFFCURVE",
"589 470 CURVE SMOOTH",
"589 464 OFFCURVE",
"589 458 OFFCURVE",
"588 452 CURVE",
"738 452 LINE",
"741 467 OFFCURVE",
"742 481 OFFCURVE",
"742 495 CURVE SMOOTH",
"742 633 OFFCURVE",
"607 698 OFFCURVE",
"443 698 CURVE SMOOTH",
"331 698 OFFCURVE",
"239 665 OFFCURVE",
"172 606 CURVE SMOOTH",
"79 525 OFFCURVE",
"34 396 OFFCURVE",
"34 258 CURVE SMOOTH",
"34 69 OFFCURVE",
"141 -12 OFFCURVE",
"323 -12 CURVE SMOOTH",
"424 -12 OFFCURVE",
"491 21 OFFCURVE",
"558 76 CURVE",
"558 0 LINE"
);
},
{
closed = 1;
nodes = (
"558 868 LINE",
"551 847 OFFCURVE",
"524 820 OFFCURVE",
"477 820 CURVE SMOOTH",
"429 820 OFFCURVE",
"415 845 OFFCURVE",
"415 868 CURVE",
"325 868 LINE",
"323 860 OFFCURVE",
"323 851 OFFCURVE",
"323 843 CURVE SMOOTH",
"323 785 OFFCURVE",
"361 731 OFFCURVE",
"474 731 CURVE SMOOTH",
"520 731 OFFCURVE",
"557 743 OFFCURVE",
"585 764 CURVE SMOOTH",
"621 791 OFFCURVE",
"641 832 OFFCURVE",
"648 868 CURVE"
);
}
);
};
components = (
{
name = G;
},
{
name = breve;
transform = "{1, 0, 0, 1, 309, 145}";
}
);
layerId = "515A5158-96A0-47B2-825D-DFEB99868FF8";
width = 778;
}
);
leftKerningGroup = O;
unicode = 011E;
},
{
color = 10;
glyphname = Gcircumflex;
lastChange = "2015-02-16 21:46:29 +0000";
layers = (
{
background = {
paths = (
{
closed = 1;
nodes = (
"646 0 LINE",
"709 357 LINE",
"372 357 LINE",
"357 274 LINE",
"599 274 LINE",
"598 264 LINE SMOOTH",
"587 159 OFFCURVE",
"489 69 OFFCURVE",
"328 69 CURVE SMOOTH",
"204 69 OFFCURVE",
"136 123 OFFCURVE",
"136 261 CURVE SMOOTH",
"136 482 OFFCURVE",
"252 617 OFFCURVE",
"451 617 CURVE SMOOTH",
"561 617 OFFCURVE",
"632 576 OFFCURVE",
"632 485 CURVE SMOOTH",
"632 475 OFFCURVE",
"631 464 OFFCURVE",
"629 452 CURVE",
"726 452 LINE",
"729 469 OFFCURVE",
"730 485 OFFCURVE",
"730 500 CURVE SMOOTH",
"730 633 OFFCURVE",
"614 698 OFFCURVE",
"445 698 CURVE SMOOTH",
"189 698 OFFCURVE",
"37 522 OFFCURVE",
"37 252 CURVE SMOOTH",
"37 83 OFFCURVE",
"135 -12 OFFCURVE",
"322 -12 CURVE SMOOTH",
"423 -12 OFFCURVE",
"508 16 OFFCURVE",
"574 84 CURVE",
"574 0 LINE"
);
},
{
closed = 1;
nodes = (
"612 737 LINE",
"530 872 LINE",
"446 872 LINE",
"317 737 LINE",
"411 737 LINE",
"483 816 LINE",
"526 737 LINE"
);
}
);
};
components = (
{
name = G;
},
{
name = circumflex;
transform = "{1, 0, 0, 1, 316, 145}";
}
);
layerId = UUID0;
width = 778;
},
{
background = {
paths = (
{
closed = 1;
nodes = (
"658 0 LINE",
"724 373 LINE",
"371 373 LINE",
"350 254 LINE",
"558 254 LINE",
"541 166 OFFCURVE",
"445 111 OFFCURVE",
"335 111 CURVE SMOOTH",
"233 111 OFFCURVE",
"183 160 OFFCURVE",
"183 260 CURVE SMOOTH",
"183 280 OFFCURVE",
"186 303 OFFCURVE",
"195 358 CURVE SMOOTH",
"218 496 OFFCURVE",
"302 575 OFFCURVE",
"446 575 CURVE SMOOTH",
"523 575 OFFCURVE",
"589 537 OFFCURVE",
"589 470 CURVE SMOOTH",
"589 464 OFFCURVE",
"589 458 OFFCURVE",
"588 452 CURVE",
"738 452 LINE",
"741 467 OFFCURVE",
"742 481 OFFCURVE",
"742 495 CURVE SMOOTH",
"742 633 OFFCURVE",
"607 698 OFFCURVE",
"443 698 CURVE SMOOTH",
"331 698 OFFCURVE",
"239 665 OFFCURVE",
"172 606 CURVE SMOOTH",
"79 525 OFFCURVE",
"34 396 OFFCURVE",
"34 258 CURVE SMOOTH",
"34 69 OFFCURVE",
"141 -12 OFFCURVE",
"323 -12 CURVE SMOOTH",
"424 -12 OFFCURVE",
"491 21 OFFCURVE",
"558 76 CURVE",
"558 0 LINE"
);
},
{
closed = 1;
nodes = (
"637 737 LINE",
"555 872 LINE",
"433 872 LINE",
"305 737 LINE",
"424 737 LINE",
"486 806 LINE",
"531 737 LINE"
);
}
);
};
components = (
{
name = G;
},
{
name = circumflex;
transform = "{1, 0, 0, 1, 313, 145}";
}
);
layerId = "515A5158-96A0-47B2-825D-DFEB99868FF8";
width = 778;
}
);
leftKerningGroup = O;
unicode = 011C;
},
{
color = 10;
glyphname = Gcommaaccent;
lastChange = "2015-02-16 21:46:29 +0000";
layers = (
{
background = {
paths = (
{
closed = 1;
nodes = (
"316 -230 LINE",
"375 -142 LINE",
"390 -58 LINE",
"302 -58 LINE",
"286 -149 LINE",
"321 -149 LINE",
"269 -230 LINE"
);
},
{
closed = 1;
nodes = (
"646 0 LINE",
"709 357 LINE",
"372 357 LINE",
"357 274 LINE",
"599 274 LINE",
"598 264 LINE SMOOTH",
"587 159 OFFCURVE",
"489 69 OFFCURVE",
"328 69 CURVE SMOOTH",
"204 69 OFFCURVE",
"136 123 OFFCURVE",
"136 261 CURVE SMOOTH",
"136 482 OFFCURVE",
"252 617 OFFCURVE",
"451 617 CURVE SMOOTH",
"561 617 OFFCURVE",
"632 576 OFFCURVE",
"632 485 CURVE SMOOTH",
"632 475 OFFCURVE",
"631 464 OFFCURVE",
"629 452 CURVE",
"726 452 LINE",
"729 469 OFFCURVE",
"730 485 OFFCURVE",
"730 500 CURVE SMOOTH",
"730 633 OFFCURVE",
"614 698 OFFCURVE",
"445 698 CURVE SMOOTH",
"189 698 OFFCURVE",
"37 522 OFFCURVE",
"37 252 CURVE SMOOTH",
"37 83 OFFCURVE",
"135 -12 OFFCURVE",
"322 -12 CURVE SMOOTH",
"423 -12 OFFCURVE",
"508 16 OFFCURVE",
"574 84 CURVE",
"574 0 LINE"
);
}
);
};
components = (
{
name = G;
},
{
name = commaaccent;
transform = "{1, 0, 0, 1, 208, 0}";
}
);
layerId = UUID0;
width = 778;
},
{
background = {
paths = (
{
closed = 1;
nodes = (
"332 -250 LINE",
"418 -141 LINE",
"433 -55 LINE",
"295 -55 LINE",
"277 -153 LINE",
"330 -153 LINE",
"260 -250 LINE"
);
},
{
closed = 1;
nodes = (
"658 0 LINE",
"724 373 LINE",
"371 373 LINE",
"350 254 LINE",
"558 254 LINE",
"541 166 OFFCURVE",
"445 111 OFFCURVE",
"335 111 CURVE SMOOTH",
"233 111 OFFCURVE",
"183 160 OFFCURVE",
"183 260 CURVE SMOOTH",
"183 280 OFFCURVE",
"186 303 OFFCURVE",
"195 358 CURVE SMOOTH",
"218 496 OFFCURVE",
"302 575 OFFCURVE",
"446 575 CURVE SMOOTH",
"523 575 OFFCURVE",
"589 537 OFFCURVE",
"589 470 CURVE SMOOTH",
"589 464 OFFCURVE",
"589 458 OFFCURVE",
"588 452 CURVE",
"738 452 LINE",
"741 467 OFFCURVE",
"742 481 OFFCURVE",
"742 495 CURVE SMOOTH",
"742 633 OFFCURVE",
"607 698 OFFCURVE",
"443 698 CURVE SMOOTH",
"331 698 OFFCURVE",
"239 665 OFFCURVE",
"172 606 CURVE SMOOTH",
"79 525 OFFCURVE",
"34 396 OFFCURVE",
"34 258 CURVE SMOOTH",
"34 69 OFFCURVE",
"141 -12 OFFCURVE",
"323 -12 CURVE SMOOTH",
"424 -12 OFFCURVE",
"491 21 OFFCURVE",
"558 76 CURVE",
"558 0 LINE"
);
}
);
};
components = (
{
name = G;
},
{
name = commaaccent;
transform = "{1, 0, 0, 1, 153, 0}";
}
);
layerId = "515A5158-96A0-47B2-825D-DFEB99868FF8";
width = 778;
}
);
leftKerningGroup = O;
unicode = 0122;
},
{
color = 10;
glyphname = Gdotaccent;
lastChange = "2015-02-16 21:46:29 +0000";
layers = (
{
background = {
paths = (
{
closed = 1;
nodes = (
"646 0 LINE",
"709 357 LINE",
"372 357 LINE",
"357 274 LINE",
"599 274 LINE",
"598 264 LINE SMOOTH",
"587 159 OFFCURVE",
"489 69 OFFCURVE",
"328 69 CURVE SMOOTH",
"204 69 OFFCURVE",
"136 123 OFFCURVE",
"136 261 CURVE SMOOTH",
"136 482 OFFCURVE",
"252 617 OFFCURVE",
"451 617 CURVE SMOOTH",
"561 617 OFFCURVE",
"632 576 OFFCURVE",
"632 485 CURVE SMOOTH",
"632 475 OFFCURVE",
"631 464 OFFCURVE",
"629 452 CURVE",
"726 452 LINE",
"729 469 OFFCURVE",
"730 485 OFFCURVE",
"730 500 CURVE SMOOTH",
"730 633 OFFCURVE",
"614 698 OFFCURVE",
"445 698 CURVE SMOOTH",
"189 698 OFFCURVE",
"37 522 OFFCURVE",
"37 252 CURVE SMOOTH",
"37 83 OFFCURVE",
"135 -12 OFFCURVE",
"322 -12 CURVE SMOOTH",
"423 -12 OFFCURVE",
"508 16 OFFCURVE",
"574 84 CURVE",
"574 0 LINE"
);
},
{
closed = 1;
nodes = (
"500 752 LINE",
"517 847 LINE",
"430 847 LINE",
"413 752 LINE"
);
}
);
};
components = (
{
name = G;
},
{
name = dotaccent;
transform = "{1, 0, 0, 1, 324, 145}";
}
);
layerId = UUID0;
width = 778;
},
{
background = {
paths = (
{
closed = 1;
nodes = (
"658 0 LINE",
"724 373 LINE",
"371 373 LINE",
"350 254 LINE",
"558 254 LINE",
"541 166 OFFCURVE",
"445 111 OFFCURVE",
"335 111 CURVE SMOOTH",
"233 111 OFFCURVE",
"183 160 OFFCURVE",
"183 260 CURVE SMOOTH",
"183 280 OFFCURVE",
"186 303 OFFCURVE",
"195 358 CURVE SMOOTH",
"218 496 OFFCURVE",
"302 575 OFFCURVE",
"446 575 CURVE SMOOTH",
"523 575 OFFCURVE",
"589 537 OFFCURVE",
"589 470 CURVE SMOOTH",
"589 464 OFFCURVE",
"589 458 OFFCURVE",
"588 452 CURVE",
"738 452 LINE",
"741 467 OFFCURVE",
"742 481 OFFCURVE",
"742 495 CURVE SMOOTH",
"742 633 OFFCURVE",
"607 698 OFFCURVE",
"443 698 CURVE SMOOTH",
"331 698 OFFCURVE",
"239 665 OFFCURVE",
"172 606 CURVE SMOOTH",
"79 525 OFFCURVE",
"34 396 OFFCURVE",
"34 258 CURVE SMOOTH",
"34 69 OFFCURVE",
"141 -12 OFFCURVE",
"323 -12 CURVE SMOOTH",
"424 -12 OFFCURVE",
"491 21 OFFCURVE",
"558 76 CURVE",
"558 0 LINE"
);
},
{
closed = 1;
nodes = (
"527 734 LINE",
"550 864 LINE",
"415 864 LINE",
"392 734 LINE"
);
}
);
};
components = (
{
name = G;
},
{
name = dotaccent;
transform = "{1, 0, 0, 1, 320, 145}";
}
);
layerId = "515A5158-96A0-47B2-825D-DFEB99868FF8";
width = 778;
}
);
leftKerningGroup = O;
unicode = 0120;
},
{
color = 10;
glyphname = H;
lastChange = "2016-07-10 04:41:58 +0000";
layers = (
{
anchors = (
{
name = bottom;
position = "{315, 0}";
},
{
name = center;
position = "{393, 343}";
},
{
name = top;
position = "{436, 671}";
}
);
background = {
paths = (
{
closed = 1;
nodes = (
"582 0 LINE",
"703 686 LINE",
"608 686 LINE",
"556 392 LINE",
"182 392 LINE",
"234 686 LINE",
"139 686 LINE",
"18 0 LINE",
"113 0 LINE",
"168 309 LINE",
"542 309 LINE",
"487 0 LINE"
);
}
);
};
layerId = UUID0;
paths = (
{
closed = 1;
nodes = (
"113 0 LINE",
"168 309 LINE",
"542 309 LINE",
"487 0 LINE",
"582 0 LINE",
"703 686 LINE",
"608 686 LINE",
"556 392 LINE",
"182 392 LINE",
"234 686 LINE",
"139 686 LINE",
"18 0 LINE"
);
}
);
width = 722;
},
{
anchors = (
{
name = bottom;
position = "{315, 0}";
},
{
name = center;
position = "{393, 343}";
},
{
name = top;
position = "{436, 671}";
}
);
background = {
paths = (
{
closed = 1;
nodes = (
"597 0 LINE",
"718 686 LINE",
"573 686 LINE",
"525 414 LINE",
"227 414 LINE",
"275 686 LINE",
"130 686 LINE",
"9 0 LINE",
"154 0 LINE",
"205 289 LINE",
"503 289 LINE",
"452 0 LINE"
);
}
);
};
layerId = "515A5158-96A0-47B2-825D-DFEB99868FF8";
paths = (
{
closed = 1;
nodes = (
"154 0 LINE",
"205 289 LINE",
"503 289 LINE",
"452 0 LINE",
"597 0 LINE",
"718 686 LINE",
"573 686 LINE",
"525 414 LINE",
"227 414 LINE",
"275 686 LINE",
"130 686 LINE",
"9 0 LINE"
);
}
);
width = 722;
}
);
unicode = 0048;
},
{
color = 10;
glyphname = Hbar;
lastChange = "2016-07-10 04:41:58 +0000";
layers = (
{
background = {
paths = (
{
closed = 1;
nodes = (
"582 0 LINE",
"675 526 LINE",
"745 526 LINE",
"757 598 LINE",
"687 598 LINE",
"703 686 LINE",
"608 686 LINE",
"592 598 LINE",
"218 598 LINE",
"234 686 LINE",
"139 686 LINE",
"123 598 LINE",
"53 598 LINE",
"41 526 LINE",
"111 526 LINE",
"18 0 LINE",
"113 0 LINE",
"168 309 LINE",
"542 309 LINE",
"487 0 LINE"
);
},
{
closed = 1;
nodes = (
"556 392 LINE",
"182 392 LINE",
"206 526 LINE",
"580 526 LINE"
);
}
);
};
layerId = UUID0;
paths = (
{
closed = 1;
nodes = (
"113 0 LINE",
"168 309 LINE",
"542 309 LINE",
"487 0 LINE",
"582 0 LINE",
"675 526 LINE",
"745 526 LINE",
"757 598 LINE",
"687 598 LINE",
"703 686 LINE",
"608 686 LINE",
"592 598 LINE",
"218 598 LINE",
"234 686 LINE",
"139 686 LINE",
"123 598 LINE",
"53 598 LINE",
"41 526 LINE",
"111 526 LINE",
"18 0 LINE"
);
},
{
closed = 1;
nodes = (
"206 526 LINE",
"580 526 LINE",
"556 392 LINE",
"182 392 LINE"
);
}
);
width = 722;
},
{
background = {
paths = (
{
closed = 1;
nodes = (
"597 0 LINE",
"686 507 LINE",
"746 507 LINE",
"762 598 LINE",
"702 598 LINE",
"718 686 LINE",
"573 686 LINE",
"557 598 LINE",
"259 598 LINE",
"275 686 LINE",
"130 686 LINE",
"114 598 LINE",
"54 598 LINE",
"38 507 LINE",
"98 507 LINE",
"9 0 LINE",
"154 0 LINE",
"205 289 LINE",
"503 289 LINE",
"452 0 LINE"
);
},
{
closed = 1;
nodes = (
"525 414 LINE",
"227 414 LINE",
"243 507 LINE",
"541 507 LINE"
);
}
);
};
layerId = "515A5158-96A0-47B2-825D-DFEB99868FF8";
paths = (
{
closed = 1;
nodes = (
"154 0 LINE",
"205 289 LINE",
"503 289 LINE",
"452 0 LINE",
"597 0 LINE",
"686 507 LINE",
"746 507 LINE",
"762 598 LINE",
"702 598 LINE",
"718 686 LINE",
"573 686 LINE",
"557 598 LINE",
"259 598 LINE",
"275 686 LINE",
"130 686 LINE",
"114 598 LINE",
"54 598 LINE",
"38 507 LINE",
"98 507 LINE",
"9 0 LINE"
);
},
{
closed = 1;
nodes = (
"243 507 LINE",
"541 507 LINE",
"525 414 LINE",
"227 414 LINE"
);
}
);
width = 722;
}
);
unicode = 0126;
},
{
color = 10;
glyphname = Hcircumflex;
lastChange = "2015-02-12 03:01:33 +0000";
layers = (
{
background = {
paths = (
{
closed = 1;
nodes = (
"582 0 LINE",
"703 686 LINE",
"608 686 LINE",
"556 392 LINE",
"182 392 LINE",
"234 686 LINE",
"139 686 LINE",
"18 0 LINE",
"113 0 LINE",
"168 309 LINE",
"542 309 LINE",
"487 0 LINE"
);
},
{
closed = 1;
nodes = (
"573 737 LINE",
"491 872 LINE",
"407 872 LINE",
"278 737 LINE",
"372 737 LINE",
"444 816 LINE",
"487 737 LINE"
);
}
);
};
components = (
{
name = H;
},
{
name = circumflex;
transform = "{1, 0, 0, 1, 288, 145}";
}
);
layerId = UUID0;
width = 722;
},
{
background = {
paths = (
{
closed = 1;
nodes = (
"597 0 LINE",
"718 686 LINE",
"573 686 LINE",
"525 414 LINE",
"227 414 LINE",
"275 686 LINE",
"130 686 LINE",
"9 0 LINE",
"154 0 LINE",
"205 289 LINE",
"503 289 LINE",
"452 0 LINE"
);
},
{
closed = 1;
nodes = (
"594 737 LINE",
"512 872 LINE",
"390 872 LINE",
"262 737 LINE",
"381 737 LINE",
"443 806 LINE",
"488 737 LINE"
);
}
);
};
components = (
{
name = H;
},
{
name = circumflex;
transform = "{1, 0, 0, 1, 285, 145}";
}
);
layerId = "515A5158-96A0-47B2-825D-DFEB99868FF8";
width = 722;
}
);
unicode = 0124;
},
{
color = 10;
glyphname = I;
lastChange = "2015-02-15 18:10:22 +0000";
layers = (
{
anchors = (
{
name = bottom;
position = "{79, 0}";
},
{
name = ogonek;
position = "{204, 10}";
},
{
name = top;
position = "{197, 671}";
}
);
background = {
paths = (
{
closed = 1;
nodes = (
"126 0 LINE",
"247 686 LINE",
"152 686 LINE",
"31 0 LINE"
);
}
);
};
layerId = UUID0;
paths = (
{
closed = 1;
nodes = (
"126 0 LINE",
"247 686 LINE",
"152 686 LINE",
"31 0 LINE"
);
}
);
width = 278;
},
{
anchors = (
{
name = bottom;
position = "{82, 0}";
},
{
name = ogonek;
position = "{204, 10}";
},
{
name = top;
position = "{200, 671}";
}
);
background = {
paths = (
{
closed = 1;
nodes = (
"154 0 LINE",
"275 686 LINE",
"130 686 LINE",
"9 0 LINE"
);
}
);
};
layerId = "515A5158-96A0-47B2-825D-DFEB99868FF8";
paths = (
{
closed = 1;
nodes = (
"154 0 LINE",
"275 686 LINE",
"130 686 LINE",
"9 0 LINE"
);
}
);
width = 278;
}
);
unicode = 0049;
},
{
color = 10;
glyphname = IJ;
lastChange = "2015-02-12 03:01:16 +0000";
layers = (
{
background = {
paths = (
{
closed = 1;
nodes = (
"126 0 LINE",
"247 686 LINE",
"152 686 LINE",
"31 0 LINE"
);
},
{
closed = 1;
nodes = (
"536 194 LINE",
"520 102 OFFCURVE",
"473 69 OFFCURVE",
"402 69 CURVE SMOOTH",
"353 69 OFFCURVE",
"327 96 OFFCURVE",
"327 148 CURVE SMOOTH",
"327 157 OFFCURVE",
"329 180 OFFCURVE",
"336 208 CURVE",
"241 208 LINE",
"233 175 OFFCURVE",
"232 150 OFFCURVE",
"232 135 CURVE SMOOTH",
"232 38 OFFCURVE",
"293 -12 OFFCURVE",
"408 -12 CURVE SMOOTH",
"528 -12 OFFCURVE",
"605 48 OFFCURVE",
"632 199 CURVE SMOOTH",
"718 686 LINE",
"623 686 LINE"
);
}
);
};
components = (
{
name = I;
},
{
name = J;
transform = "{1, 0, 0, 1, 278, 0}";
}
);
layerId = UUID0;
width = 778;
},
{
background = {
paths = (
{
closed = 1;
nodes = (
"154 0 LINE",
"275 686 LINE",
"130 686 LINE",
"9 0 LINE"
);
},
{
closed = 1;
nodes = (
"552 195 LINE",
"543 143 OFFCURVE",
"507 110 OFFCURVE",
"447 110 CURVE SMOOTH",
"390 110 OFFCURVE",
"370 131 OFFCURVE",
"370 175 CURVE SMOOTH",
"370 181 OFFCURVE",
"371 188 OFFCURVE",
"372 195 CURVE SMOOTH",
"380 236 LINE",
"236 236 LINE",
"229 193 LINE SMOOTH",
"226 176 OFFCURVE",
"224 160 OFFCURVE",
"224 145 CURVE SMOOTH",
"224 41 OFFCURVE",
"304 -12 OFFCURVE",
"448 -12 CURVE SMOOTH",
"587 -12 OFFCURVE",
"674 58 OFFCURVE",
"698 193 CURVE SMOOTH",
"785 686 LINE",
"639 686 LINE"
);
}
);
};
components = (
{
name = I;
},
{
name = J;
transform = "{1, 0, 0, 1, 278, 0}";
}
);
layerId = "515A5158-96A0-47B2-825D-DFEB99868FF8";
width = 834;
}
);
unicode = 0132;
},
{
color = 10;
glyphname = Iacute;
lastChange = "2015-02-15 02:42:18 +0000";
layers = (
{
background = {
paths = (
{
closed = 1;
nodes = (
"126 0 LINE",
"247 686 LINE",
"152 686 LINE",
"31 0 LINE"
);
},
{
closed = 1;
nodes = (
"241 737 LINE",
"365 866 LINE",
"364 869 LINE",
"263 869 LINE",
"155 737 LINE"
);
}
);
};
components = (
{
name = I;
},
{
name = acute;
transform = "{1, 0, 0, 1, 102, 145}";
}
);
layerId = UUID0;
width = 278;
},
{
background = {
paths = (
{
closed = 1;
nodes = (
"154 0 LINE",
"275 686 LINE",
"130 686 LINE",
"9 0 LINE"
);
},
{
closed = 1;
nodes = (
"372 866 LINE",
"371 869 LINE",
"233 869 LINE",
"131 737 LINE",
"241 737 LINE"
);
}
);
};
components = (
{
name = I;
},
{
name = acute;
transform = "{1, 0, 0, 1, 98, 145}";
}
);
layerId = "515A5158-96A0-47B2-825D-DFEB99868FF8";
width = 278;
}
);
unicode = 00CD;
},
{
color = 10;
glyphname = Ibreve;
lastChange = "2015-02-15 02:42:18 +0000";
layers = (
{
background = {
paths = (
{
closed = 1;
nodes = (
"126 0 LINE",
"247 686 LINE",
"152 686 LINE",
"31 0 LINE"
);
},
{
closed = 1;
nodes = (
"302 859 LINE",
"295 837 OFFCURVE",
"266 806 OFFCURVE",
"203 806 CURVE SMOOTH",
"142 806 OFFCURVE",
"134 837 OFFCURVE",
"133 859 CURVE",
"72 859 LINE",
"70 851 OFFCURVE",
"70 844 OFFCURVE",
"70 836 CURVE SMOOTH",
"70 788 OFFCURVE",
"101 742 OFFCURVE",
"204 742 CURVE SMOOTH",
"303 742 OFFCURVE",
"353 804 OFFCURVE",
"363 859 CURVE"
);
}
);
};
components = (
{
name = I;
},
{
name = breve;
transform = "{1, 0, 0, 1, 46, 145}";
}
);
layerId = UUID0;
width = 278;
},
{
background = {
paths = (
{
closed = 1;
nodes = (
"154 0 LINE",
"275 686 LINE",
"130 686 LINE",
"9 0 LINE"
);
},
{
closed = 1;
nodes = (
"293 868 LINE",
"286 847 OFFCURVE",
"259 820 OFFCURVE",
"212 820 CURVE SMOOTH",
"164 820 OFFCURVE",
"150 845 OFFCURVE",
"150 868 CURVE",
"60 868 LINE",
"58 860 OFFCURVE",
"58 851 OFFCURVE",
"58 843 CURVE SMOOTH",
"58 785 OFFCURVE",
"96 731 OFFCURVE",
"209 731 CURVE SMOOTH",
"255 731 OFFCURVE",
"292 743 OFFCURVE",
"320 764 CURVE SMOOTH",
"356 791 OFFCURVE",
"376 832 OFFCURVE",
"383 868 CURVE"
);
}
);
};
components = (
{
name = I;
},
{
name = breve;
transform = "{1, 0, 0, 1, 45, 145}";
}
);
layerId = "515A5158-96A0-47B2-825D-DFEB99868FF8";
width = 278;
}
);
unicode = 012C;
},
{
color = 10;
glyphname = Icircumflex;
lastChange = "2015-02-15 02:42:18 +0000";
layers = (
{
background = {
paths = (
{
closed = 1;
nodes = (
"126 0 LINE",
"247 686 LINE",
"152 686 LINE",
"31 0 LINE"
);
},
{
closed = 1;
nodes = (
"351 737 LINE",
"269 872 LINE",
"185 872 LINE",
"56 737 LINE",
"150 737 LINE",
"222 816 LINE",
"265 737 LINE"
);
}
);
};
components = (
{
name = I;
},
{
name = circumflex;
transform = "{1, 0, 0, 1, 49, 145}";
}
);
layerId = UUID0;
width = 278;
},
{
background = {
paths = (
{
closed = 1;
nodes = (
"154 0 LINE",
"275 686 LINE",
"130 686 LINE",
"9 0 LINE"
);
},
{
closed = 1;
nodes = (
"371 737 LINE",
"289 872 LINE",
"167 872 LINE",
"39 737 LINE",
"158 737 LINE",
"220 806 LINE",
"265 737 LINE"
);
}
);
};
components = (
{
name = I;
},
{
name = circumflex;
transform = "{1, 0, 0, 1, 49, 145}";
}
);
layerId = "515A5158-96A0-47B2-825D-DFEB99868FF8";
width = 278;
}
);
unicode = 00CE;
},
{
color = 10;
glyphname = Idieresis;
lastChange = "2015-02-15 02:42:18 +0000";
layers = (
{
background = {
paths = (
{
closed = 1;
nodes = (
"126 0 LINE",
"247 686 LINE",
"152 686 LINE",
"31 0 LINE"
);
},
{
closed = 1;
nodes = (
"157 752 LINE",
"174 847 LINE",
"87 847 LINE",
"70 752 LINE"
);
},
{
closed = 1;
nodes = (
"344 752 LINE",
"361 847 LINE",
"274 847 LINE",
"257 752 LINE"
);
}
);
};
components = (
{
name = I;
},
{
name = dieresis;
transform = "{1, 0, 0, 1, 57, 145}";
}
);
layerId = UUID0;
width = 278;
},
{
background = {
paths = (
{
closed = 1;
nodes = (
"154 0 LINE",
"275 686 LINE",
"130 686 LINE",
"9 0 LINE"
);
},
{
closed = 1;
nodes = (
"164 741 LINE",
"185 859 LINE",
"67 859 LINE",
"47 741 LINE"
);
},
{
closed = 1;
nodes = (
"375 741 LINE",
"396 859 LINE",
"277 859 LINE",
"256 741 LINE"
);
}
);
};
components = (
{
name = I;
},
{
name = dieresis;
transform = "{1, 0, 0, 1, 59, 145}";
}
);
layerId = "515A5158-96A0-47B2-825D-DFEB99868FF8";
width = 278;
}
);
unicode = 00CF;
},
{
color = 10;
glyphname = Idotaccent;
lastChange = "2015-02-15 02:42:18 +0000";
layers = (
{
background = {
paths = (
{
closed = 1;
nodes = (
"126 0 LINE",
"247 686 LINE",
"152 686 LINE",
"31 0 LINE"
);
},
{
closed = 1;
nodes = (
"251 753 LINE",
"268 848 LINE",
"181 848 LINE",
"164 753 LINE"
);
}
);
};
components = (
{
name = I;
},
{
name = dotaccent;
transform = "{1, 0, 0, 1, 57, 145}";
}
);
layerId = UUID0;
width = 278;
},
{
background = {
paths = (
{
closed = 1;
nodes = (
"154 0 LINE",
"275 686 LINE",
"130 686 LINE",
"9 0 LINE"
);
},
{
closed = 1;
nodes = (
"277 735 LINE",
"300 865 LINE",
"165 865 LINE",
"142 735 LINE"
);
}
);
};
components = (
{
name = I;
},
{
name = dotaccent;
transform = "{1, 0, 0, 1, 56, 145}";
}
);
layerId = "515A5158-96A0-47B2-825D-DFEB99868FF8";
width = 278;
}
);
unicode = 0130;
},
{
color = 10;
glyphname = Igrave;
lastChange = "2015-02-15 02:42:18 +0000";
layers = (
{
background = {
paths = (
{
closed = 1;
nodes = (
"126 0 LINE",
"247 686 LINE",
"152 686 LINE",
"31 0 LINE"
);
},
{
closed = 1;
nodes = (
"256 737 LINE",
"193 869 LINE",
"97 869 LINE",
"96 866 LINE",
"181 737 LINE"
);
}
);
};
components = (
{
name = I;
},
{
name = grave;
transform = "{1, 0, 0, 1, 0, 145}";
}
);
layerId = UUID0;
width = 278;
},
{
background = {
paths = (
{
closed = 1;
nodes = (
"154 0 LINE",
"275 686 LINE",
"130 686 LINE",
"9 0 LINE"
);
},
{
closed = 1;
nodes = (
"275 737 LINE",
"219 869 LINE",
"91 869 LINE",
"90 866 LINE",
"175 737 LINE"
);
}
);
};
components = (
{
name = I;
},
{
name = grave;
transform = "{1, 0, 0, 1, -10, 145}";
}
);
layerId = "515A5158-96A0-47B2-825D-DFEB99868FF8";
width = 278;
}
);
unicode = 00CC;
},
{
color = 10;
glyphname = Imacron;
lastChange = "2015-02-15 02:42:18 +0000";
layers = (
{
background = {
paths = (
{
closed = 1;
nodes = (
"352 763 LINE",
"365 835 LINE",
"61 835 LINE",
"48 763 LINE"
);
},
{
closed = 1;
nodes = (
"126 0 LINE",
"247 686 LINE",
"152 686 LINE",
"31 0 LINE"
);
}
);
};
components = (
{
name = I;
}
);
layerId = UUID0;
paths = (
{
closed = 1;
nodes = (
"352 763 LINE",
"365 835 LINE",
"61 835 LINE",
"48 763 LINE"
);
}
);
width = 278;
},
{
background = {
paths = (
{
closed = 1;
nodes = (
"154 0 LINE",
"275 686 LINE",
"130 686 LINE",
"9 0 LINE"
);
},
{
closed = 1;
nodes = (
"357 755 LINE",
"372 843 LINE",
"67 843 LINE",
"52 755 LINE"
);
}
);
};
components = (
{
name = I;
},
{
name = macron;
transform = "{1, 0, 0, 1, 62, 145}";
}
);
layerId = "515A5158-96A0-47B2-825D-DFEB99868FF8";
width = 278;
}
);
unicode = 012A;
},
{
color = 10;
glyphname = Iogonek;
lastChange = "2016-07-10 04:41:58 +0000";
layers = (
{
background = {
paths = (
{
closed = 1;
nodes = (
"130 -117 LINE",
"106 -117 LINE SMOOTH",
"67 -117 OFFCURVE",
"54 -97 OFFCURVE",
"54 -74 CURVE SMOOTH",
"54 -50 OFFCURVE",
"69 -18 OFFCURVE",
"126 0 CURVE",
"247 686 LINE",
"152 686 LINE",
"31 0 LINE",
"-5 -20 OFFCURVE",
"-28 -56 OFFCURVE",
"-28 -102 CURVE SMOOTH",
"-28 -163 OFFCURVE",
"11 -182 OFFCURVE",
"53 -182 CURVE SMOOTH",
"75 -182 OFFCURVE",
"97 -178 OFFCURVE",
"121 -168 CURVE"
);
}
);
};
layerId = UUID0;
paths = (
{
closed = 1;
nodes = (
"75 -182 OFFCURVE",
"97 -178 OFFCURVE",
"121 -168 CURVE",
"130 -117 LINE",
"106 -117 LINE SMOOTH",
"67 -117 OFFCURVE",
"54 -97 OFFCURVE",
"54 -74 CURVE SMOOTH",
"54 -50 OFFCURVE",
"69 -18 OFFCURVE",
"126 0 CURVE",
"247 686 LINE",
"152 686 LINE",
"31 0 LINE",
"-5 -20 OFFCURVE",
"-28 -56 OFFCURVE",
"-28 -102 CURVE SMOOTH",
"-28 -163 OFFCURVE",
"11 -182 OFFCURVE",
"53 -182 CURVE SMOOTH"
);
}
);
width = 278;
},
{
background = {
paths = (
{
closed = 1;
nodes = (
"155 -113 LINE",
"131 -113 LINE SMOOTH",
"102 -113 OFFCURVE",
"91 -96 OFFCURVE",
"91 -75 CURVE SMOOTH",
"91 -46 OFFCURVE",
"109 -18 OFFCURVE",
"127 0 CURVE",
"154 0 LINE",
"275 686 LINE",
"130 686 LINE",
"9 0 LINE",
"36 0 LINE",
"7 -25 OFFCURVE",
"-21 -58 OFFCURVE",
"-21 -105 CURVE SMOOTH",
"-21 -163 OFFCURVE",
"25 -182 OFFCURVE",
"71 -182 CURVE SMOOTH",
"95 -182 OFFCURVE",
"118 -177 OFFCURVE",
"145 -168 CURVE"
);
}
);
};
layerId = "515A5158-96A0-47B2-825D-DFEB99868FF8";
paths = (
{
closed = 1;
nodes = (
"95 -182 OFFCURVE",
"118 -177 OFFCURVE",
"145 -168 CURVE",
"155 -113 LINE",
"131 -113 LINE SMOOTH",
"102 -113 OFFCURVE",
"91 -96 OFFCURVE",
"91 -75 CURVE SMOOTH",
"91 -46 OFFCURVE",
"109 -18 OFFCURVE",
"127 0 CURVE",
"154 0 LINE",
"275 686 LINE",
"130 686 LINE",
"9 0 LINE",
"36 0 LINE",
"7 -25 OFFCURVE",
"-21 -58 OFFCURVE",
"-21 -105 CURVE SMOOTH",
"-21 -163 OFFCURVE",
"25 -182 OFFCURVE",
"71 -182 CURVE SMOOTH"
);
}
);
width = 278;
}
);
unicode = 012E;
},
{
color = 10;
glyphname = Itilde;
lastChange = "2015-02-15 02:42:18 +0000";
layers = (
{
background = {
paths = (
{
closed = 1;
nodes = (
"126 0 LINE",
"247 686 LINE",
"152 686 LINE",
"31 0 LINE"
);
},
{
closed = 1;
nodes = (
"311 852 LINE",
"305 829 OFFCURVE",
"292 821 OFFCURVE",
"277 821 CURVE SMOOTH",
"227 821 OFFCURVE",
"190 852 OFFCURVE",
"134 852 CURVE SMOOTH",
"74 852 OFFCURVE",
"40 804 OFFCURVE",
"31 748 CURVE",
"95 748 LINE",
"101 771 OFFCURVE",
"114 779 OFFCURVE",
"129 779 CURVE SMOOTH",
"179 779 OFFCURVE",
"216 748 OFFCURVE",
"272 748 CURVE SMOOTH",
"332 748 OFFCURVE",
"366 796 OFFCURVE",
"376 852 CURVE"
);
}
);
};
components = (
{
name = I;
},
{
name = tilde;
transform = "{1, 0, 0, 1, 56, 145}";
}
);
layerId = UUID0;
width = 278;
},
{
background = {
paths = (
{
closed = 1;
nodes = (
"154 0 LINE",
"275 686 LINE",
"130 686 LINE",
"9 0 LINE"
);
},
{
closed = 1;
nodes = (
"315 858 LINE",
"306 830 OFFCURVE",
"293 821 OFFCURVE",
"274 821 CURVE SMOOTH",
"227 821 OFFCURVE",
"193 858 OFFCURVE",
"142 858 CURVE SMOOTH",
"75 858 OFFCURVE",
"40 801 OFFCURVE",
"29 736 CURVE",
"98 736 LINE",
"107 763 OFFCURVE",
"120 773 OFFCURVE",
"139 773 CURVE SMOOTH",
"186 773 OFFCURVE",
"220 736 OFFCURVE",
"270 736 CURVE SMOOTH",
"338 736 OFFCURVE",
"374 793 OFFCURVE",
"385 858 CURVE"
);
}
);
};
components = (
{
name = I;
},
{
name = tilde;
transform = "{1, 0, 0, 1, 57, 145}";
}
);
layerId = "515A5158-96A0-47B2-825D-DFEB99868FF8";
width = 278;
}
);
unicode = 0128;
},
{
color = 9;
glyphname = J;
lastChange = "2016-07-10 04:48:07 +0000";
layers = (
{
anchors = (
{
name = bottom;
position = "{204, 0}";
},
{
name = top;
position = "{433, 671}";
}
);
background = {
paths = (
{
closed = 1;
nodes = (
"301 194 LINE",
"285 102 OFFCURVE",
"238 69 OFFCURVE",
"167 69 CURVE SMOOTH",
"118 69 OFFCURVE",
"92 96 OFFCURVE",
"92 148 CURVE SMOOTH",
"92 157 OFFCURVE",
"94 180 OFFCURVE",
"101 208 CURVE",
"6 208 LINE",
"-2 175 OFFCURVE",
"-3 150 OFFCURVE",
"-3 135 CURVE SMOOTH",
"-3 38 OFFCURVE",
"58 -12 OFFCURVE",
"173 -12 CURVE SMOOTH",
"293 -12 OFFCURVE",
"370 48 OFFCURVE",
"397 199 CURVE SMOOTH",
"483 686 LINE",
"388 686 LINE"
);
}
);
};
layerId = UUID0;
paths = (
{
closed = 1;
nodes = (
"293 -12 OFFCURVE",
"370 48 OFFCURVE",
"397 199 CURVE SMOOTH",
"483 686 LINE",
"388 686 LINE",
"301 194 LINE",
"285 102 OFFCURVE",
"238 69 OFFCURVE",
"167 69 CURVE SMOOTH",
"118 69 OFFCURVE",
"92 96 OFFCURVE",
"92 148 CURVE SMOOTH",
"92 157 OFFCURVE",
"94 180 OFFCURVE",
"101 208 CURVE",
"6 208 LINE",
"-2 175 OFFCURVE",
"-3 150 OFFCURVE",
"-3 135 CURVE SMOOTH",
"-3 38 OFFCURVE",
"58 -12 OFFCURVE",
"173 -12 CURVE SMOOTH"
);
}
);
width = 500;
},
{
anchors = (
{
name = bottom;
position = "{232, 0}";
},
{
name = top;
position = "{480, 671}";
}
);
background = {
paths = (
{
closed = 1;
nodes = (
"323 195 LINE",
"314 143 OFFCURVE",
"278 110 OFFCURVE",
"218 110 CURVE SMOOTH",
"161 110 OFFCURVE",
"141 131 OFFCURVE",
"141 175 CURVE SMOOTH",
"141 181 OFFCURVE",
"142 188 OFFCURVE",
"143 195 CURVE SMOOTH",
"151 236 LINE",
"7 236 LINE",
"0 193 LINE SMOOTH",
"-3 176 OFFCURVE",
"-5 160 OFFCURVE",
"-5 145 CURVE SMOOTH",
"-5 41 OFFCURVE",
"75 -12 OFFCURVE",
"219 -12 CURVE SMOOTH",
"358 -12 OFFCURVE",
"445 58 OFFCURVE",
"469 193 CURVE SMOOTH",
"556 686 LINE",
"410 686 LINE"
);
}
);
};
layerId = "515A5158-96A0-47B2-825D-DFEB99868FF8";
paths = (
{
closed = 1;
nodes = (
"358 -12 OFFCURVE",
"445 58 OFFCURVE",
"469 193 CURVE SMOOTH",
"556 686 LINE",
"410 686 LINE",
"323 195 LINE",
"314 143 OFFCURVE",
"278 110 OFFCURVE",
"218 110 CURVE SMOOTH",
"161 110 OFFCURVE",
"141 131 OFFCURVE",
"141 175 CURVE SMOOTH",
"141 183 OFFCURVE",
"143 205 OFFCURVE",
"151 236 CURVE",
"7 236 LINE",
"-2 195 OFFCURVE",
"-5 170 OFFCURVE",
"-5 145 CURVE SMOOTH",
"-5 41 OFFCURVE",
"75 -12 OFFCURVE",
"219 -12 CURVE SMOOTH"
);
}
);
width = 556;
}
);
unicode = 004A;
},
{
color = 9;
glyphname = Jcircumflex;
lastChange = "2015-02-14 23:49:08 +0000";
layers = (
{
background = {
paths = (
{
closed = 1;
nodes = (
"301 194 LINE",
"285 102 OFFCURVE",
"238 69 OFFCURVE",
"167 69 CURVE SMOOTH",
"118 69 OFFCURVE",
"92 96 OFFCURVE",
"92 148 CURVE SMOOTH",
"92 157 OFFCURVE",
"94 180 OFFCURVE",
"101 208 CURVE",
"6 208 LINE",
"-2 175 OFFCURVE",
"-3 150 OFFCURVE",
"-3 135 CURVE SMOOTH",
"-3 38 OFFCURVE",
"58 -12 OFFCURVE",
"173 -12 CURVE SMOOTH",
"293 -12 OFFCURVE",
"370 48 OFFCURVE",
"397 199 CURVE SMOOTH",
"483 686 LINE",
"388 686 LINE"
);
},
{
closed = 1;
nodes = (
"581 748 LINE",
"499 883 LINE",
"415 883 LINE",
"286 748 LINE",
"380 748 LINE",
"452 827 LINE",
"495 748 LINE"
);
}
);
};
components = (
{
name = J;
},
{
name = circumflex;
transform = "{1, 0, 0, 1, 285, 145}";
}
);
layerId = UUID0;
width = 500;
},
{
background = {
paths = (
{
closed = 1;
nodes = (
"323 195 LINE",
"314 143 OFFCURVE",
"278 110 OFFCURVE",
"218 110 CURVE SMOOTH",
"161 110 OFFCURVE",
"141 131 OFFCURVE",
"141 175 CURVE SMOOTH",
"141 181 OFFCURVE",
"142 188 OFFCURVE",
"143 195 CURVE SMOOTH",
"151 236 LINE",
"7 236 LINE",
"0 193 LINE SMOOTH",
"-3 176 OFFCURVE",
"-5 160 OFFCURVE",
"-5 145 CURVE SMOOTH",
"-5 41 OFFCURVE",
"75 -12 OFFCURVE",
"219 -12 CURVE SMOOTH",
"358 -12 OFFCURVE",
"445 58 OFFCURVE",
"469 193 CURVE SMOOTH",
"556 686 LINE",
"410 686 LINE"
);
},
{
closed = 1;
nodes = (
"648 737 LINE",
"566 872 LINE",
"444 872 LINE",
"316 737 LINE",
"435 737 LINE",
"497 806 LINE",
"542 737 LINE"
);
}
);
};
components = (
{
name = J;
},
{
name = circumflex;
transform = "{1, 0, 0, 1, 329, 145}";
}
);
layerId = "515A5158-96A0-47B2-825D-DFEB99868FF8";
width = 556;
}
);
unicode = 0134;
},
{
color = 10;
glyphname = K;
lastChange = "2016-07-10 04:41:58 +0000";
layers = (
{
anchors = (
{
name = bottom;
position = "{288, 0}";
},
{
name = top;
position = "{409, 671}";
}
);
background = {
paths = (
{
closed = 1;
nodes = (
"498 0 LINE",
"603 0 LINE",
"407 411 LINE",
"715 686 LINE",
"591 686 LINE",
"167 308 LINE",
"234 686 LINE",
"139 686 LINE",
"18 0 LINE",
"113 0 LINE",
"147 195 LINE",
"333 346 LINE"
);
}
);
};
layerId = UUID0;
paths = (
{
closed = 1;
nodes = (
"113 0 LINE",
"147 195 LINE",
"333 346 LINE",
"498 0 LINE",
"603 0 LINE",
"407 411 LINE",
"715 686 LINE",
"591 686 LINE",
"167 308 LINE",
"234 686 LINE",
"139 686 LINE",
"18 0 LINE"
);
}
);
width = 667;
},
{
anchors = (
{
name = bottom;
position = "{315, 0}";
},
{
name = top;
position = "{436, 671}";
}
);
background = {
paths = (
{
closed = 1;
nodes = (
"651 0 LINE",
"452 405 LINE",
"768 686 LINE",
"577 686 LINE",
"218 363 LINE",
"275 686 LINE",
"130 686 LINE",
"9 0 LINE",
"154 0 LINE",
"187 186 LINE",
"341 307 LINE",
"487 0 LINE"
);
}
);
};
layerId = "515A5158-96A0-47B2-825D-DFEB99868FF8";
paths = (
{
closed = 1;
nodes = (
"154 0 LINE",
"187 186 LINE",
"341 307 LINE",
"487 0 LINE",
"651 0 LINE",
"452 405 LINE",
"768 686 LINE",
"577 686 LINE",
"218 363 LINE",
"275 686 LINE",
"130 686 LINE",
"9 0 LINE"
);
}
);
width = 722;
}
);
unicode = 004B;
},
{
color = 10;
glyphname = Kcommaaccent;
lastChange = "2015-02-15 02:55:05 +0000";
layers = (
{
background = {
paths = (
{
closed = 1;
nodes = (
"282 -230 LINE",
"341 -142 LINE",
"356 -58 LINE",
"268 -58 LINE",
"252 -149 LINE",
"287 -149 LINE",
"235 -230 LINE"
);
},
{
closed = 1;
nodes = (
"498 0 LINE",
"603 0 LINE",
"407 411 LINE",
"715 686 LINE",
"591 686 LINE",
"167 308 LINE",
"234 686 LINE",
"139 686 LINE",
"18 0 LINE",
"113 0 LINE",
"147 195 LINE",
"333 346 LINE"
);
}
);
};
components = (
{
name = K;
},
{
name = commaaccent;
transform = "{1, 0, 0, 1, 153, 0}";
}
);
layerId = UUID0;
width = 667;
},
{
background = {
paths = (
{
closed = 1;
nodes = (
"294 -250 LINE",
"380 -141 LINE",
"395 -55 LINE",
"257 -55 LINE",
"239 -153 LINE",
"292 -153 LINE",
"222 -250 LINE"
);
},
{
closed = 1;
nodes = (
"651 0 LINE",
"452 405 LINE",
"768 686 LINE",
"577 686 LINE",
"218 363 LINE",
"275 686 LINE",
"130 686 LINE",
"9 0 LINE",
"154 0 LINE",
"187 186 LINE",
"341 307 LINE",
"487 0 LINE"
);
}
);
};
components = (
{
name = K;
},
{
name = commaaccent;
transform = "{1, 0, 0, 1, 125, 0}";
}
);
layerId = "515A5158-96A0-47B2-825D-DFEB99868FF8";
width = 722;
}
);
unicode = 0136;
},
{
color = 9;
glyphname = L;
lastChange = "2015-02-16 21:43:21 +0000";
layers = (
{
anchors = (
{
name = bottom;
position = "{250, 0}";
},
{
name = center;
position = "{310, 343}";
},
{
name = top;
position = "{184, 671}";
},
{
name = topright;
position = "{611, 686}";
}
);
background = {
paths = (
{
closed = 1;
nodes = (
"482 0 LINE",
"497 83 LINE",
"128 83 LINE",
"234 686 LINE",
"139 686 LINE",
"18 0 LINE"
);
}
);
};
layerId = UUID0;
paths = (
{
closed = 1;
nodes = (
"482 0 LINE",
"497 83 LINE",
"128 83 LINE",
"234 686 LINE",
"139 686 LINE",
"18 0 LINE"
);
}
);
width = 556;
},
{
anchors = (
{
name = bottom;
position = "{267, 0}";
},
{
name = center;
position = "{338, 343}";
},
{
name = top;
position = "{200, 671}";
},
{
name = topright;
position = "{666, 686}";
}
);
background = {
paths = (
{
closed = 1;
nodes = (
"524 0 LINE",
"546 126 LINE",
"176 126 LINE",
"275 686 LINE",
"130 686 LINE",
"9 0 LINE"
);
}
);
};
layerId = "515A5158-96A0-47B2-825D-DFEB99868FF8";
paths = (
{
closed = 1;
nodes = (
"524 0 LINE",
"546 126 LINE",
"176 126 LINE",
"275 686 LINE",
"130 686 LINE",
"9 0 LINE"
);
}
);
width = 611;
}
);
rightKerningGroup = L;
unicode = 004C;
},
{
color = 9;
glyphname = Lacute;
lastChange = "2015-02-16 21:43:21 +0000";
layers = (
{
background = {
paths = (
{
closed = 1;
nodes = (
"482 0 LINE",
"497 83 LINE",
"128 83 LINE",
"234 686 LINE",
"139 686 LINE",
"18 0 LINE"
);
},
{
closed = 1;
nodes = (
"226 737 LINE",
"350 866 LINE",
"349 869 LINE",
"248 869 LINE",
"140 737 LINE"
);
}
);
};
components = (
{
name = L;
},
{
anchor = top;
name = acute;
transform = "{1, 0, 0, 1, 89, 145}";
}
);
layerId = UUID0;
width = 556;
},
{
background = {
paths = (
{
closed = 1;
nodes = (
"524 0 LINE",
"546 126 LINE",
"176 126 LINE",
"275 686 LINE",
"130 686 LINE",
"9 0 LINE"
);
},
{
closed = 1;
nodes = (
"375 866 LINE",
"374 869 LINE",
"236 869 LINE",
"134 737 LINE",
"244 737 LINE"
);
}
);
};
components = (
{
name = L;
},
{
anchor = top;
name = acute;
transform = "{1, 0, 0, 1, 98, 145}";
}
);
layerId = "515A5158-96A0-47B2-825D-DFEB99868FF8";
width = 611;
}
);
rightKerningGroup = L;
unicode = 0139;
},
{
color = 10;
glyphname = Lcaron;
lastChange = "2015-02-12 01:37:21 +0000";
layers = (
{
background = {
paths = (
{
closed = 1;
nodes = (
"376 490 LINE",
"437 602 LINE",
"452 686 LINE",
"367 686 LINE",
"351 595 LINE",
"383 595 LINE",
"330 490 LINE"
);
},
{
closed = 1;
nodes = (
"482 0 LINE",
"497 83 LINE",
"128 83 LINE",
"234 686 LINE",
"139 686 LINE",
"18 0 LINE"
);
}
);
};
components = (
{
name = L;
}
);
layerId = UUID0;
paths = (
{
closed = 1;
nodes = (
"376 490 LINE",
"437 602 LINE",
"452 686 LINE",
"367 686 LINE",
"351 595 LINE",
"383 595 LINE",
"330 490 LINE"
);
}
);
width = 556;
},
{
background = {
paths = (
{
closed = 1;
nodes = (
"417 442 LINE",
"506 571 LINE",
"526 686 LINE",
"388 686 LINE",
"366 559 LINE",
"419 559 LINE",
"345 442 LINE"
);
},
{
closed = 1;
nodes = (
"524 0 LINE",
"546 126 LINE",
"176 126 LINE",
"275 686 LINE",
"130 686 LINE",
"9 0 LINE"
);
}
);
};
components = (
{
name = L;
}
);
layerId = "515A5158-96A0-47B2-825D-DFEB99868FF8";
paths = (
{
closed = 1;
nodes = (
"417 442 LINE",
"506 571 LINE",
"526 686 LINE",
"388 686 LINE",
"366 559 LINE",
"419 559 LINE",
"345 442 LINE"
);
}
);
width = 611;
}
);
unicode = 013D;
},
{
color = 10;
glyphname = Lcommaaccent;
lastChange = "2015-02-16 21:43:21 +0000";
layers = (
{
background = {
paths = (
{
closed = 1;
nodes = (
"248 -230 LINE",
"307 -142 LINE",
"322 -58 LINE",
"234 -58 LINE",
"218 -149 LINE",
"253 -149 LINE",
"201 -230 LINE"
);
},
{
closed = 1;
nodes = (
"482 0 LINE",
"497 83 LINE",
"128 83 LINE",
"234 686 LINE",
"139 686 LINE",
"18 0 LINE"
);
}
);
};
components = (
{
name = L;
},
{
name = commaaccent;
transform = "{1, 0, 0, 1, 115, 0}";
}
);
layerId = UUID0;
width = 556;
},
{
background = {
paths = (
{
closed = 1;
nodes = (
"260 -250 LINE",
"346 -141 LINE",
"361 -55 LINE",
"223 -55 LINE",
"205 -153 LINE",
"258 -153 LINE",
"188 -250 LINE"
);
},
{
closed = 1;
nodes = (
"524 0 LINE",
"546 126 LINE",
"176 126 LINE",
"275 686 LINE",
"130 686 LINE",
"9 0 LINE"
);
}
);
};
components = (
{
name = L;
},
{
name = commaaccent;
transform = "{1, 0, 0, 1, 77, 0}";
}
);
layerId = "515A5158-96A0-47B2-825D-DFEB99868FF8";
width = 611;
}
);
rightKerningGroup = L;
unicode = 013B;
},
{
color = 10;
glyphname = Ldot;
lastChange = "2015-02-12 01:37:21 +0000";
layers = (
{
background = {
paths = (
{
closed = 1;
nodes = (
"482 0 LINE",
"497 83 LINE",
"128 83 LINE",
"234 686 LINE",
"139 686 LINE",
"18 0 LINE"
);
},
{
closed = 1;
nodes = (
"416 418 LINE",
"435 526 LINE",
"335 526 LINE",
"316 418 LINE"
);
}
);
};
components = (
{
name = L;
},
{
name = periodcentered;
transform = "{1, 0, 0, 1, 200, 115}";
}
);
layerId = UUID0;
width = 556;
},
{
background = {
paths = (
{
closed = 1;
nodes = (
"524 0 LINE",
"546 126 LINE",
"176 126 LINE",
"275 686 LINE",
"130 686 LINE",
"9 0 LINE"
);
},
{
closed = 1;
nodes = (
"476 389 LINE",
"501 526 LINE",
"363 526 LINE",
"338 389 LINE"
);
}
);
};
components = (
{
name = L;
},
{
name = periodcentered;
transform = "{1, 0, 0, 1, 247, 100}";
}
);
layerId = "515A5158-96A0-47B2-825D-DFEB99868FF8";
width = 611;
}
);
unicode = 013F;
},
{
color = 10;
glyphname = Lslash;
lastChange = "2015-02-12 01:37:21 +0000";
layers = (
{
background = {
paths = (
{
closed = 1;
nodes = (
"482 0 LINE",
"497 83 LINE",
"145 83 LINE",
"188 327 LINE",
"374 438 LINE",
"389 520 LINE",
"202 409 LINE",
"251 686 LINE",
"156 686 LINE",
"96 346 LINE",
"14 297 LINE",
"0 216 LINE",
"82 265 LINE",
"35 0 LINE"
);
}
);
};
layerId = UUID0;
paths = (
{
closed = 1;
nodes = (
"482 0 LINE",
"497 83 LINE",
"145 83 LINE",
"188 327 LINE",
"374 438 LINE",
"389 520 LINE",
"202 409 LINE",
"251 686 LINE",
"156 686 LINE",
"96 346 LINE",
"14 297 LINE",
"0 216 LINE",
"82 265 LINE",
"35 0 LINE"
);
}
);
width = 556;
},
{
background = {
paths = (
{
closed = 1;
nodes = (
"524 0 LINE",
"546 126 LINE",
"176 126 LINE",
"214 342 LINE",
"372 435 LINE",
"390 537 LINE",
"232 444 LINE",
"275 686 LINE",
"130 686 LINE",
"70 348 LINE",
"-3 304 LINE",
"-21 202 LINE",
"52 246 LINE",
"9 0 LINE"
);
}
);
};
layerId = "515A5158-96A0-47B2-825D-DFEB99868FF8";
paths = (
{
closed = 1;
nodes = (
"524 0 LINE",
"546 126 LINE",
"176 126 LINE",
"214 342 LINE",
"372 435 LINE",
"390 537 LINE",
"232 444 LINE",
"275 686 LINE",
"130 686 LINE",
"70 348 LINE",
"-3 304 LINE",
"-21 202 LINE",
"52 246 LINE",
"9 0 LINE"
);
}
);
width = 611;
}
);
unicode = 0141;
},
{
color = 10;
glyphname = M;
lastChange = "2016-07-10 05:07:15 +0000";
layers = (
{
anchors = (
{
name = bottom;
position = "{371, 0}";
},
{
name = top;
position = "{470, 671}";
}
);
background = {
paths = (
{
closed = 1;
nodes = (
"694 0 LINE",
"815 686 LINE",
"668 686 LINE",
"420 218 LINE SMOOTH",
"401 183 OFFCURVE",
"376 115 OFFCURVE",
"376 115 CURVE",
"372 115 LINE",
"372 115 OFFCURVE",
"371 176 OFFCURVE",
"363 218 CURVE SMOOTH",
"278 686 LINE",
"139 686 LINE",
"18 0 LINE",
"107 0 LINE",
"187 453 LINE SMOOTH",
"192 481 OFFCURVE",
"207 581 OFFCURVE",
"207 581 CURVE",
"213 581 LINE",
"213 581 OFFCURVE",
"215 537 OFFCURVE",
"219 515 CURVE SMOOTH",
"312 0 LINE",
"392 0 LINE",
"668 515 LINE SMOOTH",
"682 541 OFFCURVE",
"696 581 OFFCURVE",
"696 581 CURVE",
"703 581 LINE",
"703 581 OFFCURVE",
"682 470 OFFCURVE",
"679 453 CURVE SMOOTH",
"599 0 LINE"
);
}
);
};
layerId = UUID0;
paths = (
{
closed = 1;
nodes = (
"107 0 LINE",
"187 453 LINE SMOOTH",
"192 481 OFFCURVE",
"207 581 OFFCURVE",
"207 581 CURVE",
"213 581 LINE",
"213 581 OFFCURVE",
"215 537 OFFCURVE",
"219 515 CURVE SMOOTH",
"312 0 LINE",
"392 0 LINE",
"668 515 LINE SMOOTH",
"682 541 OFFCURVE",
"696 581 OFFCURVE",
"696 581 CURVE",
"703 581 LINE",
"703 581 OFFCURVE",
"682 470 OFFCURVE",
"679 453 CURVE SMOOTH",
"599 0 LINE",
"694 0 LINE",
"815 686 LINE",
"668 686 LINE",
"420 218 LINE SMOOTH",
"401 183 OFFCURVE",
"376 115 OFFCURVE",
"376 115 CURVE",
"372 115 LINE",
"372 115 OFFCURVE",
"371 176 OFFCURVE",
"363 218 CURVE SMOOTH",
"278 686 LINE",
"139 686 LINE",
"18 0 LINE"
);
}
);
width = 833;
},
{
anchors = (
{
name = bottom;
position = "{371, 0}";
},
{
name = top;
position = "{472, 671}";
}
);
background = {
paths = (
{
closed = 1;
nodes = (
"708 0 LINE",
"829 686 LINE",
"603 686 LINE",
"440 308 LINE SMOOTH",
"423 268 OFFCURVE",
"385 153 OFFCURVE",
"385 153 CURVE",
"380 153 LINE",
"380 153 OFFCURVE",
"379 263 OFFCURVE",
"375 308 CURVE SMOOTH",
"346 686 LINE",
"130 686 LINE",
"9 0 LINE",
"149 0 LINE",
"226 437 LINE SMOOTH",
"231 464 OFFCURVE",
"239 547 OFFCURVE",
"239 547 CURVE",
"244 547 LINE",
"282 0 LINE",
"425 0 LINE",
"660 547 LINE",
"665 547 LINE",
"665 547 OFFCURVE",
"646 468 OFFCURVE",
"640 437 CURVE SMOOTH",
"563 0 LINE"
);
}
);
};
layerId = "515A5158-96A0-47B2-825D-DFEB99868FF8";
paths = (
{
closed = 1;
nodes = (
"149 0 LINE",
"226 437 LINE SMOOTH",
"231 464 OFFCURVE",
"239 547 OFFCURVE",
"239 547 CURVE",
"244 547 LINE",
"246 519 OFFCURVE",
"248 492 OFFCURVE",
"250 464 CURVE SMOOTH",
"282 0 LINE",
"425 0 LINE",
"624 464 LINE SMOOTH",
"636 492 OFFCURVE",
"648 519 OFFCURVE",
"660 547 CURVE",
"665 547 LINE",
"665 547 OFFCURVE",
"646 468 OFFCURVE",
"640 437 CURVE SMOOTH",
"563 0 LINE",
"708 0 LINE",
"829 686 LINE",
"603 686 LINE",
"440 308 LINE SMOOTH",
"423 268 OFFCURVE",
"385 153 OFFCURVE",
"385 153 CURVE",
"380 153 LINE",
"380 153 OFFCURVE",
"379 263 OFFCURVE",
"375 308 CURVE SMOOTH",
"346 686 LINE",
"130 686 LINE",
"9 0 LINE"
);
}
);
width = 833;
}
);
unicode = 004D;
},
{
color = 10;
glyphname = N;
lastChange = "2016-07-10 05:08:03 +0000";
layers = (
{
anchors = (
{
name = bottom;
position = "{315, 0}";
},
{
name = top;
position = "{436, 671}";
}
);
background = {
paths = (
{
closed = 1;
nodes = (
"583 0 LINE",
"704 686 LINE",
"615 686 LINE",
"523 164 LINE",
"519 163 LINE",
"224 686 LINE",
"139 686 LINE",
"18 0 LINE",
"107 0 LINE",
"200 531 LINE",
"205 532 LINE",
"502 0 LINE"
);
}
);
};
layerId = UUID0;
paths = (
{
closed = 1;
nodes = (
"107 0 LINE",
"188 462 LINE",
"192 485 OFFCURVE",
"196 508 OFFCURVE",
"200 531 CURVE",
"205 532 LINE",
"215 514 OFFCURVE",
"226 495 OFFCURVE",
"236 477 CURVE",
"502 0 LINE",
"583 0 LINE",
"704 686 LINE",
"615 686 LINE",
"534 226 LINE",
"530 205 OFFCURVE",
"527 185 OFFCURVE",
"523 164 CURVE",
"519 163 LINE",
"511 178 OFFCURVE",
"502 192 OFFCURVE",
"494 207 CURVE",
"224 686 LINE",
"139 686 LINE",
"18 0 LINE"
);
}
);
width = 722;
},
{
anchors = (
{
name = bottom;
position = "{315, 0}";
},
{
name = top;
position = "{436, 671}";
}
);
background = {
paths = (
{
closed = 1;
nodes = (
"597 0 LINE",
"718 686 LINE",
"577 686 LINE",
"508 292 LINE SMOOTH",
"506 281 OFFCURVE",
"500 234 OFFCURVE",
"500 234 CURVE",
"495 234 LINE",
"495 234 OFFCURVE",
"476 280 OFFCURVE",
"467 298 CURVE SMOOTH",
"271 686 LINE",
"130 686 LINE",
"9 0 LINE",
"150 0 LINE",
"219 394 LINE SMOOTH",
"222 412 OFFCURVE",
"227 454 OFFCURVE",
"227 454 CURVE",
"232 454 LINE",
"232 454 OFFCURVE",
"246 419 OFFCURVE",
"260 391 CURVE SMOOTH",
"456 0 LINE"
);
}
);
};
layerId = "515A5158-96A0-47B2-825D-DFEB99868FF8";
paths = (
{
closed = 1;
nodes = (
"150 0 LINE",
"219 394 LINE SMOOTH",
"222 412 OFFCURVE",
"227 454 OFFCURVE",
"227 454 CURVE",
"232 454 LINE",
"232 454 OFFCURVE",
"246 419 OFFCURVE",
"260 391 CURVE SMOOTH",
"456 0 LINE",
"597 0 LINE",
"718 686 LINE",
"577 686 LINE",
"508 292 LINE SMOOTH",
"506 281 OFFCURVE",
"500 234 OFFCURVE",
"500 234 CURVE",
"495 234 LINE",
"495 234 OFFCURVE",
"476 280 OFFCURVE",
"467 298 CURVE SMOOTH",
"271 686 LINE",
"130 686 LINE",
"9 0 LINE"
);
}
);
width = 722;
}
);
unicode = 004E;
},
{
color = 10;
glyphname = Nacute;
lastChange = "2015-02-12 03:01:33 +0000";
layers = (
{
background = {
paths = (
{
closed = 1;
nodes = (
"583 0 LINE",
"704 686 LINE",
"615 686 LINE",
"523 164 LINE",
"519 163 LINE",
"224 686 LINE",
"139 686 LINE",
"18 0 LINE",
"107 0 LINE",
"200 531 LINE",
"205 532 LINE",
"502 0 LINE"
);
},
{
closed = 1;
nodes = (
"462 737 LINE",
"586 866 LINE",
"585 869 LINE",
"484 869 LINE",
"376 737 LINE"
);
}
);
};
components = (
{
name = N;
},
{
name = acute;
transform = "{1, 0, 0, 1, 341, 145}";
}
);
layerId = UUID0;
width = 722;
},
{
background = {
paths = (
{
closed = 1;
nodes = (
"597 0 LINE",
"718 686 LINE",
"577 686 LINE",
"508 292 LINE SMOOTH",
"506 281 OFFCURVE",
"500 234 OFFCURVE",
"500 234 CURVE",
"495 234 LINE",
"495 234 OFFCURVE",
"476 280 OFFCURVE",
"467 298 CURVE SMOOTH",
"271 686 LINE",
"130 686 LINE",
"9 0 LINE",
"150 0 LINE",
"219 394 LINE SMOOTH",
"222 412 OFFCURVE",
"227 454 OFFCURVE",
"227 454 CURVE",
"232 454 LINE",
"232 454 OFFCURVE",
"246 419 OFFCURVE",
"260 391 CURVE SMOOTH",
"456 0 LINE"
);
},
{
closed = 1;
nodes = (
"615 866 LINE",
"614 869 LINE",
"476 869 LINE",
"374 737 LINE",
"484 737 LINE"
);
}
);
};
components = (
{
name = N;
},
{
name = acute;
transform = "{1, 0, 0, 1, 334, 145}";
}
);
layerId = "515A5158-96A0-47B2-825D-DFEB99868FF8";
width = 722;
}
);
unicode = 0143;
},
{
color = 10;
glyphname = Ncaron;
lastChange = "2015-02-12 03:01:33 +0000";
layers = (
{
background = {
paths = (
{
closed = 1;
nodes = (
"583 0 LINE",
"704 686 LINE",
"615 686 LINE",
"523 164 LINE",
"519 163 LINE",
"224 686 LINE",
"139 686 LINE",
"18 0 LINE",
"107 0 LINE",
"200 531 LINE",
"205 532 LINE",
"502 0 LINE"
);
},
{
closed = 1;
nodes = (
"309 872 LINE",
"391 737 LINE",
"475 737 LINE",
"604 872 LINE",
"510 872 LINE",
"440 793 LINE",
"395 872 LINE"
);
}
);
};
components = (
{
name = N;
},
{
name = caron;
transform = "{1, 0, 0, 1, 293, 145}";
}
);
layerId = UUID0;
width = 722;
},
{
background = {
paths = (
{
closed = 1;
nodes = (
"597 0 LINE",
"718 686 LINE",
"577 686 LINE",
"508 292 LINE SMOOTH",
"506 281 OFFCURVE",
"500 234 OFFCURVE",
"500 234 CURVE",
"495 234 LINE",
"495 234 OFFCURVE",
"476 280 OFFCURVE",
"467 298 CURVE SMOOTH",
"271 686 LINE",
"130 686 LINE",
"9 0 LINE",
"150 0 LINE",
"219 394 LINE SMOOTH",
"222 412 OFFCURVE",
"227 454 OFFCURVE",
"227 454 CURVE",
"232 454 LINE",
"232 454 OFFCURVE",
"246 419 OFFCURVE",
"260 391 CURVE SMOOTH",
"456 0 LINE"
);
},
{
closed = 1;
nodes = (
"496 737 LINE",
"624 872 LINE",
"506 872 LINE",
"444 803 LINE",
"399 872 LINE",
"292 872 LINE",
"374 737 LINE"
);
}
);
};
components = (
{
name = N;
},
{
name = caron;
transform = "{1, 0, 0, 1, 293, 145}";
}
);
layerId = "515A5158-96A0-47B2-825D-DFEB99868FF8";
width = 722;
}
);
unicode = 0147;
},
{
color = 10;
glyphname = Ncommaaccent;
lastChange = "2015-02-15 02:55:18 +0000";
layers = (
{
background = {
paths = (
{
closed = 1;
nodes = (
"287 -230 LINE",
"346 -142 LINE",
"361 -58 LINE",
"273 -58 LINE",
"257 -149 LINE",
"292 -149 LINE",
"240 -230 LINE"
);
},
{
closed = 1;
nodes = (
"583 0 LINE",
"704 686 LINE",
"615 686 LINE",
"523 164 LINE",
"519 163 LINE",
"224 686 LINE",
"139 686 LINE",
"18 0 LINE",
"107 0 LINE",
"200 531 LINE",
"205 532 LINE",
"502 0 LINE"
);
}
);
};
components = (
{
name = N;
},
{
name = commaaccent;
transform = "{1, 0, 0, 1, 180, 0}";
}
);
layerId = UUID0;
width = 722;
},
{
background = {
paths = (
{
closed = 1;
nodes = (
"295 -250 LINE",
"381 -141 LINE",
"396 -55 LINE",
"258 -55 LINE",
"240 -153 LINE",
"293 -153 LINE",
"223 -250 LINE"
);
},
{
closed = 1;
nodes = (
"597 0 LINE",
"718 686 LINE",
"577 686 LINE",
"508 292 LINE SMOOTH",
"506 281 OFFCURVE",
"500 234 OFFCURVE",
"500 234 CURVE",
"495 234 LINE",
"495 234 OFFCURVE",
"476 280 OFFCURVE",
"467 298 CURVE SMOOTH",
"271 686 LINE",
"130 686 LINE",
"9 0 LINE",
"150 0 LINE",
"219 394 LINE SMOOTH",
"222 412 OFFCURVE",
"227 454 OFFCURVE",
"227 454 CURVE",
"232 454 LINE",
"232 454 OFFCURVE",
"246 419 OFFCURVE",
"260 391 CURVE SMOOTH",
"456 0 LINE"
);
}
);
};
components = (
{
name = N;
},
{
name = commaaccent;
transform = "{1, 0, 0, 1, 125, 0}";
}
);
layerId = "515A5158-96A0-47B2-825D-DFEB99868FF8";
width = 722;
}
);
unicode = 0145;
},
{
color = 10;
glyphname = Eng;
lastChange = "2016-07-10 04:41:58 +0000";
layers = (
{
background = {
paths = (
{
closed = 1;
nodes = (
"375 -170 LINE",
"391 -176 OFFCURVE",
"418 -182 OFFCURVE",
"442 -182 CURVE SMOOTH",
"537 -182 OFFCURVE",
"561 -121 OFFCURVE",
"572 -61 CURVE SMOOTH",
"704 686 LINE",
"615 686 LINE",
"523 164 LINE",
"519 163 LINE",
"224 686 LINE",
"139 686 LINE",
"18 0 LINE",
"107 0 LINE",
"200 531 LINE",
"205 532 LINE",
"496 10 LINE",
"483 -65 LINE SMOOTH",
"478 -96 OFFCURVE",
"460 -113 OFFCURVE",
"429 -113 CURVE SMOOTH",
"385 -113 LINE"
);
}
);
};
layerId = UUID0;
paths = (
{
closed = 1;
nodes = (
"537 -182 OFFCURVE",
"561 -121 OFFCURVE",
"572 -61 CURVE SMOOTH",
"704 686 LINE",
"615 686 LINE",
"523 164 LINE",
"519 163 LINE",
"224 686 LINE",
"139 686 LINE",
"18 0 LINE",
"107 0 LINE",
"200 531 LINE",
"205 532 LINE",
"496 10 LINE",
"483 -65 LINE SMOOTH",
"478 -96 OFFCURVE",
"460 -113 OFFCURVE",
"429 -113 CURVE SMOOTH",
"385 -113 LINE",
"375 -170 LINE",
"391 -176 OFFCURVE",
"418 -182 OFFCURVE",
"442 -182 CURVE SMOOTH"
);
}
);
width = 722;
},
{
background = {
paths = (
{
closed = 1;
nodes = (
"337 -166 LINE",
"359 -174 OFFCURVE",
"404 -182 OFFCURVE",
"438 -182 CURVE SMOOTH",
"537 -182 OFFCURVE",
"578 -111 OFFCURVE",
"590 -41 CURVE SMOOTH",
"718 686 LINE",
"577 686 LINE",
"508 292 LINE SMOOTH",
"506 281 OFFCURVE",
"500 234 OFFCURVE",
"500 234 CURVE",
"495 234 LINE",
"495 234 OFFCURVE",
"476 280 OFFCURVE",
"467 298 CURVE SMOOTH",
"271 686 LINE",
"130 686 LINE",
"9 0 LINE",
"150 0 LINE",
"219 394 LINE SMOOTH",
"222 412 OFFCURVE",
"227 454 OFFCURVE",
"227 454 CURVE",
"232 454 LINE",
"232 454 OFFCURVE",
"246 419 OFFCURVE",
"260 391 CURVE SMOOTH",
"456 0 LINE",
"451 -27 LINE SMOOTH",
"446 -55 OFFCURVE",
"429 -70 OFFCURVE",
"401 -70 CURVE SMOOTH",
"353 -70 LINE"
);
}
);
};
layerId = "515A5158-96A0-47B2-825D-DFEB99868FF8";
paths = (
{
closed = 1;
nodes = (
"537 -182 OFFCURVE",
"578 -111 OFFCURVE",
"590 -41 CURVE SMOOTH",
"718 686 LINE",
"577 686 LINE",
"508 292 LINE SMOOTH",
"506 281 OFFCURVE",
"500 234 OFFCURVE",
"500 234 CURVE",
"495 234 LINE",
"495 234 OFFCURVE",
"476 280 OFFCURVE",
"467 298 CURVE SMOOTH",
"271 686 LINE",
"130 686 LINE",
"9 0 LINE",
"150 0 LINE",
"219 394 LINE SMOOTH",
"222 412 OFFCURVE",
"227 454 OFFCURVE",
"227 454 CURVE",
"232 454 LINE",
"232 454 OFFCURVE",
"246 419 OFFCURVE",
"260 391 CURVE SMOOTH",
"456 0 LINE",
"451 -27 LINE SMOOTH",
"446 -55 OFFCURVE",
"429 -70 OFFCURVE",
"401 -70 CURVE SMOOTH",
"353 -70 LINE",
"337 -166 LINE",
"359 -174 OFFCURVE",
"404 -182 OFFCURVE",
"438 -182 CURVE SMOOTH"
);
}
);
width = 722;
}
);
unicode = 014A;
},
{
glyphname = Nhookleft;
lastChange = "2016-07-10 04:41:58 +0000";
layers = (
{
anchors = (
{
name = bottom;
position = "{315, 0}";
},
{
name = top;
position = "{436, 671}";
}
);
layerId = UUID0;
paths = (
{
closed = 1;
nodes = (
"61 -182 OFFCURVE",
"85 -121 OFFCURVE",
"96 -61 CURVE SMOOTH",
"200 531 LINE",
"205 532 LINE",
"502 0 LINE",
"583 0 LINE",
"704 686 LINE",
"615 686 LINE",
"523 164 LINE",
"519 163 LINE",
"224 686 LINE",
"139 686 LINE",
"7 -65 LINE SMOOTH",
"2 -96 OFFCURVE",
"-16 -113 OFFCURVE",
"-47 -113 CURVE SMOOTH",
"-91 -113 LINE",
"-101 -170 LINE",
"-85 -176 OFFCURVE",
"-58 -182 OFFCURVE",
"-34 -182 CURVE SMOOTH"
);
}
);
width = 722;
},
{
anchors = (
{
name = bottom;
position = "{315, 0}";
},
{
name = top;
position = "{436, 671}";
}
);
layerId = "515A5158-96A0-47B2-825D-DFEB99868FF8";
paths = (
{
closed = 1;
nodes = (
"90 -182 OFFCURVE",
"131 -111 OFFCURVE",
"143 -41 CURVE SMOOTH",
"219 394 LINE SMOOTH",
"222 412 OFFCURVE",
"227 454 OFFCURVE",
"227 454 CURVE",
"232 454 LINE",
"232 454 OFFCURVE",
"246 419 OFFCURVE",
"260 391 CURVE SMOOTH",
"456 0 LINE",
"597 0 LINE",
"718 686 LINE",
"577 686 LINE",
"508 292 LINE SMOOTH",
"506 281 OFFCURVE",
"500 234 OFFCURVE",
"500 234 CURVE SMOOTH",
"495 234 LINE SMOOTH",
"495 234 OFFCURVE",
"476 280 OFFCURVE",
"467 298 CURVE SMOOTH",
"271 686 LINE",
"130 686 LINE",
"4 -27 LINE SMOOTH",
"-1 -55 OFFCURVE",
"-18 -70 OFFCURVE",
"-46 -70 CURVE SMOOTH",
"-94 -70 LINE",
"-110 -166 LINE",
"-88 -174 OFFCURVE",
"-43 -182 OFFCURVE",
"-9 -182 CURVE SMOOTH"
);
}
);
width = 722;
}
);
unicode = 019D;
},
{
color = 10;
glyphname = Ntilde;
lastChange = "2015-02-12 03:01:33 +0000";
layers = (
{
background = {
paths = (
{
closed = 1;
nodes = (
"583 0 LINE",
"704 686 LINE",
"615 686 LINE",
"523 164 LINE",
"519 163 LINE",
"224 686 LINE",
"139 686 LINE",
"18 0 LINE",
"107 0 LINE",
"200 531 LINE",
"205 532 LINE",
"502 0 LINE"
);
},
{
closed = 1;
nodes = (
"548 851 LINE",
"542 828 OFFCURVE",
"529 820 OFFCURVE",
"514 820 CURVE SMOOTH",
"464 820 OFFCURVE",
"427 851 OFFCURVE",
"371 851 CURVE SMOOTH",
"311 851 OFFCURVE",
"277 803 OFFCURVE",
"268 747 CURVE",
"332 747 LINE",
"338 770 OFFCURVE",
"351 778 OFFCURVE",
"366 778 CURVE SMOOTH",
"416 778 OFFCURVE",
"453 747 OFFCURVE",
"509 747 CURVE SMOOTH",
"569 747 OFFCURVE",
"603 795 OFFCURVE",
"613 851 CURVE"
);
}
);
};
components = (
{
name = N;
},
{
name = tilde;
transform = "{1, 0, 0, 1, 295, 145}";
}
);
layerId = UUID0;
width = 722;
},
{
background = {
paths = (
{
closed = 1;
nodes = (
"597 0 LINE",
"718 686 LINE",
"577 686 LINE",
"508 292 LINE SMOOTH",
"506 281 OFFCURVE",
"500 234 OFFCURVE",
"500 234 CURVE",
"495 234 LINE",
"495 234 OFFCURVE",
"476 280 OFFCURVE",
"467 298 CURVE SMOOTH",
"271 686 LINE",
"130 686 LINE",
"9 0 LINE",
"150 0 LINE",
"219 394 LINE SMOOTH",
"222 412 OFFCURVE",
"227 454 OFFCURVE",
"227 454 CURVE",
"232 454 LINE",
"232 454 OFFCURVE",
"246 419 OFFCURVE",
"260 391 CURVE SMOOTH",
"456 0 LINE"
);
},
{
closed = 1;
nodes = (
"546 859 LINE",
"537 831 OFFCURVE",
"524 822 OFFCURVE",
"505 822 CURVE SMOOTH",
"458 822 OFFCURVE",
"424 859 OFFCURVE",
"373 859 CURVE SMOOTH",
"306 859 OFFCURVE",
"271 802 OFFCURVE",
"260 737 CURVE",
"329 737 LINE",
"338 764 OFFCURVE",
"351 774 OFFCURVE",
"370 774 CURVE SMOOTH",
"417 774 OFFCURVE",
"451 737 OFFCURVE",
"501 737 CURVE SMOOTH",
"569 737 OFFCURVE",
"605 794 OFFCURVE",
"616 859 CURVE"
);
}
);
};
components = (
{
name = N;
},
{
name = tilde;
transform = "{1, 0, 0, 1, 293, 145}";
}
);
layerId = "515A5158-96A0-47B2-825D-DFEB99868FF8";
width = 722;
}
);
unicode = 00D1;
},
{
color = 9;
glyphname = O;
lastChange = "2015-02-16 21:46:29 +0000";
layers = (
{
anchors = (
{
name = bottom;
position = "{343, 0}";
},
{
name = center;
position = "{421, 343}";
},
{
name = ogonek;
position = "{472, 10}";
},
{
name = top;
position = "{434, 671}";
},
{
name = topright;
position = "{783, 828}";
}
);
background = {
paths = (
{
closed = 1;
nodes = (
"553 -11 OFFCURVE",
"692 111 OFFCURVE",
"731 338 CURVE SMOOTH",
"737 369 OFFCURVE",
"740 401 OFFCURVE",
"740 434 CURVE SMOOTH",
"740 600 OFFCURVE",
"630 698 OFFCURVE",
"444 698.5 CURVE SMOOTH",
"224.452 698.5 OFFCURVE",
"85.156 577.101 OFFCURVE",
"45.734 351.986 CURVE SMOOTH",
"39.882 320.694 OFFCURVE",
"37 289.219 OFFCURVE",
"37 256 CURVE SMOOTH",
"37 88 OFFCURVE",
"147 -11 OFFCURVE",
"334 -10.5 CURVE SMOOTH"
);
},
{
closed = 1;
nodes = (
"209 71 OFFCURVE",
"135 140 OFFCURVE",
"135 256 CURVE SMOOTH",
"135 284.528 OFFCURVE",
"137.46 312.468 OFFCURVE",
"142.161 337.536 CURVE SMOOTH",
"175.325 526.803 OFFCURVE",
"273.811 617.5 OFFCURVE",
"444 617.5 CURVE SMOOTH",
"568 618 OFFCURVE",
"642 550 OFFCURVE",
"642 434 CURVE SMOOTH",
"642 405 OFFCURVE",
"640 378 OFFCURVE",
"635 352 CURVE SMOOTH",
"602 162 OFFCURVE",
"503 71 OFFCURVE",
"334 70.5 CURVE SMOOTH"
);
}
);
};
layerId = UUID0;
paths = (
{
closed = 1;
nodes = (
"553 -11 OFFCURVE",
"692 111 OFFCURVE",
"731 338 CURVE SMOOTH",
"737 369 OFFCURVE",
"740 401 OFFCURVE",
"740 434 CURVE SMOOTH",
"740 600 OFFCURVE",
"630 698 OFFCURVE",
"444 698.5 CURVE SMOOTH",
"224.452 698.5 OFFCURVE",
"85.156 577.101 OFFCURVE",
"45.734 351.986 CURVE SMOOTH",
"39.882 320.694 OFFCURVE",
"37 289.219 OFFCURVE",
"37 256 CURVE SMOOTH",
"37 88 OFFCURVE",
"147 -11 OFFCURVE",
"334 -10.5 CURVE SMOOTH"
);
},
{
closed = 1;
nodes = (
"209 71 OFFCURVE",
"135 140 OFFCURVE",
"135 256 CURVE SMOOTH",
"135 284.528 OFFCURVE",
"137.46 312.468 OFFCURVE",
"142.161 337.536 CURVE SMOOTH",
"175.325 526.803 OFFCURVE",
"273.811 617.5 OFFCURVE",
"444 617.5 CURVE SMOOTH",
"568 618 OFFCURVE",
"642 550 OFFCURVE",
"642 434 CURVE SMOOTH",
"642 405 OFFCURVE",
"640 378 OFFCURVE",
"635 352 CURVE SMOOTH",
"602 162 OFFCURVE",
"503 71 OFFCURVE",
"334 70.5 CURVE SMOOTH"
);
}
);
width = 778;
},
{
anchors = (
{
name = bottom;
position = "{343, 0}";
},
{
name = center;
position = "{421, 343}";
},
{
name = ogonek;
position = "{488, 10}";
},
{
name = top;
position = "{464, 671}";
},
{
name = topright;
position = "{773, 828}";
}
);
background = {
paths = (
{
closed = 1;
nodes = (
"568 -12 OFFCURVE",
"712 127 OFFCURVE",
"741 344 CURVE SMOOTH",
"745 372 OFFCURVE",
"747 400 OFFCURVE",
"747 429 CURVE SMOOTH",
"747 611 OFFCURVE",
"630 698 OFFCURVE",
"432 698 CURVE SMOOTH",
"213 698 OFFCURVE",
"73 562 OFFCURVE",
"40 346 CURVE SMOOTH",
"36 317 OFFCURVE",
"34 287 OFFCURVE",
"34 257 CURVE SMOOTH",
"34 74 OFFCURVE",
"150 -12 OFFCURVE",
"347 -12 CURVE SMOOTH"
);
},
{
closed = 1;
nodes = (
"237 111 OFFCURVE",
"183 168 OFFCURVE",
"183 268 CURVE SMOOTH",
"183 286 OFFCURVE",
"185 306 OFFCURVE",
"194 358 CURVE SMOOTH",
"217 494 OFFCURVE",
"300 575 OFFCURVE",
"433 575 CURVE SMOOTH",
"543 575 OFFCURVE",
"597 517 OFFCURVE",
"597 418 CURVE SMOOTH",
"597 399 OFFCURVE",
"595 379 OFFCURVE",
"586 328 CURVE SMOOTH",
"563 192 OFFCURVE",
"480 111 OFFCURVE",
"345 111 CURVE SMOOTH"
);
}
);
};
layerId = "515A5158-96A0-47B2-825D-DFEB99868FF8";
paths = (
{
closed = 1;
nodes = (
"568 -12 OFFCURVE",
"712 127 OFFCURVE",
"741 344 CURVE SMOOTH",
"745 372 OFFCURVE",
"747 400 OFFCURVE",
"747 429 CURVE SMOOTH",
"747 611 OFFCURVE",
"630 698 OFFCURVE",
"432 698 CURVE SMOOTH",
"213 698 OFFCURVE",
"73 562 OFFCURVE",
"40 346 CURVE SMOOTH",
"36 317 OFFCURVE",
"34 287 OFFCURVE",
"34 257 CURVE SMOOTH",
"34 74 OFFCURVE",
"150 -12 OFFCURVE",
"347 -12 CURVE SMOOTH"
);
},
{
closed = 1;
nodes = (
"237 111 OFFCURVE",
"183 168 OFFCURVE",
"183 268 CURVE SMOOTH",
"183 286 OFFCURVE",
"185 306 OFFCURVE",
"194 358 CURVE SMOOTH",
"217 494 OFFCURVE",
"300 575 OFFCURVE",
"433 575 CURVE SMOOTH",
"543 575 OFFCURVE",
"597 517 OFFCURVE",
"597 418 CURVE SMOOTH",
"597 399 OFFCURVE",
"595 379 OFFCURVE",
"586 328 CURVE SMOOTH",
"563 192 OFFCURVE",
"480 111 OFFCURVE",
"345 111 CURVE SMOOTH"
);
}
);
width = 778;
}
);
leftKerningGroup = O;
rightKerningGroup = O;
unicode = 004F;
},
{
color = 9;
glyphname = Oacute;
lastChange = "2015-02-16 21:46:29 +0000";
layers = (
{
background = {
paths = (
{
closed = 1;
nodes = (
"553 -11 OFFCURVE",
"692 111 OFFCURVE",
"731 338 CURVE SMOOTH",
"737 369 OFFCURVE",
"740 401 OFFCURVE",
"740 434 CURVE SMOOTH",
"740 600 OFFCURVE",
"630 698 OFFCURVE",
"444 698.5 CURVE SMOOTH",
"224.452 698.5 OFFCURVE",
"85.156 577.101 OFFCURVE",
"45.734 351.986 CURVE SMOOTH",
"39.882 320.694 OFFCURVE",
"37 289.219 OFFCURVE",
"37 256 CURVE SMOOTH",
"37 88 OFFCURVE",
"147 -11 OFFCURVE",
"334 -10.5 CURVE SMOOTH"
);
},
{
closed = 1;
nodes = (
"209 71 OFFCURVE",
"135 140 OFFCURVE",
"135 256 CURVE SMOOTH",
"135 284.528 OFFCURVE",
"137.46 312.468 OFFCURVE",
"142.161 337.536 CURVE SMOOTH",
"175.325 526.803 OFFCURVE",
"273.811 617.5 OFFCURVE",
"444 617.5 CURVE SMOOTH",
"568 618 OFFCURVE",
"642 550 OFFCURVE",
"642 434 CURVE SMOOTH",
"642 405 OFFCURVE",
"640 378 OFFCURVE",
"635 352 CURVE SMOOTH",
"602 162 OFFCURVE",
"503 71 OFFCURVE",
"334 70.5 CURVE SMOOTH"
);
},
{
closed = 1;
nodes = (
"488 737 LINE",
"612 866 LINE",
"611 869 LINE",
"510 869 LINE",
"402 737 LINE"
);
}
);
};
components = (
{
name = O;
},
{
anchor = top;
name = acute;
transform = "{1, 0, 0, 1, 339, 145}";
}
);
layerId = UUID0;
width = 778;
},
{
background = {
paths = (
{
closed = 1;
nodes = (
"568 -12 OFFCURVE",
"712 127 OFFCURVE",
"741 344 CURVE SMOOTH",
"745 372 OFFCURVE",
"747 400 OFFCURVE",
"747 429 CURVE SMOOTH",
"747 611 OFFCURVE",
"630 698 OFFCURVE",
"432 698 CURVE SMOOTH",
"213 698 OFFCURVE",
"73 562 OFFCURVE",
"40 346 CURVE SMOOTH",
"36 317 OFFCURVE",
"34 287 OFFCURVE",
"34 257 CURVE SMOOTH",
"34 74 OFFCURVE",
"150 -12 OFFCURVE",
"347 -12 CURVE SMOOTH"
);
},
{
closed = 1;
nodes = (
"237 111 OFFCURVE",
"183 168 OFFCURVE",
"183 268 CURVE SMOOTH",
"183 286 OFFCURVE",
"185 306 OFFCURVE",
"194 358 CURVE SMOOTH",
"217 494 OFFCURVE",
"300 575 OFFCURVE",
"433 575 CURVE SMOOTH",
"543 575 OFFCURVE",
"597 517 OFFCURVE",
"597 418 CURVE SMOOTH",
"597 399 OFFCURVE",
"595 379 OFFCURVE",
"586 328 CURVE SMOOTH",
"563 192 OFFCURVE",
"480 111 OFFCURVE",
"345 111 CURVE SMOOTH"
);
},
{
closed = 1;
nodes = (
"620 866 LINE",
"619 869 LINE",
"481 869 LINE",
"379 737 LINE",
"489 737 LINE"
);
}
);
};
components = (
{
name = O;
},
{
anchor = top;
name = acute;
transform = "{1, 0, 0, 1, 362, 145}";
}
);
layerId = "515A5158-96A0-47B2-825D-DFEB99868FF8";
width = 778;
}
);
leftKerningGroup = O;
rightKerningGroup = O;
unicode = 00D3;
},
{
color = 10;
glyphname = Obreve;
lastChange = "2015-02-16 21:46:29 +0000";
layers = (
{
background = {
paths = (
{
closed = 1;
nodes = (
"553 -11 OFFCURVE",
"692 111 OFFCURVE",
"731 338 CURVE SMOOTH",
"737 369 OFFCURVE",
"740 401 OFFCURVE",
"740 434 CURVE SMOOTH",
"740 600 OFFCURVE",
"630 698 OFFCURVE",
"444 698.5 CURVE SMOOTH",
"224.452 698.5 OFFCURVE",
"85.156 577.101 OFFCURVE",
"45.734 351.986 CURVE SMOOTH",
"39.882 320.694 OFFCURVE",
"37 289.219 OFFCURVE",
"37 256 CURVE SMOOTH",
"37 88 OFFCURVE",
"147 -11 OFFCURVE",
"334 -10.5 CURVE SMOOTH"
);
},
{
closed = 1;
nodes = (
"209 71 OFFCURVE",
"135 140 OFFCURVE",
"135 256 CURVE SMOOTH",
"135 284.528 OFFCURVE",
"137.46 312.468 OFFCURVE",
"142.161 337.536 CURVE SMOOTH",
"175.325 526.803 OFFCURVE",
"273.811 617.5 OFFCURVE",
"444 617.5 CURVE SMOOTH",
"568 618 OFFCURVE",
"642 550 OFFCURVE",
"642 434 CURVE SMOOTH",
"642 405 OFFCURVE",
"640 378 OFFCURVE",
"635 352 CURVE SMOOTH",
"602 162 OFFCURVE",
"503 71 OFFCURVE",
"334 70.5 CURVE SMOOTH"
);
},
{
closed = 1;
nodes = (
"568 860 LINE",
"561 838 OFFCURVE",
"532 807 OFFCURVE",
"469 807 CURVE SMOOTH",
"408 807 OFFCURVE",
"400 838 OFFCURVE",
"399 860 CURVE",
"338 860 LINE",
"336 852 OFFCURVE",
"336 845 OFFCURVE",
"336 837 CURVE SMOOTH",
"336 789 OFFCURVE",
"367 743 OFFCURVE",
"470 743 CURVE SMOOTH",
"569 743 OFFCURVE",
"619 805 OFFCURVE",
"629 860 CURVE"
);
}
);
};
components = (
{
name = O;
},
{
name = breve;
transform = "{1, 0, 0, 1, 283, 145}";
}
);
layerId = UUID0;
width = 778;
},
{
background = {
paths = (
{
closed = 1;
nodes = (
"568 -12 OFFCURVE",
"712 127 OFFCURVE",
"741 344 CURVE SMOOTH",
"745 372 OFFCURVE",
"747 400 OFFCURVE",
"747 429 CURVE SMOOTH",
"747 611 OFFCURVE",
"630 698 OFFCURVE",
"432 698 CURVE SMOOTH",
"213 698 OFFCURVE",
"73 562 OFFCURVE",
"40 346 CURVE SMOOTH",
"36 317 OFFCURVE",
"34 287 OFFCURVE",
"34 257 CURVE SMOOTH",
"34 74 OFFCURVE",
"150 -12 OFFCURVE",
"347 -12 CURVE SMOOTH"
);
},
{
closed = 1;
nodes = (
"237 111 OFFCURVE",
"183 168 OFFCURVE",
"183 268 CURVE SMOOTH",
"183 286 OFFCURVE",
"185 306 OFFCURVE",
"194 358 CURVE SMOOTH",
"217 494 OFFCURVE",
"300 575 OFFCURVE",
"433 575 CURVE SMOOTH",
"543 575 OFFCURVE",
"597 517 OFFCURVE",
"597 418 CURVE SMOOTH",
"597 399 OFFCURVE",
"595 379 OFFCURVE",
"586 328 CURVE SMOOTH",
"563 192 OFFCURVE",
"480 111 OFFCURVE",
"345 111 CURVE SMOOTH"
);
},
{
closed = 1;
nodes = (
"553 868 LINE",
"546 847 OFFCURVE",
"519 820 OFFCURVE",
"472 820 CURVE SMOOTH",
"424 820 OFFCURVE",
"410 845 OFFCURVE",
"410 868 CURVE",
"320 868 LINE",
"318 860 OFFCURVE",
"318 851 OFFCURVE",
"318 843 CURVE SMOOTH",
"318 785 OFFCURVE",
"356 731 OFFCURVE",
"469 731 CURVE SMOOTH",
"515 731 OFFCURVE",
"552 743 OFFCURVE",
"580 764 CURVE SMOOTH",
"616 791 OFFCURVE",
"636 832 OFFCURVE",
"643 868 CURVE"
);
}
);
};
components = (
{
name = O;
},
{
name = breve;
transform = "{1, 0, 0, 1, 309, 145}";
}
);
layerId = "515A5158-96A0-47B2-825D-DFEB99868FF8";
width = 778;
}
);
leftKerningGroup = O;
rightKerningGroup = O;
unicode = 014E;
},
{
color = 10;
glyphname = Ocircumflex;
lastChange = "2015-02-16 21:46:29 +0000";
layers = (
{
background = {
paths = (
{
closed = 1;
nodes = (
"553 -11 OFFCURVE",
"692 111 OFFCURVE",
"731 338 CURVE SMOOTH",
"737 369 OFFCURVE",
"740 401 OFFCURVE",
"740 434 CURVE SMOOTH",
"740 600 OFFCURVE",
"630 698 OFFCURVE",
"444 698.5 CURVE SMOOTH",
"224.452 698.5 OFFCURVE",
"85.156 577.101 OFFCURVE",
"45.734 351.986 CURVE SMOOTH",
"39.882 320.694 OFFCURVE",
"37 289.219 OFFCURVE",
"37 256 CURVE SMOOTH",
"37 88 OFFCURVE",
"147 -11 OFFCURVE",
"334 -10.5 CURVE SMOOTH"
);
},
{
closed = 1;
nodes = (
"209 71 OFFCURVE",
"135 140 OFFCURVE",
"135 256 CURVE SMOOTH",
"135 284.528 OFFCURVE",
"137.46 312.468 OFFCURVE",
"142.161 337.536 CURVE SMOOTH",
"175.325 526.803 OFFCURVE",
"273.811 617.5 OFFCURVE",
"444 617.5 CURVE SMOOTH",
"568 618 OFFCURVE",
"642 550 OFFCURVE",
"642 434 CURVE SMOOTH",
"642 405 OFFCURVE",
"640 378 OFFCURVE",
"635 352 CURVE SMOOTH",
"602 162 OFFCURVE",
"503 71 OFFCURVE",
"334 70.5 CURVE SMOOTH"
);
},
{
closed = 1;
nodes = (
"620 737 LINE",
"538 872 LINE",
"454 872 LINE",
"325 737 LINE",
"419 737 LINE",
"491 816 LINE",
"534 737 LINE"
);
}
);
};
components = (
{
name = O;
},
{
name = circumflex;
transform = "{1, 0, 0, 1, 286, 145}";
}
);
layerId = UUID0;
width = 778;
},
{
background = {
paths = (
{
closed = 1;
nodes = (
"568 -12 OFFCURVE",
"712 127 OFFCURVE",
"741 344 CURVE SMOOTH",
"745 372 OFFCURVE",
"747 400 OFFCURVE",
"747 429 CURVE SMOOTH",
"747 611 OFFCURVE",
"630 698 OFFCURVE",
"432 698 CURVE SMOOTH",
"213 698 OFFCURVE",
"73 562 OFFCURVE",
"40 346 CURVE SMOOTH",
"36 317 OFFCURVE",
"34 287 OFFCURVE",
"34 257 CURVE SMOOTH",
"34 74 OFFCURVE",
"150 -12 OFFCURVE",
"347 -12 CURVE SMOOTH"
);
},
{
closed = 1;
nodes = (
"237 111 OFFCURVE",
"183 168 OFFCURVE",
"183 268 CURVE SMOOTH",
"183 286 OFFCURVE",
"185 306 OFFCURVE",
"194 358 CURVE SMOOTH",
"217 494 OFFCURVE",
"300 575 OFFCURVE",
"433 575 CURVE SMOOTH",
"543 575 OFFCURVE",
"597 517 OFFCURVE",
"597 418 CURVE SMOOTH",
"597 399 OFFCURVE",
"595 379 OFFCURVE",
"586 328 CURVE SMOOTH",
"563 192 OFFCURVE",
"480 111 OFFCURVE",
"345 111 CURVE SMOOTH"
);
},
{
closed = 1;
nodes = (
"630 737 LINE",
"548 872 LINE",
"426 872 LINE",
"298 737 LINE",
"417 737 LINE",
"479 806 LINE",
"524 737 LINE"
);
}
);
};
components = (
{
name = O;
},
{
name = circumflex;
transform = "{1, 0, 0, 1, 313, 145}";
}
);
layerId = "515A5158-96A0-47B2-825D-DFEB99868FF8";
width = 778;
}
);
leftKerningGroup = O;
rightKerningGroup = O;
unicode = 00D4;
},
{
color = 10;
glyphname = Odieresis;
lastChange = "2015-02-16 21:46:29 +0000";
layers = (
{
background = {
paths = (
{
closed = 1;
nodes = (
"553 -11 OFFCURVE",
"692 111 OFFCURVE",
"731 338 CURVE SMOOTH",
"737 369 OFFCURVE",
"740 401 OFFCURVE",
"740 434 CURVE SMOOTH",
"740 600 OFFCURVE",
"630 698 OFFCURVE",
"444 698.5 CURVE SMOOTH",
"224.452 698.5 OFFCURVE",
"85.156 577.101 OFFCURVE",
"45.734 351.986 CURVE SMOOTH",
"39.882 320.694 OFFCURVE",
"37 289.219 OFFCURVE",
"37 256 CURVE SMOOTH",
"37 88 OFFCURVE",
"147 -11 OFFCURVE",
"334 -10.5 CURVE SMOOTH"
);
},
{
closed = 1;
nodes = (
"209 71 OFFCURVE",
"135 140 OFFCURVE",
"135 256 CURVE SMOOTH",
"135 284.528 OFFCURVE",
"137.46 312.468 OFFCURVE",
"142.161 337.536 CURVE SMOOTH",
"175.325 526.803 OFFCURVE",
"273.811 617.5 OFFCURVE",
"444 617.5 CURVE SMOOTH",
"568 618 OFFCURVE",
"642 550 OFFCURVE",
"642 434 CURVE SMOOTH",
"642 405 OFFCURVE",
"640 378 OFFCURVE",
"635 352 CURVE SMOOTH",
"602 162 OFFCURVE",
"503 71 OFFCURVE",
"334 70.5 CURVE SMOOTH"
);
},
{
closed = 1;
nodes = (
"416 752 LINE",
"433 847 LINE",
"346 847 LINE",
"329 752 LINE"
);
},
{
closed = 1;
nodes = (
"603 752 LINE",
"620 847 LINE",
"533 847 LINE",
"516 752 LINE"
);
}
);
};
components = (
{
name = O;
},
{
name = dieresis;
transform = "{1, 0, 0, 1, 294, 145}";
}
);
layerId = UUID0;
width = 778;
},
{
background = {
paths = (
{
closed = 1;
nodes = (
"568 -12 OFFCURVE",
"712 127 OFFCURVE",
"741 344 CURVE SMOOTH",
"745 372 OFFCURVE",
"747 400 OFFCURVE",
"747 429 CURVE SMOOTH",
"747 611 OFFCURVE",
"630 698 OFFCURVE",
"432 698 CURVE SMOOTH",
"213 698 OFFCURVE",
"73 562 OFFCURVE",
"40 346 CURVE SMOOTH",
"36 317 OFFCURVE",
"34 287 OFFCURVE",
"34 257 CURVE SMOOTH",
"34 74 OFFCURVE",
"150 -12 OFFCURVE",
"347 -12 CURVE SMOOTH"
);
},
{
closed = 1;
nodes = (
"237 111 OFFCURVE",
"183 168 OFFCURVE",
"183 268 CURVE SMOOTH",
"183 286 OFFCURVE",
"185 306 OFFCURVE",
"194 358 CURVE SMOOTH",
"217 494 OFFCURVE",
"300 575 OFFCURVE",
"433 575 CURVE SMOOTH",
"543 575 OFFCURVE",
"597 517 OFFCURVE",
"597 418 CURVE SMOOTH",
"597 399 OFFCURVE",
"595 379 OFFCURVE",
"586 328 CURVE SMOOTH",
"563 192 OFFCURVE",
"480 111 OFFCURVE",
"345 111 CURVE SMOOTH"
);
},
{
closed = 1;
nodes = (
"412 741 LINE",
"433 859 LINE",
"315 859 LINE",
"295 741 LINE"
);
},
{
closed = 1;
nodes = (
"623 741 LINE",
"644 859 LINE",
"525 859 LINE",
"504 741 LINE"
);
}
);
};
components = (
{
name = O;
},
{
name = dieresis;
transform = "{1, 0, 0, 1, 323, 145}";
}
);
layerId = "515A5158-96A0-47B2-825D-DFEB99868FF8";
width = 778;
}
);
leftKerningGroup = O;
rightKerningGroup = O;
unicode = 00D6;
},
{
color = 9;
glyphname = Ograve;
lastChange = "2015-02-16 21:46:29 +0000";
layers = (
{
background = {
paths = (
{
closed = 1;
nodes = (
"553 -11 OFFCURVE",
"692 111 OFFCURVE",
"731 338 CURVE SMOOTH",
"737 369 OFFCURVE",
"740 401 OFFCURVE",
"740 434 CURVE SMOOTH",
"740 600 OFFCURVE",
"630 698 OFFCURVE",
"444 698.5 CURVE SMOOTH",
"224.452 698.5 OFFCURVE",
"85.156 577.101 OFFCURVE",
"45.734 351.986 CURVE SMOOTH",
"39.882 320.694 OFFCURVE",
"37 289.219 OFFCURVE",
"37 256 CURVE SMOOTH",
"37 88 OFFCURVE",
"147 -11 OFFCURVE",
"334 -10.5 CURVE SMOOTH"
);
},
{
closed = 1;
nodes = (
"209 71 OFFCURVE",
"135 140 OFFCURVE",
"135 256 CURVE SMOOTH",
"135 284.528 OFFCURVE",
"137.46 312.468 OFFCURVE",
"142.161 337.536 CURVE SMOOTH",
"175.325 526.803 OFFCURVE",
"273.811 617.5 OFFCURVE",
"444 617.5 CURVE SMOOTH",
"568 618 OFFCURVE",
"642 550 OFFCURVE",
"642 434 CURVE SMOOTH",
"642 405 OFFCURVE",
"640 378 OFFCURVE",
"635 352 CURVE SMOOTH",
"602 162 OFFCURVE",
"503 71 OFFCURVE",
"334 70.5 CURVE SMOOTH"
);
},
{
closed = 1;
nodes = (
"522 737 LINE",
"459 869 LINE",
"363 869 LINE",
"362 866 LINE",
"447 737 LINE"
);
}
);
};
components = (
{
name = O;
},
{
anchor = top;
name = grave;
transform = "{1, 0, 0, 1, 237, 145}";
}
);
layerId = UUID0;
width = 778;
},
{
background = {
paths = (
{
closed = 1;
nodes = (
"568 -12 OFFCURVE",
"712 127 OFFCURVE",
"741 344 CURVE SMOOTH",
"745 372 OFFCURVE",
"747 400 OFFCURVE",
"747 429 CURVE SMOOTH",
"747 611 OFFCURVE",
"630 698 OFFCURVE",
"432 698 CURVE SMOOTH",
"213 698 OFFCURVE",
"73 562 OFFCURVE",
"40 346 CURVE SMOOTH",
"36 317 OFFCURVE",
"34 287 OFFCURVE",
"34 257 CURVE SMOOTH",
"34 74 OFFCURVE",
"150 -12 OFFCURVE",
"347 -12 CURVE SMOOTH"
);
},
{
closed = 1;
nodes = (
"237 111 OFFCURVE",
"183 168 OFFCURVE",
"183 268 CURVE SMOOTH",
"183 286 OFFCURVE",
"185 306 OFFCURVE",
"194 358 CURVE SMOOTH",
"217 494 OFFCURVE",
"300 575 OFFCURVE",
"433 575 CURVE SMOOTH",
"543 575 OFFCURVE",
"597 517 OFFCURVE",
"597 418 CURVE SMOOTH",
"597 399 OFFCURVE",
"595 379 OFFCURVE",
"586 328 CURVE SMOOTH",
"563 192 OFFCURVE",
"480 111 OFFCURVE",
"345 111 CURVE SMOOTH"
);
},
{
closed = 1;
nodes = (
"515 737 LINE",
"459 869 LINE",
"331 869 LINE",
"330 866 LINE",
"415 737 LINE"
);
}
);
};
components = (
{
name = O;
},
{
anchor = top;
name = grave;
transform = "{1, 0, 0, 1, 254, 145}";
}
);
layerId = "515A5158-96A0-47B2-825D-DFEB99868FF8";
width = 778;
}
);
leftKerningGroup = O;
rightKerningGroup = O;
unicode = 00D2;
},
{
color = 10;
glyphname = Ohungarumlaut;
lastChange = "2015-02-16 21:46:29 +0000";
layers = (
{
background = {
paths = (
{
closed = 1;
nodes = (
"553 -11 OFFCURVE",
"692 111 OFFCURVE",
"731 338 CURVE SMOOTH",
"737 369 OFFCURVE",
"740 401 OFFCURVE",
"740 434 CURVE SMOOTH",
"740 600 OFFCURVE",
"630 698 OFFCURVE",
"444 698.5 CURVE SMOOTH",
"224.452 698.5 OFFCURVE",
"85.156 577.101 OFFCURVE",
"45.734 351.986 CURVE SMOOTH",
"39.882 320.694 OFFCURVE",
"37 289.219 OFFCURVE",
"37 256 CURVE SMOOTH",
"37 88 OFFCURVE",
"147 -11 OFFCURVE",
"334 -10.5 CURVE SMOOTH"
);
},
{
closed = 1;
nodes = (
"209 71 OFFCURVE",
"135 140 OFFCURVE",
"135 256 CURVE SMOOTH",
"135 284.528 OFFCURVE",
"137.46 312.468 OFFCURVE",
"142.161 337.536 CURVE SMOOTH",
"175.325 526.803 OFFCURVE",
"273.811 617.5 OFFCURVE",
"444 617.5 CURVE SMOOTH",
"568 618 OFFCURVE",
"642 550 OFFCURVE",
"642 434 CURVE SMOOTH",
"642 405 OFFCURVE",
"640 378 OFFCURVE",
"635 352 CURVE SMOOTH",
"602 162 OFFCURVE",
"503 71 OFFCURVE",
"334 70.5 CURVE SMOOTH"
);
},
{
closed = 1;
nodes = (
"411 737 LINE",
"518 866 LINE",
"517 869 LINE",
"416 869 LINE",
"331 737 LINE"
);
},
{
closed = 1;
nodes = (
"554 737 LINE",
"661 866 LINE",
"660 869 LINE",
"559 869 LINE",
"474 737 LINE"
);
}
);
};
components = (
{
name = O;
},
{
name = hungarumlaut;
transform = "{1, 0, 0, 1, 319, 145}";
}
);
layerId = UUID0;
width = 778;
},
{
background = {
paths = (
{
closed = 1;
nodes = (
"568 -12 OFFCURVE",
"712 127 OFFCURVE",
"741 344 CURVE SMOOTH",
"745 372 OFFCURVE",
"747 400 OFFCURVE",
"747 429 CURVE SMOOTH",
"747 611 OFFCURVE",
"630 698 OFFCURVE",
"432 698 CURVE SMOOTH",
"213 698 OFFCURVE",
"73 562 OFFCURVE",
"40 346 CURVE SMOOTH",
"36 317 OFFCURVE",
"34 287 OFFCURVE",
"34 257 CURVE SMOOTH",
"34 74 OFFCURVE",
"150 -12 OFFCURVE",
"347 -12 CURVE SMOOTH"
);
},
{
closed = 1;
nodes = (
"237 111 OFFCURVE",
"183 168 OFFCURVE",
"183 268 CURVE SMOOTH",
"183 286 OFFCURVE",
"185 306 OFFCURVE",
"194 358 CURVE SMOOTH",
"217 494 OFFCURVE",
"300 575 OFFCURVE",
"433 575 CURVE SMOOTH",
"543 575 OFFCURVE",
"597 517 OFFCURVE",
"597 418 CURVE SMOOTH",
"597 399 OFFCURVE",
"595 379 OFFCURVE",
"586 328 CURVE SMOOTH",
"563 192 OFFCURVE",
"480 111 OFFCURVE",
"345 111 CURVE SMOOTH"
);
},
{
closed = 1;
nodes = (
"532 866 LINE",
"531 869 LINE",
"394 869 LINE",
"293 737 LINE",
"401 737 LINE"
);
},
{
closed = 1;
nodes = (
"711 866 LINE",
"710 869 LINE",
"573 869 LINE",
"471 737 LINE",
"580 737 LINE"
);
}
);
};
components = (
{
name = O;
},
{
name = hungarumlaut;
transform = "{1, 0, 0, 1, 340, 145}";
}
);
layerId = "515A5158-96A0-47B2-825D-DFEB99868FF8";
width = 778;
}
);
leftKerningGroup = O;
rightKerningGroup = O;
unicode = 0150;
},
{
color = 10;
glyphname = Omacron;
lastChange = "2015-02-16 21:46:29 +0000";
layers = (
{
background = {
paths = (
{
closed = 1;
nodes = (
"617 763 LINE",
"630 835 LINE",
"325 835 LINE",
"312 763 LINE"
);
},
{
closed = 1;
nodes = (
"553 -11 OFFCURVE",
"692 111 OFFCURVE",
"731 338 CURVE SMOOTH",
"737 369 OFFCURVE",
"740 401 OFFCURVE",
"740 434 CURVE SMOOTH",
"740 600 OFFCURVE",
"630 698 OFFCURVE",
"444 698.5 CURVE SMOOTH",
"224.452 698.5 OFFCURVE",
"85.156 577.101 OFFCURVE",
"45.734 351.986 CURVE SMOOTH",
"39.882 320.694 OFFCURVE",
"37 289.219 OFFCURVE",
"37 256 CURVE SMOOTH",
"37 88 OFFCURVE",
"147 -11 OFFCURVE",
"334 -10.5 CURVE SMOOTH"
);
},
{
closed = 1;
nodes = (
"209 71 OFFCURVE",
"135 140 OFFCURVE",
"135 256 CURVE SMOOTH",
"135 284.528 OFFCURVE",
"137.46 312.468 OFFCURVE",
"142.161 337.536 CURVE SMOOTH",
"175.325 526.803 OFFCURVE",
"273.811 617.5 OFFCURVE",
"444 617.5 CURVE SMOOTH",
"568 618 OFFCURVE",
"642 550 OFFCURVE",
"642 434 CURVE SMOOTH",
"642 405 OFFCURVE",
"640 378 OFFCURVE",
"635 352 CURVE SMOOTH",
"602 162 OFFCURVE",
"503 71 OFFCURVE",
"334 70.5 CURVE SMOOTH"
);
}
);
};
components = (
{
name = O;
}
);
layerId = UUID0;
paths = (
{
closed = 1;
nodes = (
"617 763 LINE",
"630 835 LINE",
"325 835 LINE",
"312 763 LINE"
);
}
);
width = 778;
},
{
background = {
paths = (
{
closed = 1;
nodes = (
"568 -12 OFFCURVE",
"712 127 OFFCURVE",
"741 344 CURVE SMOOTH",
"745 372 OFFCURVE",
"747 400 OFFCURVE",
"747 429 CURVE SMOOTH",
"747 611 OFFCURVE",
"630 698 OFFCURVE",
"432 698 CURVE SMOOTH",
"213 698 OFFCURVE",
"73 562 OFFCURVE",
"40 346 CURVE SMOOTH",
"36 317 OFFCURVE",
"34 287 OFFCURVE",
"34 257 CURVE SMOOTH",
"34 74 OFFCURVE",
"150 -12 OFFCURVE",
"347 -12 CURVE SMOOTH"
);
},
{
closed = 1;
nodes = (
"237 111 OFFCURVE",
"183 168 OFFCURVE",
"183 268 CURVE SMOOTH",
"183 286 OFFCURVE",
"185 306 OFFCURVE",
"194 358 CURVE SMOOTH",
"217 494 OFFCURVE",
"300 575 OFFCURVE",
"433 575 CURVE SMOOTH",
"543 575 OFFCURVE",
"597 517 OFFCURVE",
"597 418 CURVE SMOOTH",
"597 399 OFFCURVE",
"595 379 OFFCURVE",
"586 328 CURVE SMOOTH",
"563 192 OFFCURVE",
"480 111 OFFCURVE",
"345 111 CURVE SMOOTH"
);
},
{
closed = 1;
nodes = (
"610 755 LINE",
"625 843 LINE",
"320 843 LINE",
"305 755 LINE"
);
}
);
};
components = (
{
name = O;
},
{
name = macron;
transform = "{1, 0, 0, 1, 326, 145}";
}
);
layerId = "515A5158-96A0-47B2-825D-DFEB99868FF8";
width = 778;
}
);
leftKerningGroup = O;
rightKerningGroup = O;
unicode = 014C;
},
{
color = 10;
glyphname = Oslash;
lastChange = "2016-07-10 04:41:58 +0000";
layers = (
{
anchors = (
{
name = top;
position = "{464, 671}";
}
);
background = {
paths = (
{
closed = 1;
nodes = (
"92 -49 LINE",
"156 25 LINE",
"203 0 OFFCURVE",
"264 -12 OFFCURVE",
"336 -12 CURVE SMOOTH",
"575 -12 OFFCURVE",
"740 163 OFFCURVE",
"740 436 CURVE SMOOTH",
"740 516 OFFCURVE",
"717 578 OFFCURVE",
"673 622 CURVE",
"771 735 LINE",
"687 735 LINE",
"621 659 LINE",
"574 685 OFFCURVE",
"513 698 OFFCURVE",
"441 698 CURVE SMOOTH",
"201 698 OFFCURVE",
"38 521 OFFCURVE",
"38 248 CURVE SMOOTH",
"38 167 OFFCURVE",
"61 106 OFFCURVE",
"105 63 CURVE",
"8 -49 LINE"
);
},
{
closed = 1;
nodes = (
"137 481 OFFCURVE",
"262 617 OFFCURVE",
"447 617 CURVE SMOOTH",
"493 617 OFFCURVE",
"532 609 OFFCURVE",
"563 592 CURVE",
"168 136 LINE",
"147 165 OFFCURVE",
"137 205 OFFCURVE",
"137 258 CURVE SMOOTH"
);
},
{
closed = 1;
nodes = (
"284 69 OFFCURVE",
"246 76 OFFCURVE",
"215 93 CURVE",
"610 549 LINE",
"631 519 OFFCURVE",
"642 479 OFFCURVE",
"642 426 CURVE SMOOTH",
"642 203 OFFCURVE",
"514 69 OFFCURVE",
"330 69 CURVE SMOOTH"
);
}
);
};
layerId = UUID0;
paths = (
{
closed = 1;
nodes = (
"92 -49 LINE",
"156 25 LINE",
"203 0 OFFCURVE",
"264 -12 OFFCURVE",
"336 -12 CURVE SMOOTH",
"575 -12 OFFCURVE",
"740 163 OFFCURVE",
"740 436 CURVE SMOOTH",
"740 516 OFFCURVE",
"717 578 OFFCURVE",
"673 622 CURVE",
"771 735 LINE",
"687 735 LINE",
"621 659 LINE",
"574 685 OFFCURVE",
"513 698 OFFCURVE",
"441 698 CURVE SMOOTH",
"201 698 OFFCURVE",
"38 521 OFFCURVE",
"38 248 CURVE SMOOTH",
"38 167 OFFCURVE",
"61 106 OFFCURVE",
"105 63 CURVE",
"8 -49 LINE"
);
},
{
closed = 1;
nodes = (
"147 165 OFFCURVE",
"137 205 OFFCURVE",
"137 258 CURVE SMOOTH",
"137 481 OFFCURVE",
"262 617 OFFCURVE",
"447 617 CURVE SMOOTH",
"493 617 OFFCURVE",
"532 609 OFFCURVE",
"563 592 CURVE",
"168 136 LINE"
);
},
{
closed = 1;
nodes = (
"284 69 OFFCURVE",
"246 76 OFFCURVE",
"215 93 CURVE",
"610 549 LINE",
"631 519 OFFCURVE",
"642 479 OFFCURVE",
"642 426 CURVE SMOOTH",
"642 203 OFFCURVE",
"514 69 OFFCURVE",
"330 69 CURVE SMOOTH"
);
}
);
width = 778;
},
{
anchors = (
{
name = top;
position = "{464, 671}";
}
);
background = {
paths = (
{
closed = 1;
nodes = (
"72 -49 LINE",
"147 32 LINE",
"198 2 OFFCURVE",
"266 -12 OFFCURVE",
"347 -12 CURVE SMOOTH",
"466 -12 OFFCURVE",
"562 28 OFFCURVE",
"629 97 CURVE SMOOTH",
"708 179 OFFCURVE",
"747 300 OFFCURVE",
"747 429 CURVE SMOOTH",
"747 507 OFFCURVE",
"725 567 OFFCURVE",
"685 611 CURVE",
"801 735 LINE",
"707 735 LINE",
"631 654 LINE",
"580 683 OFFCURVE",
"512 698 OFFCURVE",
"432 698 CURVE SMOOTH",
"327 698 OFFCURVE",
"239 667 OFFCURVE",
"175 611 CURVE SMOOTH",
"81 529 OFFCURVE",
"34 398 OFFCURVE",
"34 257 CURVE SMOOTH",
"34 179 OFFCURVE",
"55 119 OFFCURVE",
"94 75 CURVE",
"-22 -49 LINE"
);
},
{
closed = 1;
nodes = (
"581 499 LINE",
"592 476 OFFCURVE",
"597 449 OFFCURVE",
"597 418 CURVE SMOOTH",
"597 399 OFFCURVE",
"595 379 OFFCURVE",
"586 328 CURVE SMOOTH",
"562 192 OFFCURVE",
"477 111 OFFCURVE",
"339 111 CURVE SMOOTH",
"299 111 OFFCURVE",
"267 119 OFFCURVE",
"243 135 CURVE"
);
},
{
closed = 1;
nodes = (
"198 187 LINE",
"188 210 OFFCURVE",
"183 237 OFFCURVE",
"183 268 CURVE SMOOTH",
"183 286 OFFCURVE",
"185 306 OFFCURVE",
"194 358 CURVE SMOOTH",
"218 494 OFFCURVE",
"303 575 OFFCURVE",
"440 575 CURVE SMOOTH",
"479 575 OFFCURVE",
"511 567 OFFCURVE",
"536 551 CURVE"
);
}
);
};
layerId = "515A5158-96A0-47B2-825D-DFEB99868FF8";
paths = (
{
closed = 1;
nodes = (
"72 -49 LINE",
"147 32 LINE",
"198 2 OFFCURVE",
"266 -12 OFFCURVE",
"347 -12 CURVE SMOOTH",
"466 -12 OFFCURVE",
"562 28 OFFCURVE",
"629 97 CURVE SMOOTH",
"708 179 OFFCURVE",
"747 300 OFFCURVE",
"747 429 CURVE SMOOTH",
"747 507 OFFCURVE",
"725 567 OFFCURVE",
"685 611 CURVE",
"801 735 LINE",
"707 735 LINE",
"631 654 LINE",
"580 683 OFFCURVE",
"512 698 OFFCURVE",
"432 698 CURVE SMOOTH",
"327 698 OFFCURVE",
"239 667 OFFCURVE",
"175 611 CURVE SMOOTH",
"81 529 OFFCURVE",
"34 398 OFFCURVE",
"34 257 CURVE SMOOTH",
"34 179 OFFCURVE",
"55 119 OFFCURVE",
"94 75 CURVE",
"-22 -49 LINE"
);
},
{
closed = 1;
nodes = (
"299 111 OFFCURVE",
"267 119 OFFCURVE",
"243 135 CURVE",
"581 499 LINE",
"592 476 OFFCURVE",
"597 449 OFFCURVE",
"597 418 CURVE SMOOTH",
"597 399 OFFCURVE",
"595 379 OFFCURVE",
"586 328 CURVE SMOOTH",
"562 192 OFFCURVE",
"477 111 OFFCURVE",
"339 111 CURVE SMOOTH"
);
},
{
closed = 1;
nodes = (
"188 210 OFFCURVE",
"183 237 OFFCURVE",
"183 268 CURVE SMOOTH",
"183 286 OFFCURVE",
"185 306 OFFCURVE",
"194 358 CURVE SMOOTH",
"218 494 OFFCURVE",
"303 575 OFFCURVE",
"440 575 CURVE SMOOTH",
"479 575 OFFCURVE",
"511 567 OFFCURVE",
"536 551 CURVE",
"198 187 LINE"
);
}
);
width = 778;
}
);
unicode = 00D8;
},
{
color = 10;
glyphname = Oslashacute;
lastChange = "2016-07-10 04:41:55 +0000";
layers = (
{
background = {
paths = (
{
closed = 1;
nodes = (
"92 -49 LINE",
"156 25 LINE",
"203 0 OFFCURVE",
"264 -12 OFFCURVE",
"336 -12 CURVE SMOOTH",
"575 -12 OFFCURVE",
"740 163 OFFCURVE",
"740 436 CURVE SMOOTH",
"740 516 OFFCURVE",
"717 578 OFFCURVE",
"673 622 CURVE",
"771 735 LINE",
"687 735 LINE",
"621 659 LINE",
"574 685 OFFCURVE",
"513 698 OFFCURVE",
"441 698 CURVE SMOOTH",
"201 698 OFFCURVE",
"38 521 OFFCURVE",
"38 248 CURVE SMOOTH",
"38 167 OFFCURVE",
"61 106 OFFCURVE",
"105 63 CURVE",
"8 -49 LINE"
);
},
{
closed = 1;
nodes = (
"137 481 OFFCURVE",
"262 617 OFFCURVE",
"447 617 CURVE SMOOTH",
"493 617 OFFCURVE",
"532 609 OFFCURVE",
"563 592 CURVE",
"168 136 LINE",
"147 165 OFFCURVE",
"137 205 OFFCURVE",
"137 258 CURVE SMOOTH"
);
},
{
closed = 1;
nodes = (
"284 69 OFFCURVE",
"246 76 OFFCURVE",
"215 93 CURVE",
"610 549 LINE",
"631 519 OFFCURVE",
"642 479 OFFCURVE",
"642 426 CURVE SMOOTH",
"642 203 OFFCURVE",
"514 69 OFFCURVE",
"330 69 CURVE SMOOTH"
);
},
{
closed = 1;
nodes = (
"460 737 LINE",
"591 866 LINE",
"590 869 LINE",
"490 869 LINE",
"381 737 LINE"
);
}
);
};
layerId = UUID0;
paths = (
{
closed = 1;
nodes = (
"92 -49 LINE",
"156 25 LINE",
"203 0 OFFCURVE",
"264 -12 OFFCURVE",
"336 -12 CURVE SMOOTH",
"575 -12 OFFCURVE",
"740 163 OFFCURVE",
"740 436 CURVE SMOOTH",
"740 516 OFFCURVE",
"717 578 OFFCURVE",
"673 622 CURVE",
"771 735 LINE",
"687 735 LINE",
"621 659 LINE",
"574 685 OFFCURVE",
"513 698 OFFCURVE",
"441 698 CURVE SMOOTH",
"201 698 OFFCURVE",
"38 521 OFFCURVE",
"38 248 CURVE SMOOTH",
"38 167 OFFCURVE",
"61 106 OFFCURVE",
"105 63 CURVE",
"8 -49 LINE"
);
},
{
closed = 1;
nodes = (
"147 165 OFFCURVE",
"137 205 OFFCURVE",
"137 258 CURVE SMOOTH",
"137 481 OFFCURVE",
"262 617 OFFCURVE",
"447 617 CURVE SMOOTH",
"493 617 OFFCURVE",
"532 609 OFFCURVE",
"563 592 CURVE",
"168 136 LINE"
);
},
{
closed = 1;
nodes = (
"284 69 OFFCURVE",
"246 76 OFFCURVE",
"215 93 CURVE",
"610 549 LINE",
"631 519 OFFCURVE",
"642 479 OFFCURVE",
"642 426 CURVE SMOOTH",
"642 203 OFFCURVE",
"514 69 OFFCURVE",
"330 69 CURVE SMOOTH"
);
},
{
closed = 1;
nodes = (
"460 737 LINE",
"591 866 LINE",
"590 869 LINE",
"490 869 LINE",
"381 737 LINE"
);
}
);
width = 778;
},
{
background = {
paths = (
{
closed = 1;
nodes = (
"613 866 LINE",
"612 869 LINE",
"474 869 LINE",
"372 737 LINE",
"482 737 LINE"
);
},
{
closed = 1;
nodes = (
"72 -49 LINE",
"147 32 LINE",
"198 2 OFFCURVE",
"266 -12 OFFCURVE",
"347 -12 CURVE SMOOTH",
"466 -12 OFFCURVE",
"562 28 OFFCURVE",
"629 97 CURVE SMOOTH",
"708 179 OFFCURVE",
"747 300 OFFCURVE",
"747 429 CURVE SMOOTH",
"747 507 OFFCURVE",
"725 567 OFFCURVE",
"685 611 CURVE",
"801 735 LINE",
"707 735 LINE",
"631 654 LINE",
"580 683 OFFCURVE",
"512 698 OFFCURVE",
"432 698 CURVE SMOOTH",
"327 698 OFFCURVE",
"239 667 OFFCURVE",
"175 611 CURVE SMOOTH",
"81 529 OFFCURVE",
"34 398 OFFCURVE",
"34 257 CURVE SMOOTH",
"34 179 OFFCURVE",
"55 119 OFFCURVE",
"94 75 CURVE",
"-22 -49 LINE"
);
},
{
closed = 1;
nodes = (
"581 499 LINE",
"592 476 OFFCURVE",
"597 449 OFFCURVE",
"597 418 CURVE SMOOTH",
"597 399 OFFCURVE",
"595 379 OFFCURVE",
"586 328 CURVE SMOOTH",
"562 192 OFFCURVE",
"477 111 OFFCURVE",
"339 111 CURVE SMOOTH",
"299 111 OFFCURVE",
"267 119 OFFCURVE",
"243 135 CURVE"
);
},
{
closed = 1;
nodes = (
"198 187 LINE",
"188 210 OFFCURVE",
"183 237 OFFCURVE",
"183 268 CURVE SMOOTH",
"183 286 OFFCURVE",
"185 306 OFFCURVE",
"194 358 CURVE SMOOTH",
"218 494 OFFCURVE",
"303 575 OFFCURVE",
"440 575 CURVE SMOOTH",
"479 575 OFFCURVE",
"511 567 OFFCURVE",
"536 551 CURVE"
);
}
);
};
components = (
{
name = acute;
transform = "{1, 0, 0, 1, 314, 146}";
},
{
name = Oslash;
}
);
layerId = "515A5158-96A0-47B2-825D-DFEB99868FF8";
width = 778;
}
);
unicode = 01FE;
},
{
color = 10;
glyphname = Otilde;
lastChange = "2015-02-16 21:46:29 +0000";
layers = (
{
background = {
paths = (
{
closed = 1;
nodes = (
"553 -11 OFFCURVE",
"692 111 OFFCURVE",
"731 338 CURVE SMOOTH",
"737 369 OFFCURVE",
"740 401 OFFCURVE",
"740 434 CURVE SMOOTH",
"740 600 OFFCURVE",
"630 698 OFFCURVE",
"444 698.5 CURVE SMOOTH",
"224.452 698.5 OFFCURVE",
"85.156 577.101 OFFCURVE",
"45.734 351.986 CURVE SMOOTH",
"39.882 320.694 OFFCURVE",
"37 289.219 OFFCURVE",
"37 256 CURVE SMOOTH",
"37 88 OFFCURVE",
"147 -11 OFFCURVE",
"334 -10.5 CURVE SMOOTH"
);
},
{
closed = 1;
nodes = (
"209 71 OFFCURVE",
"135 140 OFFCURVE",
"135 256 CURVE SMOOTH",
"135 284.528 OFFCURVE",
"137.46 312.468 OFFCURVE",
"142.161 337.536 CURVE SMOOTH",
"175.325 526.803 OFFCURVE",
"273.811 617.5 OFFCURVE",
"444 617.5 CURVE SMOOTH",
"568 618 OFFCURVE",
"642 550 OFFCURVE",
"642 434 CURVE SMOOTH",
"642 405 OFFCURVE",
"640 378 OFFCURVE",
"635 352 CURVE SMOOTH",
"602 162 OFFCURVE",
"503 71 OFFCURVE",
"334 70.5 CURVE SMOOTH"
);
},
{
closed = 1;
nodes = (
"584 852 LINE",
"578 829 OFFCURVE",
"565 821 OFFCURVE",
"550 821 CURVE SMOOTH",
"500 821 OFFCURVE",
"463 852 OFFCURVE",
"407 852 CURVE SMOOTH",
"347 852 OFFCURVE",
"313 804 OFFCURVE",
"304 748 CURVE",
"368 748 LINE",
"374 771 OFFCURVE",
"387 779 OFFCURVE",
"402 779 CURVE SMOOTH",
"452 779 OFFCURVE",
"489 748 OFFCURVE",
"545 748 CURVE SMOOTH",
"605 748 OFFCURVE",
"639 796 OFFCURVE",
"649 852 CURVE"
);
}
);
};
components = (
{
name = O;
},
{
name = tilde;
transform = "{1, 0, 0, 1, 293, 145}";
}
);
layerId = UUID0;
width = 778;
},
{
background = {
paths = (
{
closed = 1;
nodes = (
"568 -12 OFFCURVE",
"712 127 OFFCURVE",
"741 344 CURVE SMOOTH",
"745 372 OFFCURVE",
"747 400 OFFCURVE",
"747 429 CURVE SMOOTH",
"747 611 OFFCURVE",
"630 698 OFFCURVE",
"432 698 CURVE SMOOTH",
"213 698 OFFCURVE",
"73 562 OFFCURVE",
"40 346 CURVE SMOOTH",
"36 317 OFFCURVE",
"34 287 OFFCURVE",
"34 257 CURVE SMOOTH",
"34 74 OFFCURVE",
"150 -12 OFFCURVE",
"347 -12 CURVE SMOOTH"
);
},
{
closed = 1;
nodes = (
"237 111 OFFCURVE",
"183 168 OFFCURVE",
"183 268 CURVE SMOOTH",
"183 286 OFFCURVE",
"185 306 OFFCURVE",
"194 358 CURVE SMOOTH",
"217 494 OFFCURVE",
"300 575 OFFCURVE",
"433 575 CURVE SMOOTH",
"543 575 OFFCURVE",
"597 517 OFFCURVE",
"597 418 CURVE SMOOTH",
"597 399 OFFCURVE",
"595 379 OFFCURVE",
"586 328 CURVE SMOOTH",
"563 192 OFFCURVE",
"480 111 OFFCURVE",
"345 111 CURVE SMOOTH"
);
},
{
closed = 1;
nodes = (
"586 859 LINE",
"577 831 OFFCURVE",
"564 822 OFFCURVE",
"545 822 CURVE SMOOTH",
"498 822 OFFCURVE",
"464 859 OFFCURVE",
"413 859 CURVE SMOOTH",
"346 859 OFFCURVE",
"311 802 OFFCURVE",
"300 737 CURVE",
"369 737 LINE",
"378 764 OFFCURVE",
"391 774 OFFCURVE",
"410 774 CURVE SMOOTH",
"457 774 OFFCURVE",
"491 737 OFFCURVE",
"541 737 CURVE SMOOTH",
"609 737 OFFCURVE",
"645 794 OFFCURVE",
"656 859 CURVE"
);
}
);
};
components = (
{
name = O;
},
{
name = tilde;
transform = "{1, 0, 0, 1, 321, 145}";
}
);
layerId = "515A5158-96A0-47B2-825D-DFEB99868FF8";
width = 778;
}
);
leftKerningGroup = O;
rightKerningGroup = O;
unicode = 00D5;
},
{
color = 10;
glyphname = OE;
lastChange = "2016-07-10 04:41:58 +0000";
layers = (
{
anchors = (
{
name = top;
position = "{575, 671}";
}
);
background = {
paths = (
{
closed = 1;
nodes = (
"886 0 LINE",
"900 80 LINE",
"557 80 LINE",
"598 311 LINE",
"879 311 LINE",
"893 391 LINE",
"612 391 LINE",
"650 606 LINE",
"986 606 LINE",
"1000 686 LINE",
"569 686 LINE",
"556 610 LINE",
"519 668 OFFCURVE",
"459 698 OFFCURVE",
"375 698 CURVE SMOOTH",
"208 698 OFFCURVE",
"89 581 OFFCURVE",
"49 343 CURVE SMOOTH",
"42 301 OFFCURVE",
"38 263 OFFCURVE",
"38 229 CURVE SMOOTH",
"38 67 OFFCURVE",
"122 -12 OFFCURVE",
"270 -12 CURVE SMOOTH",
"345 -12 OFFCURVE",
"409 17 OFFCURVE",
"461 76 CURVE",
"448 0 LINE"
);
},
{
closed = 1;
nodes = (
"189 69 OFFCURVE",
"136 115 OFFCURVE",
"136 234 CURVE SMOOTH",
"136 265 OFFCURVE",
"140 301 OFFCURVE",
"147 343 CURVE SMOOTH",
"181 539 OFFCURVE",
"257 617 OFFCURVE",
"375 617 CURVE SMOOTH",
"465 617 OFFCURVE",
"520 575 OFFCURVE",
"520 452 CURVE SMOOTH",
"520 421 OFFCURVE",
"516 385 OFFCURVE",
"509 343 CURVE SMOOTH",
"473 142 OFFCURVE",
"394 69 OFFCURVE",
"287 69 CURVE SMOOTH"
);
}
);
};
layerId = UUID0;
paths = (
{
closed = 1;
nodes = (
"345 -12 OFFCURVE",
"409 17 OFFCURVE",
"461 76 CURVE",
"448 0 LINE",
"886 0 LINE",
"900 80 LINE",
"557 80 LINE",
"598 311 LINE",
"879 311 LINE",
"893 391 LINE",
"612 391 LINE",
"650 606 LINE",
"986 606 LINE",
"1000 686 LINE",
"569 686 LINE",
"556 610 LINE",
"519 668 OFFCURVE",
"459 698 OFFCURVE",
"375 698 CURVE SMOOTH",
"208 698 OFFCURVE",
"89 581 OFFCURVE",
"49 343 CURVE SMOOTH",
"42 301 OFFCURVE",
"38 263 OFFCURVE",
"38 229 CURVE SMOOTH",
"38 67 OFFCURVE",
"122 -12 OFFCURVE",
"270 -12 CURVE SMOOTH"
);
},
{
closed = 1;
nodes = (
"189 69 OFFCURVE",
"136 115 OFFCURVE",
"136 234 CURVE SMOOTH",
"136 265 OFFCURVE",
"140 301 OFFCURVE",
"147 343 CURVE SMOOTH",
"181 539 OFFCURVE",
"257 617 OFFCURVE",
"375 617 CURVE SMOOTH",
"465 617 OFFCURVE",
"520 575 OFFCURVE",
"520 452 CURVE SMOOTH",
"520 421 OFFCURVE",
"516 385 OFFCURVE",
"509 343 CURVE SMOOTH",
"473 142 OFFCURVE",
"394 69 OFFCURVE",
"287 69 CURVE SMOOTH"
);
}
);
width = 1000;
},
{
anchors = (
{
name = top;
position = "{575, 671}";
}
);
background = {
paths = (
{
closed = 1;
nodes = (
"884 0 LINE",
"906 123 LINE",
"596 123 LINE",
"625 289 LINE",
"885 289 LINE",
"907 412 LINE",
"647 412 LINE",
"673 563 LINE",
"977 563 LINE",
"999 686 LINE",
"550 686 LINE",
"540 632 LINE",
"498 677 OFFCURVE",
"439 698 OFFCURVE",
"360 698 CURVE SMOOTH",
"199 698 OFFCURVE",
"80 575 OFFCURVE",
"42 343 CURVE SMOOTH",
"35 303 OFFCURVE",
"31 266 OFFCURVE",
"31 232 CURVE SMOOTH",
"31 72 OFFCURVE",
"114 -12 OFFCURVE",
"260 -12 CURVE SMOOTH",
"325 -12 OFFCURVE",
"385 9 OFFCURVE",
"438 53 CURVE",
"429 0 LINE"
);
},
{
closed = 1;
nodes = (
"217 111 OFFCURVE",
"181 156 OFFCURVE",
"181 248 CURVE SMOOTH",
"181 276 OFFCURVE",
"185 307 OFFCURVE",
"191 343 CURVE SMOOTH",
"219 499 OFFCURVE",
"277 575 OFFCURVE",
"388 575 CURVE SMOOTH",
"457 575 OFFCURVE",
"499 535 OFFCURVE",
"499 434 CURVE SMOOTH",
"499 408 OFFCURVE",
"496 378 OFFCURVE",
"490 343 CURVE SMOOTH",
"459 173 OFFCURVE",
"390 111 OFFCURVE",
"297 111 CURVE SMOOTH"
);
}
);
};
layerId = "515A5158-96A0-47B2-825D-DFEB99868FF8";
paths = (
{
closed = 1;
nodes = (
"325 -12 OFFCURVE",
"385 9 OFFCURVE",
"438 53 CURVE",
"429 0 LINE",
"884 0 LINE",
"906 123 LINE",
"596 123 LINE",
"625 289 LINE",
"885 289 LINE",
"907 412 LINE",
"647 412 LINE",
"673 563 LINE",
"977 563 LINE",
"999 686 LINE",
"550 686 LINE",
"540 632 LINE",
"498 677 OFFCURVE",
"439 698 OFFCURVE",
"360 698 CURVE SMOOTH",
"199 698 OFFCURVE",
"80 575 OFFCURVE",
"42 343 CURVE SMOOTH",
"35 303 OFFCURVE",
"31 266 OFFCURVE",
"31 232 CURVE SMOOTH",
"31 72 OFFCURVE",
"114 -12 OFFCURVE",
"260 -12 CURVE SMOOTH"
);
},
{
closed = 1;
nodes = (
"217 111 OFFCURVE",
"181 156 OFFCURVE",
"181 248 CURVE SMOOTH",
"181 276 OFFCURVE",
"185 307 OFFCURVE",
"191 343 CURVE SMOOTH",
"219 499 OFFCURVE",
"277 575 OFFCURVE",
"388 575 CURVE SMOOTH",
"457 575 OFFCURVE",
"499 535 OFFCURVE",
"499 434 CURVE SMOOTH",
"499 408 OFFCURVE",
"496 378 OFFCURVE",
"490 343 CURVE SMOOTH",
"459 173 OFFCURVE",
"390 111 OFFCURVE",
"297 111 CURVE SMOOTH"
);
}
);
width = 1000;
}
);
leftKerningGroup = O;
unicode = 0152;
},
{
color = 10;
glyphname = P;
lastChange = "2016-07-10 04:41:58 +0000";
layers = (
{
anchors = (
{
name = bottom;
position = "{288, 0}";
},
{
name = top;
position = "{409, 671}";
}
);
background = {
paths = (
{
closed = 1;
nodes = (
"113 0 LINE",
"159 263 LINE",
"408 263 LINE SMOOTH",
"547 263 OFFCURVE",
"653 364 OFFCURVE",
"653 506 CURVE SMOOTH",
"653 614 OFFCURVE",
"591 686 OFFCURVE",
"463 686 CURVE SMOOTH",
"139 686 LINE",
"18 0 LINE"
);
},
{
closed = 1;
nodes = (
"174 346 LINE",
"219 603 LINE",
"453 603 LINE SMOOTH",
"522 603 OFFCURVE",
"556 565 OFFCURVE",
"556 499 CURVE SMOOTH",
"556 405 OFFCURVE",
"490 346 OFFCURVE",
"408 346 CURVE SMOOTH"
);
}
);
};
layerId = UUID0;
paths = (
{
closed = 1;
nodes = (
"113 0 LINE",
"159 263 LINE",
"408 263 LINE SMOOTH",
"547 263 OFFCURVE",
"653 364 OFFCURVE",
"653 506 CURVE SMOOTH",
"653 614 OFFCURVE",
"591 686 OFFCURVE",
"463 686 CURVE SMOOTH",
"139 686 LINE",
"18 0 LINE"
);
},
{
closed = 1;
nodes = (
"219 603 LINE",
"453 603 LINE SMOOTH",
"522 603 OFFCURVE",
"556 565 OFFCURVE",
"556 499 CURVE SMOOTH",
"556 405 OFFCURVE",
"490 346 OFFCURVE",
"408 346 CURVE SMOOTH",
"174 346 LINE"
);
}
);
width = 667;
},
{
anchors = (
{
name = bottom;
position = "{288, 0}";
},
{
name = top;
position = "{409, 671}";
}
);
background = {
paths = (
{
closed = 1;
nodes = (
"154 0 LINE",
"196 236 LINE",
"368 236 LINE SMOOTH",
"544 236 OFFCURVE",
"653 328 OFFCURVE",
"653 495 CURVE SMOOTH",
"653 615 OFFCURVE",
"583 686 OFFCURVE",
"397 686 CURVE SMOOTH",
"130 686 LINE",
"9 0 LINE"
);
},
{
closed = 1;
nodes = (
"217 359 LINE",
"253 563 LINE",
"402 563 LINE SMOOTH",
"474 563 OFFCURVE",
"504 532 OFFCURVE",
"504 477 CURVE SMOOTH",
"504 398 OFFCURVE",
"447 359 OFFCURVE",
"366 359 CURVE SMOOTH"
);
}
);
};
layerId = "515A5158-96A0-47B2-825D-DFEB99868FF8";
paths = (
{
closed = 1;
nodes = (
"154 0 LINE",
"196 236 LINE",
"368 236 LINE SMOOTH",
"544 236 OFFCURVE",
"653 328 OFFCURVE",
"653 495 CURVE SMOOTH",
"653 615 OFFCURVE",
"583 686 OFFCURVE",
"397 686 CURVE SMOOTH",
"130 686 LINE",
"9 0 LINE"
);
},
{
closed = 1;
nodes = (
"253 563 LINE",
"402 563 LINE SMOOTH",
"474 563 OFFCURVE",
"504 532 OFFCURVE",
"504 477 CURVE SMOOTH",
"504 398 OFFCURVE",
"447 359 OFFCURVE",
"366 359 CURVE SMOOTH",
"217 359 LINE"
);
}
);
width = 667;
}
);
unicode = 0050;
},
{
color = 10;
glyphname = Thorn;
lastChange = "2016-07-10 04:41:58 +0000";
layers = (
{
background = {
paths = (
{
closed = 1;
nodes = (
"113 0 LINE",
"138 144 LINE",
"387 144 LINE SMOOTH",
"526 144 OFFCURVE",
"632 245 OFFCURVE",
"632 387 CURVE SMOOTH",
"632 495 OFFCURVE",
"570 567 OFFCURVE",
"442 567 CURVE SMOOTH",
"213 567 LINE",
"234 686 LINE",
"139 686 LINE",
"18 0 LINE"
);
},
{
closed = 1;
nodes = (
"432 484 LINE",
"501 484 OFFCURVE",
"535 446 OFFCURVE",
"535 380 CURVE SMOOTH",
"535 286 OFFCURVE",
"469 227 OFFCURVE",
"387 227 CURVE SMOOTH",
"153 227 LINE",
"198 484 LINE"
);
}
);
};
layerId = UUID0;
paths = (
{
closed = 1;
nodes = (
"113 0 LINE",
"138 144 LINE",
"387 144 LINE SMOOTH",
"526 144 OFFCURVE",
"632 245 OFFCURVE",
"632 387 CURVE SMOOTH",
"632 495 OFFCURVE",
"570 567 OFFCURVE",
"442 567 CURVE SMOOTH",
"213 567 LINE",
"234 686 LINE",
"139 686 LINE",
"18 0 LINE"
);
},
{
closed = 1;
nodes = (
"198 484 LINE",
"432 484 LINE",
"501 484 OFFCURVE",
"535 446 OFFCURVE",
"535 380 CURVE SMOOTH",
"535 286 OFFCURVE",
"469 227 OFFCURVE",
"387 227 CURVE SMOOTH",
"153 227 LINE"
);
}
);
width = 667;
},
{
background = {
paths = (
{
closed = 1;
nodes = (
"349 129 LINE",
"525 129 OFFCURVE",
"634 221 OFFCURVE",
"634 388 CURVE SMOOTH",
"634 508 OFFCURVE",
"564 579 OFFCURVE",
"378 579 CURVE SMOOTH",
"256 579 LINE",
"275 686 LINE",
"130 686 LINE",
"9 0 LINE",
"154 0 LINE",
"177 129 LINE"
);
},
{
closed = 1;
nodes = (
"198 252 LINE",
"234 456 LINE",
"383 456 LINE SMOOTH",
"455 456 OFFCURVE",
"485 425 OFFCURVE",
"485 370 CURVE SMOOTH",
"485 291 OFFCURVE",
"428 252 OFFCURVE",
"347 252 CURVE SMOOTH"
);
}
);
};
layerId = "515A5158-96A0-47B2-825D-DFEB99868FF8";
paths = (
{
closed = 1;
nodes = (
"154 0 LINE",
"177 129 LINE",
"349 129 LINE",
"525 129 OFFCURVE",
"634 221 OFFCURVE",
"634 388 CURVE SMOOTH",
"634 508 OFFCURVE",
"564 579 OFFCURVE",
"378 579 CURVE SMOOTH",
"256 579 LINE",
"275 686 LINE",
"130 686 LINE",
"9 0 LINE"
);
},
{
closed = 1;
nodes = (
"234 456 LINE",
"383 456 LINE SMOOTH",
"455 456 OFFCURVE",
"485 425 OFFCURVE",
"485 370 CURVE SMOOTH",
"485 291 OFFCURVE",
"428 252 OFFCURVE",
"347 252 CURVE SMOOTH",
"198 252 LINE"
);
}
);
width = 667;
}
);
unicode = 00DE;
},
{
color = 10;
glyphname = Q;
lastChange = "2016-07-10 05:09:21 +0000";
layers = (
{
anchors = (
{
name = bottom;
position = "{343, 0}";
},
{
name = top;
position = "{464, 671}";
}
);
background = {
paths = (
{
closed = 1;
nodes = (
"352 -12 OFFCURVE",
"370 -11 OFFCURVE",
"386 -9 CURVE",
"486 -130 LINE",
"607 -130 LINE",
"484 13 LINE",
"640 70 OFFCURVE",
"740 224 OFFCURVE",
"740 436 CURVE SMOOTH",
"740 611 OFFCURVE",
"631 698 OFFCURVE",
"441 698 CURVE SMOOTH",
"201 698 OFFCURVE",
"38 521 OFFCURVE",
"38 248 CURVE SMOOTH",
"38 74 OFFCURVE",
"147 -12 OFFCURVE",
"336 -12 CURVE SMOOTH"
);
},
{
closed = 1;
nodes = (
"209 69 OFFCURVE",
"137 123 OFFCURVE",
"137 258 CURVE SMOOTH",
"137 481 OFFCURVE",
"262 617 OFFCURVE",
"447 617 CURVE SMOOTH",
"569 617 OFFCURVE",
"642 563 OFFCURVE",
"642 426 CURVE SMOOTH",
"642 203 OFFCURVE",
"514 69 OFFCURVE",
"330 69 CURVE SMOOTH"
);
}
);
};
layerId = UUID0;
paths = (
{
closed = 1;
nodes = (
"607 -130 LINE",
"484 13 LINE",
"640 70 OFFCURVE",
"740 224 OFFCURVE",
"740 436 CURVE SMOOTH",
"740 611 OFFCURVE",
"631 698 OFFCURVE",
"441 698 CURVE SMOOTH",
"342 698 OFFCURVE",
"256 668 OFFCURVE",
"190 614 CURVE SMOOTH",
"94 536 OFFCURVE",
"38 409 OFFCURVE",
"38 248 CURVE SMOOTH",
"38 74 OFFCURVE",
"147 -12 OFFCURVE",
"336 -12 CURVE SMOOTH",
"352 -12 OFFCURVE",
"370 -11 OFFCURVE",
"386 -9 CURVE",
"486 -130 LINE"
);
},
{
closed = 1;
nodes = (
"209 69 OFFCURVE",
"137 123 OFFCURVE",
"137 258 CURVE SMOOTH",
"137 303 OFFCURVE",
"142 344 OFFCURVE",
"152 382 CURVE SMOOTH",
"190 530 OFFCURVE",
"299 617 OFFCURVE",
"447 617 CURVE SMOOTH",
"569 617 OFFCURVE",
"642 563 OFFCURVE",
"642 426 CURVE SMOOTH",
"642 376 OFFCURVE",
"636 331 OFFCURVE",
"624 291 CURVE SMOOTH",
"582 150 OFFCURVE",
"473 69 OFFCURVE",
"330 69 CURVE SMOOTH"
);
}
);
width = 778;
},
{
anchors = (
{
name = bottom;
position = "{343, 0}";
},
{
name = top;
position = "{464, 671}";
}
);
background = {
paths = (
{
closed = 1;
nodes = (
"636 -130 LINE",
"507 18 LINE",
"664 83 OFFCURVE",
"747 246 OFFCURVE",
"747 429 CURVE SMOOTH",
"747 611 OFFCURVE",
"630 698 OFFCURVE",
"432 698 CURVE SMOOTH",
"324 698 OFFCURVE",
"234 664 OFFCURVE",
"169 605 CURVE SMOOTH",
"79 523 OFFCURVE",
"34 395 OFFCURVE",
"34 257 CURVE SMOOTH",
"34 74 OFFCURVE",
"150 -12 OFFCURVE",
"347 -12 CURVE SMOOTH",
"350 -12 OFFCURVE",
"358 -11 OFFCURVE",
"358 -11 CURVE",
"461 -130 LINE"
);
},
{
closed = 1;
nodes = (
"562 192 OFFCURVE",
"477 111 OFFCURVE",
"339 111 CURVE SMOOTH",
"235 111 OFFCURVE",
"183 168 OFFCURVE",
"183 268 CURVE SMOOTH",
"183 286 OFFCURVE",
"185 306 OFFCURVE",
"194 358 CURVE SMOOTH",
"218 494 OFFCURVE",
"303 575 OFFCURVE",
"440 575 CURVE SMOOTH",
"545 575 OFFCURVE",
"597 517 OFFCURVE",
"597 418 CURVE SMOOTH",
"597 399 OFFCURVE",
"595 379 OFFCURVE",
"586 328 CURVE SMOOTH"
);
}
);
};
layerId = "515A5158-96A0-47B2-825D-DFEB99868FF8";
paths = (
{
closed = 1;
nodes = (
"636 -130 LINE",
"507 18 LINE",
"664 83 OFFCURVE",
"747 246 OFFCURVE",
"747 429 CURVE SMOOTH",
"747 611 OFFCURVE",
"630 698 OFFCURVE",
"432 698 CURVE SMOOTH",
"324 698 OFFCURVE",
"234 664 OFFCURVE",
"169 605 CURVE SMOOTH",
"79 523 OFFCURVE",
"34 395 OFFCURVE",
"34 257 CURVE SMOOTH",
"34 74 OFFCURVE",
"150 -12 OFFCURVE",
"347 -12 CURVE SMOOTH",
"350 -12 OFFCURVE",
"358 -11 OFFCURVE",
"358 -11 CURVE",
"461 -130 LINE"
);
},
{
closed = 1;
nodes = (
"235 111 OFFCURVE",
"183 168 OFFCURVE",
"183 268 CURVE SMOOTH",
"183 286 OFFCURVE",
"185 306 OFFCURVE",
"194 358 CURVE SMOOTH",
"218 494 OFFCURVE",
"303 575 OFFCURVE",
"440 575 CURVE SMOOTH",
"545 575 OFFCURVE",
"597 517 OFFCURVE",
"597 418 CURVE SMOOTH",
"597 399 OFFCURVE",
"595 379 OFFCURVE",
"586 328 CURVE SMOOTH",
"562 192 OFFCURVE",
"477 111 OFFCURVE",
"339 111 CURVE SMOOTH"
);
}
);
width = 778;
}
);
leftKerningGroup = O;
rightKerningGroup = O;
unicode = 0051;
},
{
color = 10;
glyphname = R;
lastChange = "2016-07-10 04:41:58 +0000";
layers = (
{
anchors = (
{
name = bottom;
position = "{315, 0}";
},
{
name = top;
position = "{436, 671}";
}
);
background = {
paths = (
{
closed = 1;
nodes = (
"113 0 LINE",
"163 283 LINE",
"419 283 LINE",
"518 0 LINE",
"620 0 LINE",
"515 295 LINE",
"611 324 OFFCURVE",
"679 407 OFFCURVE",
"679 513 CURVE SMOOTH",
"679 617 OFFCURVE",
"616 686 OFFCURVE",
"486 686 CURVE SMOOTH",
"139 686 LINE",
"18 0 LINE"
);
},
{
closed = 1;
nodes = (
"178 366 LINE",
"219 603 LINE",
"476 603 LINE SMOOTH",
"546 603 OFFCURVE",
"581 568 OFFCURVE",
"581 508 CURVE SMOOTH",
"581 419 OFFCURVE",
"515 366 OFFCURVE",
"435 366 CURVE SMOOTH"
);
}
);
};
layerId = UUID0;
paths = (
{
closed = 1;
nodes = (
"113 0 LINE",
"163 283 LINE",
"419 283 LINE",
"518 0 LINE",
"620 0 LINE",
"515 295 LINE",
"611 324 OFFCURVE",
"679 407 OFFCURVE",
"679 513 CURVE SMOOTH",
"679 617 OFFCURVE",
"616 686 OFFCURVE",
"486 686 CURVE SMOOTH",
"139 686 LINE",
"18 0 LINE"
);
},
{
closed = 1;
nodes = (
"219 603 LINE",
"476 603 LINE SMOOTH",
"546 603 OFFCURVE",
"581 568 OFFCURVE",
"581 508 CURVE SMOOTH",
"581 419 OFFCURVE",
"515 366 OFFCURVE",
"435 366 CURVE SMOOTH",
"178 366 LINE"
);
}
);
width = 722;
},
{
anchors = (
{
name = bottom;
position = "{315, 0}";
},
{
name = top;
position = "{436, 671}";
}
);
background = {
paths = (
{
closed = 1;
nodes = (
"624 0 LINE",
"533 277 LINE",
"619 305 OFFCURVE",
"692 377 OFFCURVE",
"692 496 CURVE SMOOTH",
"692 614 OFFCURVE",
"613 686 OFFCURVE",
"444 686 CURVE SMOOTH",
"130 686 LINE",
"9 0 LINE",
"154 0 LINE",
"199 256 LINE",
"395 256 LINE",
"471 0 LINE"
);
},
{
closed = 1;
nodes = (
"449 563 LINE",
"511 563 OFFCURVE",
"542 534 OFFCURVE",
"542 485 CURVE SMOOTH",
"542 419 OFFCURVE",
"501 377 OFFCURVE",
"426 377 CURVE SMOOTH",
"220 377 LINE",
"253 563 LINE"
);
}
);
};
layerId = "515A5158-96A0-47B2-825D-DFEB99868FF8";
paths = (
{
closed = 1;
nodes = (
"154 0 LINE",
"199 256 LINE",
"395 256 LINE",
"471 0 LINE",
"624 0 LINE",
"533 277 LINE",
"619 305 OFFCURVE",
"692 377 OFFCURVE",
"692 496 CURVE SMOOTH",
"692 614 OFFCURVE",
"613 686 OFFCURVE",
"444 686 CURVE SMOOTH",
"130 686 LINE",
"9 0 LINE"
);
},
{
closed = 1;
nodes = (
"253 563 LINE",
"449 563 LINE",
"511 563 OFFCURVE",
"542 534 OFFCURVE",
"542 485 CURVE SMOOTH",
"542 419 OFFCURVE",
"501 377 OFFCURVE",
"426 377 CURVE SMOOTH",
"220 377 LINE"
);
}
);
width = 722;
}
);
rightKerningGroup = R;
unicode = 0052;
},
{
color = 10;
glyphname = Racute;
lastChange = "2015-02-16 21:49:59 +0000";
layers = (
{
background = {
paths = (
{
closed = 1;
nodes = (
"113 0 LINE",
"163 283 LINE",
"419 283 LINE",
"518 0 LINE",
"620 0 LINE",
"515 295 LINE",
"611 324 OFFCURVE",
"679 407 OFFCURVE",
"679 513 CURVE SMOOTH",
"679 617 OFFCURVE",
"616 686 OFFCURVE",
"486 686 CURVE SMOOTH",
"139 686 LINE",
"18 0 LINE"
);
},
{
closed = 1;
nodes = (
"178 366 LINE",
"219 603 LINE",
"476 603 LINE SMOOTH",
"546 603 OFFCURVE",
"581 568 OFFCURVE",
"581 508 CURVE SMOOTH",
"581 419 OFFCURVE",
"515 366 OFFCURVE",
"435 366 CURVE SMOOTH"
);
},
{
closed = 1;
nodes = (
"432 737 LINE",
"556 866 LINE",
"555 869 LINE",
"454 869 LINE",
"346 737 LINE"
);
}
);
};
components = (
{
name = R;
},
{
name = acute;
transform = "{1, 0, 0, 1, 341, 145}";
}
);
layerId = UUID0;
width = 722;
},
{
background = {
paths = (
{
closed = 1;
nodes = (
"624 0 LINE",
"533 277 LINE",
"619 305 OFFCURVE",
"692 377 OFFCURVE",
"692 496 CURVE SMOOTH",
"692 614 OFFCURVE",
"613 686 OFFCURVE",
"444 686 CURVE SMOOTH",
"130 686 LINE",
"9 0 LINE",
"154 0 LINE",
"199 256 LINE",
"395 256 LINE",
"471 0 LINE"
);
},
{
closed = 1;
nodes = (
"449 563 LINE",
"511 563 OFFCURVE",
"542 534 OFFCURVE",
"542 485 CURVE SMOOTH",
"542 419 OFFCURVE",
"501 377 OFFCURVE",
"426 377 CURVE SMOOTH",
"220 377 LINE",
"253 563 LINE"
);
},
{
closed = 1;
nodes = (
"577 866 LINE",
"576 869 LINE",
"438 869 LINE",
"336 737 LINE",
"446 737 LINE"
);
}
);
};
components = (
{
name = R;
},
{
name = acute;
transform = "{1, 0, 0, 1, 334, 145}";
}
);
layerId = "515A5158-96A0-47B2-825D-DFEB99868FF8";
width = 722;
}
);
rightKerningGroup = R;
unicode = 0154;
},
{
color = 10;
glyphname = Rcaron;
lastChange = "2015-02-16 21:49:59 +0000";
layers = (
{
background = {
paths = (
{
closed = 1;
nodes = (
"113 0 LINE",
"163 283 LINE",
"419 283 LINE",
"518 0 LINE",
"620 0 LINE",
"515 295 LINE",
"611 324 OFFCURVE",
"679 407 OFFCURVE",
"679 513 CURVE SMOOTH",
"679 617 OFFCURVE",
"616 686 OFFCURVE",
"486 686 CURVE SMOOTH",
"139 686 LINE",
"18 0 LINE"
);
},
{
closed = 1;
nodes = (
"178 366 LINE",
"219 603 LINE",
"476 603 LINE SMOOTH",
"546 603 OFFCURVE",
"581 568 OFFCURVE",
"581 508 CURVE SMOOTH",
"581 419 OFFCURVE",
"515 366 OFFCURVE",
"435 366 CURVE SMOOTH"
);
},
{
closed = 1;
nodes = (
"276 872 LINE",
"358 737 LINE",
"442 737 LINE",
"571 872 LINE",
"477 872 LINE",
"407 793 LINE",
"362 872 LINE"
);
}
);
};
components = (
{
name = R;
},
{
name = caron;
transform = "{1, 0, 0, 1, 293, 145}";
}
);
layerId = UUID0;
width = 722;
},
{
background = {
paths = (
{
closed = 1;
nodes = (
"624 0 LINE",
"533 277 LINE",
"619 305 OFFCURVE",
"692 377 OFFCURVE",
"692 496 CURVE SMOOTH",
"692 614 OFFCURVE",
"613 686 OFFCURVE",
"444 686 CURVE SMOOTH",
"130 686 LINE",
"9 0 LINE",
"154 0 LINE",
"199 256 LINE",
"395 256 LINE",
"471 0 LINE"
);
},
{
closed = 1;
nodes = (
"449 563 LINE",
"511 563 OFFCURVE",
"542 534 OFFCURVE",
"542 485 CURVE SMOOTH",
"542 419 OFFCURVE",
"501 377 OFFCURVE",
"426 377 CURVE SMOOTH",
"220 377 LINE",
"253 563 LINE"
);
},
{
closed = 1;
nodes = (
"473 737 LINE",
"601 872 LINE",
"483 872 LINE",
"421 803 LINE",
"376 872 LINE",
"269 872 LINE",
"351 737 LINE"
);
}
);
};
components = (
{
name = R;
},
{
name = caron;
transform = "{1, 0, 0, 1, 293, 145}";
}
);
layerId = "515A5158-96A0-47B2-825D-DFEB99868FF8";
width = 722;
}
);
rightKerningGroup = R;
unicode = 0158;
},
{
color = 10;
glyphname = Rcommaaccent;
lastChange = "2015-02-16 21:49:59 +0000";
layers = (
{
background = {
paths = (
{
closed = 1;
nodes = (
"293 -239 LINE",
"354 -127 LINE",
"369 -43 LINE",
"284 -43 LINE",
"268 -134 LINE",
"300 -134 LINE",
"247 -239 LINE"
);
},
{
closed = 1;
nodes = (
"113 0 LINE",
"163 283 LINE",
"419 283 LINE",
"518 0 LINE",
"620 0 LINE",
"515 295 LINE",
"611 324 OFFCURVE",
"679 407 OFFCURVE",
"679 513 CURVE SMOOTH",
"679 617 OFFCURVE",
"616 686 OFFCURVE",
"486 686 CURVE SMOOTH",
"139 686 LINE",
"18 0 LINE"
);
},
{
closed = 1;
nodes = (
"178 366 LINE",
"219 603 LINE",
"476 603 LINE SMOOTH",
"546 603 OFFCURVE",
"581 568 OFFCURVE",
"581 508 CURVE SMOOTH",
"581 419 OFFCURVE",
"515 366 OFFCURVE",
"435 366 CURVE SMOOTH"
);
}
);
};
components = (
{
name = R;
},
{
name = commaaccent;
transform = "{1, 0, 0, 1, 180, 0}";
}
);
layerId = UUID0;
width = 722;
},
{
background = {
paths = (
{
closed = 1;
nodes = (
"290 -250 LINE",
"376 -141 LINE",
"391 -55 LINE",
"253 -55 LINE",
"235 -153 LINE",
"288 -153 LINE",
"218 -250 LINE"
);
},
{
closed = 1;
nodes = (
"624 0 LINE",
"533 277 LINE",
"619 305 OFFCURVE",
"692 377 OFFCURVE",
"692 496 CURVE SMOOTH",
"692 614 OFFCURVE",
"613 686 OFFCURVE",
"444 686 CURVE SMOOTH",
"130 686 LINE",
"9 0 LINE",
"154 0 LINE",
"199 256 LINE",
"395 256 LINE",
"471 0 LINE"
);
},
{
closed = 1;
nodes = (
"449 563 LINE",
"511 563 OFFCURVE",
"542 534 OFFCURVE",
"542 485 CURVE SMOOTH",
"542 419 OFFCURVE",
"501 377 OFFCURVE",
"426 377 CURVE SMOOTH",
"220 377 LINE",
"253 563 LINE"
);
}
);
};
components = (
{
name = R;
},
{
name = commaaccent;
transform = "{1, 0, 0, 1, 125, 0}";
}
);
layerId = "515A5158-96A0-47B2-825D-DFEB99868FF8";
width = 722;
}
);
rightKerningGroup = R;
unicode = 0156;
},
{
color = 10;
glyphname = S;
lastChange = "2016-07-10 04:41:58 +0000";
layers = (
{
anchors = (
{
name = bottom;
position = "{288, 0}";
},
{
name = top;
position = "{409, 671}";
}
);
background = {
paths = (
{
closed = 1;
nodes = (
"622 493 LINE",
"626 513 OFFCURVE",
"627 530 OFFCURVE",
"627 542 CURVE SMOOTH",
"627 652 OFFCURVE",
"519 698 OFFCURVE",
"375 698 CURVE SMOOTH",
"232 698 OFFCURVE",
"93 635 OFFCURVE",
"93 500 CURVE SMOOTH",
"93 279 OFFCURVE",
"493 351 OFFCURVE",
"493 195 CURVE SMOOTH",
"493 114 OFFCURVE",
"408 69 OFFCURVE",
"278 69 CURVE SMOOTH",
"180 69 OFFCURVE",
"113 102 OFFCURVE",
"113 171 CURVE SMOOTH",
"113 186 OFFCURVE",
"118 204 OFFCURVE",
"121 214 CURVE",
"27 214 LINE",
"22 199 OFFCURVE",
"19 173 OFFCURVE",
"19 155 CURVE SMOOTH",
"19 33 OFFCURVE",
"138 -12 OFFCURVE",
"289 -12 CURVE SMOOTH",
"442 -12 OFFCURVE",
"593 50 OFFCURVE",
"593 209 CURVE SMOOTH",
"593 430 OFFCURVE",
"192 363 OFFCURVE",
"192 511 CURVE SMOOTH",
"192 584 OFFCURVE",
"278 617 OFFCURVE",
"384 617 CURVE SMOOTH",
"472 617 OFFCURVE",
"533 584 OFFCURVE",
"533 524 CURVE SMOOTH",
"533 519 OFFCURVE",
"533 508 OFFCURVE",
"529 493 CURVE"
);
}
);
};
layerId = UUID0;
paths = (
{
closed = 1;
nodes = (
"442 -12 OFFCURVE",
"593 50 OFFCURVE",
"593 209 CURVE SMOOTH",
"593 430 OFFCURVE",
"192 363 OFFCURVE",
"192 511 CURVE SMOOTH",
"192 584 OFFCURVE",
"278 617 OFFCURVE",
"384 617 CURVE SMOOTH",
"472 617 OFFCURVE",
"533 584 OFFCURVE",
"533 524 CURVE SMOOTH",
"533 519 OFFCURVE",
"533 508 OFFCURVE",
"529 493 CURVE",
"622 493 LINE",
"626 513 OFFCURVE",
"627 530 OFFCURVE",
"627 542 CURVE SMOOTH",
"627 652 OFFCURVE",
"519 698 OFFCURVE",
"375 698 CURVE SMOOTH",
"232 698 OFFCURVE",
"93 635 OFFCURVE",
"93 500 CURVE SMOOTH",
"93 279 OFFCURVE",
"493 351 OFFCURVE",
"493 195 CURVE SMOOTH",
"493 114 OFFCURVE",
"408 69 OFFCURVE",
"278 69 CURVE SMOOTH",
"180 69 OFFCURVE",
"113 102 OFFCURVE",
"113 171 CURVE SMOOTH",
"113 186 OFFCURVE",
"118 204 OFFCURVE",
"121 214 CURVE",
"27 214 LINE",
"22 199 OFFCURVE",
"19 173 OFFCURVE",
"19 155 CURVE SMOOTH",
"19 33 OFFCURVE",
"138 -12 OFFCURVE",
"289 -12 CURVE SMOOTH"
);
}
);
width = 667;
},
{
anchors = (
{
name = bottom;
position = "{288, 0}";
},
{
name = top;
position = "{409, 671}";
}
);
background = {
paths = (
{
closed = 1;
nodes = (
"634 484 LINE",
"638 509 OFFCURVE",
"639 522 OFFCURVE",
"639 534 CURVE SMOOTH",
"639 648 OFFCURVE",
"524 698 OFFCURVE",
"372 698 CURVE SMOOTH",
"215 698 OFFCURVE",
"87 627 OFFCURVE",
"87 480 CURVE SMOOTH",
"87 267 OFFCURVE",
"452 320 OFFCURVE",
"452 195 CURVE SMOOTH",
"452 148 OFFCURVE",
"412 111 OFFCURVE",
"299 111 CURVE SMOOTH",
"213 111 OFFCURVE",
"166 142 OFFCURVE",
"166 191 CURVE SMOOTH",
"166 201 OFFCURVE",
"170 216 OFFCURVE",
"171 223 CURVE",
"24 223 LINE",
"20 208 OFFCURVE",
"16 185 OFFCURVE",
"16 167 CURVE SMOOTH",
"16 48 OFFCURVE",
"145 -12 OFFCURVE",
"310 -12 CURVE SMOOTH",
"454 -12 OFFCURVE",
"604 50 OFFCURVE",
"604 225 CURVE SMOOTH",
"604 437 OFFCURVE",
"236 393 OFFCURVE",
"236 502 CURVE SMOOTH",
"236 547 OFFCURVE",
"288 575 OFFCURVE",
"378 575 CURVE SMOOTH",
"450 575 OFFCURVE",
"493 549 OFFCURVE",
"493 506 CURVE SMOOTH",
"493 502 OFFCURVE",
"493 497 OFFCURVE",
"490 484 CURVE"
);
}
);
};
layerId = "515A5158-96A0-47B2-825D-DFEB99868FF8";
paths = (
{
closed = 1;
nodes = (
"454 -12 OFFCURVE",
"604 50 OFFCURVE",
"604 225 CURVE SMOOTH",
"604 437 OFFCURVE",
"236 393 OFFCURVE",
"236 502 CURVE SMOOTH",
"236 547 OFFCURVE",
"288 575 OFFCURVE",
"378 575 CURVE SMOOTH",
"450 575 OFFCURVE",
"493 549 OFFCURVE",
"493 506 CURVE SMOOTH",
"493 502 OFFCURVE",
"493 497 OFFCURVE",
"490 484 CURVE",
"634 484 LINE",
"638 509 OFFCURVE",
"639 522 OFFCURVE",
"639 534 CURVE SMOOTH",
"639 648 OFFCURVE",
"524 698 OFFCURVE",
"372 698 CURVE SMOOTH",
"215 698 OFFCURVE",
"87 627 OFFCURVE",
"87 480 CURVE SMOOTH",
"87 267 OFFCURVE",
"452 320 OFFCURVE",
"452 195 CURVE SMOOTH",
"452 148 OFFCURVE",
"412 111 OFFCURVE",
"299 111 CURVE SMOOTH",
"213 111 OFFCURVE",
"166 142 OFFCURVE",
"166 191 CURVE SMOOTH",
"166 201 OFFCURVE",
"170 216 OFFCURVE",
"171 223 CURVE",
"24 223 LINE",
"20 208 OFFCURVE",
"16 185 OFFCURVE",
"16 167 CURVE SMOOTH",
"16 48 OFFCURVE",
"145 -12 OFFCURVE",
"310 -12 CURVE SMOOTH"
);
}
);
width = 667;
}
);
unicode = 0053;
},
{
color = 10;
glyphname = Sacute;
lastChange = "2015-02-12 03:01:33 +0000";
layers = (
{
background = {
paths = (
{
closed = 1;
nodes = (
"622 493 LINE",
"626 513 OFFCURVE",
"627 530 OFFCURVE",
"627 542 CURVE SMOOTH",
"627 652 OFFCURVE",
"519 698 OFFCURVE",
"375 698 CURVE SMOOTH",
"232 698 OFFCURVE",
"93 635 OFFCURVE",
"93 500 CURVE SMOOTH",
"93 279 OFFCURVE",
"493 351 OFFCURVE",
"493 195 CURVE SMOOTH",
"493 114 OFFCURVE",
"408 69 OFFCURVE",
"278 69 CURVE SMOOTH",
"180 69 OFFCURVE",
"113 102 OFFCURVE",
"113 171 CURVE SMOOTH",
"113 186 OFFCURVE",
"118 204 OFFCURVE",
"121 214 CURVE",
"27 214 LINE",
"22 199 OFFCURVE",
"19 173 OFFCURVE",
"19 155 CURVE SMOOTH",
"19 33 OFFCURVE",
"138 -12 OFFCURVE",
"289 -12 CURVE SMOOTH",
"442 -12 OFFCURVE",
"593 50 OFFCURVE",
"593 209 CURVE SMOOTH",
"593 430 OFFCURVE",
"192 363 OFFCURVE",
"192 511 CURVE SMOOTH",
"192 584 OFFCURVE",
"278 617 OFFCURVE",
"384 617 CURVE SMOOTH",
"472 617 OFFCURVE",
"533 584 OFFCURVE",
"533 524 CURVE SMOOTH",
"533 519 OFFCURVE",
"533 508 OFFCURVE",
"529 493 CURVE"
);
},
{
closed = 1;
nodes = (
"418 737 LINE",
"542 866 LINE",
"541 869 LINE",
"440 869 LINE",
"332 737 LINE"
);
}
);
};
components = (
{
name = S;
},
{
name = acute;
transform = "{1, 0, 0, 1, 314, 145}";
}
);
layerId = UUID0;
width = 667;
},
{
background = {
paths = (
{
closed = 1;
nodes = (
"634 484 LINE",
"638 509 OFFCURVE",
"639 522 OFFCURVE",
"639 534 CURVE SMOOTH",
"639 648 OFFCURVE",
"524 698 OFFCURVE",
"372 698 CURVE SMOOTH",
"215 698 OFFCURVE",
"87 627 OFFCURVE",
"87 480 CURVE SMOOTH",
"87 267 OFFCURVE",
"452 320 OFFCURVE",
"452 195 CURVE SMOOTH",
"452 148 OFFCURVE",
"412 111 OFFCURVE",
"299 111 CURVE SMOOTH",
"213 111 OFFCURVE",
"166 142 OFFCURVE",
"166 191 CURVE SMOOTH",
"166 201 OFFCURVE",
"170 216 OFFCURVE",
"171 223 CURVE",
"24 223 LINE",
"20 208 OFFCURVE",
"16 185 OFFCURVE",
"16 167 CURVE SMOOTH",
"16 48 OFFCURVE",
"145 -12 OFFCURVE",
"310 -12 CURVE SMOOTH",
"454 -12 OFFCURVE",
"604 50 OFFCURVE",
"604 225 CURVE SMOOTH",
"604 437 OFFCURVE",
"236 393 OFFCURVE",
"236 502 CURVE SMOOTH",
"236 547 OFFCURVE",
"288 575 OFFCURVE",
"378 575 CURVE SMOOTH",
"450 575 OFFCURVE",
"493 549 OFFCURVE",
"493 506 CURVE SMOOTH",
"493 502 OFFCURVE",
"493 497 OFFCURVE",
"490 484 CURVE"
);
},
{
closed = 1;
nodes = (
"572 866 LINE",
"571 869 LINE",
"433 869 LINE",
"331 737 LINE",
"441 737 LINE"
);
}
);
};
components = (
{
name = S;
},
{
name = acute;
transform = "{1, 0, 0, 1, 307, 145}";
}
);
layerId = "515A5158-96A0-47B2-825D-DFEB99868FF8";
width = 667;
}
);
unicode = 015A;
},
{
color = 4;
glyphname = Saltillo;
lastChange = "2015-02-23 19:51:41 +0000";
layers = (
{
background = {
paths = (
{
closed = 1;
nodes = (
"98 208 LINE",
"165 440 LINE",
"208 686 LINE",
"108 686 LINE",
"65 440 LINE",
"50 208 LINE"
);
}
);
};
layerId = UUID0;
paths = (
{
closed = 1;
nodes = (
"73 208 LINE",
"192 587 LINE",
"209 686 LINE",
"109 686 LINE",
"25 208 LINE"
);
}
);
width = 171;
},
{
background = {
paths = (
{
closed = 1;
nodes = (
"159 207 LINE",
"221 439 LINE",
"264 686 LINE",
"115 686 LINE",
"72 439 LINE",
"53 207 LINE"
);
}
);
};
layerId = "515A5158-96A0-47B2-825D-DFEB99868FF8";
paths = (
{
closed = 1;
nodes = (
"124 207 LINE",
"230 566 LINE",
"251 686 LINE",
"117 686 LINE",
"33 207 LINE"
);
}
);
width = 223;
}
);
unicode = A78B;
},
{
color = 10;
glyphname = Scaron;
lastChange = "2015-02-12 03:01:33 +0000";
layers = (
{
background = {
paths = (
{
closed = 1;
nodes = (
"622 493 LINE",
"626 513 OFFCURVE",
"627 530 OFFCURVE",
"627 542 CURVE SMOOTH",
"627 652 OFFCURVE",
"519 698 OFFCURVE",
"375 698 CURVE SMOOTH",
"232 698 OFFCURVE",
"93 635 OFFCURVE",
"93 500 CURVE SMOOTH",
"93 279 OFFCURVE",
"493 351 OFFCURVE",
"493 195 CURVE SMOOTH",
"493 114 OFFCURVE",
"408 69 OFFCURVE",
"278 69 CURVE SMOOTH",
"180 69 OFFCURVE",
"113 102 OFFCURVE",
"113 171 CURVE SMOOTH",
"113 186 OFFCURVE",
"118 204 OFFCURVE",
"121 214 CURVE",
"27 214 LINE",
"22 199 OFFCURVE",
"19 173 OFFCURVE",
"19 155 CURVE SMOOTH",
"19 33 OFFCURVE",
"138 -12 OFFCURVE",
"289 -12 CURVE SMOOTH",
"442 -12 OFFCURVE",
"593 50 OFFCURVE",
"593 209 CURVE SMOOTH",
"593 430 OFFCURVE",
"192 363 OFFCURVE",
"192 511 CURVE SMOOTH",
"192 584 OFFCURVE",
"278 617 OFFCURVE",
"384 617 CURVE SMOOTH",
"472 617 OFFCURVE",
"533 584 OFFCURVE",
"533 524 CURVE SMOOTH",
"533 519 OFFCURVE",
"533 508 OFFCURVE",
"529 493 CURVE"
);
},
{
closed = 1;
nodes = (
"276 872 LINE",
"358 737 LINE",
"442 737 LINE",
"571 872 LINE",
"477 872 LINE",
"407 793 LINE",
"362 872 LINE"
);
}
);
};
components = (
{
name = S;
},
{
name = caron;
transform = "{1, 0, 0, 1, 266, 145}";
}
);
layerId = UUID0;
width = 667;
},
{
background = {
paths = (
{
closed = 1;
nodes = (
"634 484 LINE",
"638 509 OFFCURVE",
"639 522 OFFCURVE",
"639 534 CURVE SMOOTH",
"639 648 OFFCURVE",
"524 698 OFFCURVE",
"372 698 CURVE SMOOTH",
"215 698 OFFCURVE",
"87 627 OFFCURVE",
"87 480 CURVE SMOOTH",
"87 267 OFFCURVE",
"452 320 OFFCURVE",
"452 195 CURVE SMOOTH",
"452 148 OFFCURVE",
"412 111 OFFCURVE",
"299 111 CURVE SMOOTH",
"213 111 OFFCURVE",
"166 142 OFFCURVE",
"166 191 CURVE SMOOTH",
"166 201 OFFCURVE",
"170 216 OFFCURVE",
"171 223 CURVE",
"24 223 LINE",
"20 208 OFFCURVE",
"16 185 OFFCURVE",
"16 167 CURVE SMOOTH",
"16 48 OFFCURVE",
"145 -12 OFFCURVE",
"310 -12 CURVE SMOOTH",
"454 -12 OFFCURVE",
"604 50 OFFCURVE",
"604 225 CURVE SMOOTH",
"604 437 OFFCURVE",
"236 393 OFFCURVE",
"236 502 CURVE SMOOTH",
"236 547 OFFCURVE",
"288 575 OFFCURVE",
"378 575 CURVE SMOOTH",
"450 575 OFFCURVE",
"493 549 OFFCURVE",
"493 506 CURVE SMOOTH",
"493 502 OFFCURVE",
"493 497 OFFCURVE",
"490 484 CURVE"
);
},
{
closed = 1;
nodes = (
"466 737 LINE",
"594 872 LINE",
"476 872 LINE",
"414 803 LINE",
"369 872 LINE",
"262 872 LINE",
"344 737 LINE"
);
}
);
};
components = (
{
name = S;
},
{
name = caron;
transform = "{1, 0, 0, 1, 266, 145}";
}
);
layerId = "515A5158-96A0-47B2-825D-DFEB99868FF8";
width = 667;
}
);
unicode = 0160;
},
